<svg width="35" height="31" viewBox="0 0 35 31" fill="none" xmlns="http://www.w3.org/2000/svg">
<path fill-rule="evenodd" clip-rule="evenodd" d="M0.413192 7.81654C1.2127 4.68436 3.31321 2.1145 6.06967 0.846781C9.43221 -0.698363 13.5823 -0.231283 17.2844 3.09987C20.9891 -0.231163 25.137 -0.698562 28.5 0.846781C32.0488 2.47816 34.5081 6.26592 34.5081 10.6334C34.5081 11.2393 34.4727 11.8249 34.4053 12.3913L34.5073 12.7116L34.3279 12.948C33.8203 16.1348 32.2911 18.6971 30.3954 20.842C28.5313 22.9529 26.2494 24.7194 24.2331 26.2803C23.7711 26.6379 23.3231 26.9848 22.8972 27.3225C22.0753 27.9731 21.1957 28.6656 20.3017 29.1906C19.4093 29.714 18.3903 30.1407 17.2848 30.1407C16.1793 30.1407 15.1604 29.714 14.268 29.1906C13.3756 28.6656 12.4944 27.9731 11.6724 27.3225C11.2479 26.9861 10.7956 26.6359 10.329 26.2746C9.48882 25.6241 8.60209 24.9376 7.74714 24.2304C7.38756 23.8657 6.97187 23.4717 6.52356 23.0467C3.65168 20.3247 -0.559151 16.3335 0.0615508 10.6334C0.0615508 10.5824 0.0618864 10.5315 0.0625553 10.4807C0.0461509 9.60907 0.14467 8.71242 0.413192 7.81654Z" fill="#FFA366"/>
</svg>
