<svg width="17" height="18" viewBox="0 0 17 18" fill="none" xmlns="http://www.w3.org/2000/svg">
<g id="Group">
<path id="Vector" d="M1 8.51001C1 6.83001 2.36 5.48001 4.03 5.48001H12.73C14.41 5.48001 15.76 6.84001 15.76 8.51001V13.65C15.76 15.33 14.4 16.68 12.73 16.68H4.03C2.35 16.68 1 15.32 1 13.65V12.13" stroke="#E05555" stroke-miterlimit="10" stroke-linecap="round"/>
<path id="Vector_2" d="M5.52002 5.32001V3.16C5.52002 1.97 6.79002 1 8.36002 1C9.93002 1 11.2 1.97 11.2 3.16V5.32001" stroke="#E05555" stroke-miterlimit="10" stroke-linecap="round"/>
<path id="Vector_3" d="M9.60017 10.6C9.60017 9.93001 9.06017 9.39 8.39017 9.39C7.72017 9.39 7.18018 9.93001 7.18018 10.6C7.18018 11.09 7.47017 11.51 7.89017 11.7V12.26C7.89017 12.54 8.12017 12.76 8.39017 12.76C8.67017 12.76 8.89017 12.53 8.89017 12.26V11.7C9.31017 11.51 9.60017 11.09 9.60017 10.6Z" fill="#E05555"/>
</g>
</svg>
