<svg width="41" height="37" viewBox="0 0 41 37" fill="none" xmlns="http://www.w3.org/2000/svg">
<path d="M35.3734 16.6685C34.8313 17.4816 33.6117 17.4816 33.0696 16.6685L28.8686 9.35064C26.4293 5.14963 29.4106 0 34.2892 0C39.0323 0 42.0137 5.14963 39.7099 9.35064L35.3734 16.6685Z" fill="#FFA366"/>
<path d="M34.2888 9.89309C36.3096 9.89309 37.9478 8.25492 37.9478 6.23414C37.9478 4.21336 36.3096 2.5752 34.2888 2.5752C32.2681 2.5752 30.6299 4.21336 30.6299 6.23414C30.6299 8.25492 32.2681 9.89309 34.2888 9.89309Z" fill="white"/>
<path d="M7.3734 35.6686C6.83134 36.4817 5.61167 36.4817 5.0696 35.6686L0.86858 28.3507C-1.57072 24.1496 1.41065 19 6.28925 19C11.0323 19 14.0137 24.1496 11.7099 28.3507L7.3734 35.6686Z" fill="#FFA366"/>
<path d="M6.15307 28.8921C8.17385 28.8921 9.81203 27.2539 9.81203 25.2332C9.81203 23.2124 8.17385 21.5742 6.15307 21.5742C4.13228 21.5742 2.49414 23.2124 2.49414 25.2332C2.49414 27.2539 4.13228 28.8921 6.15307 28.8921Z" fill="white"/>
<path d="M31 17H21.4342C19.3631 17 17.6842 18.6789 17.6842 20.75V20.75C17.6842 22.8211 19.3631 24.5 21.4342 24.5H25.25C28.4256 24.5 31 27.0744 31 30.25V30.25C31 33.4256 28.4256 36 25.25 36H9" stroke="#FFA366" stroke-linecap="round" stroke-dasharray="2 2"/>
</svg>
