<svg width="35" height="31" viewBox="0 0 35 31" fill="none" xmlns="http://www.w3.org/2000/svg">
<path d="M17.5 4.91243L16.6209 5.77373C16.7348 5.89396 16.8714 5.98959 17.0224 6.05491C17.1734 6.12023 17.3359 6.15389 17.5 6.15389C17.6641 6.15389 17.8265 6.12023 17.9776 6.05491C18.1286 5.98959 18.2652 5.89396 18.3791 5.77373L17.5 4.91243ZM9.36209 22.9998C9.11168 22.7903 8.78971 22.6905 8.46702 22.7225C8.14432 22.7545 7.84734 22.9156 7.6414 23.1704C7.43545 23.4252 7.33742 23.7528 7.36886 24.0811C7.40031 24.4095 7.55866 24.7116 7.80907 24.9212L9.36209 22.9998ZM1.77767 18.0158C1.85464 18.159 1.95855 18.2853 2.08348 18.3875C2.20842 18.4898 2.35192 18.566 2.50581 18.6119C2.65969 18.6577 2.82095 18.6722 2.98036 18.6547C3.13977 18.6371 3.29422 18.5877 3.43488 18.5094C3.57555 18.4311 3.69968 18.3254 3.80019 18.1983C3.9007 18.0712 3.97561 17.9252 4.02066 17.7686C4.06571 17.612 4.08 17.4479 4.06273 17.2857C4.04546 17.1235 3.99696 16.9664 3.92 16.8233L1.77767 18.0158ZM2.44186 10.9366C2.44186 7.37542 4.41977 4.38736 7.12046 3.13019C9.74465 1.90946 13.2707 2.23244 16.6209 5.77373L18.3791 4.05278C14.407 -0.149392 9.79023 -0.843405 6.10465 0.870922C2.50047 2.54881 0 6.44455 0 10.9366H2.44186ZM11.7974 28.1014C12.6326 28.7705 13.5279 29.4828 14.4347 30.0228C15.3414 30.5611 16.3767 31 17.5 31V28.5155C16.9953 28.5155 16.4028 28.3167 15.667 27.8778C14.9295 27.4405 14.166 26.8376 13.3098 26.1502L11.7974 28.1014ZM23.2026 28.1014C25.524 26.238 28.4933 24.1046 30.8212 21.4362C33.193 18.7198 35 15.3524 35 10.9366H32.5581C32.5581 14.5756 31.093 17.3815 28.9963 19.7865C26.8556 22.2379 24.1581 24.1709 21.6902 26.1502L23.2026 28.1014ZM35 10.9366C35 6.44455 32.5012 2.54881 28.8953 0.870922C25.2098 -0.843405 20.5963 -0.149392 16.6209 4.05112L18.3791 5.77373C21.7293 2.2341 25.2553 1.90946 27.8795 3.13019C30.5802 4.38736 32.5581 7.37377 32.5581 10.9366H35ZM21.6902 26.1502C20.834 26.8376 20.0705 27.4405 19.333 27.8778C18.5972 28.3151 18.0047 28.5155 17.5 28.5155V31C18.6233 31 19.6586 30.5611 20.5653 30.0228C21.4737 29.4828 22.3674 28.7705 23.2026 28.1014L21.6902 26.1502ZM13.3098 26.1502C12.014 25.1117 10.697 24.1178 9.36209 22.9998L7.80907 24.9212C9.16023 26.0525 10.5895 27.1324 11.7974 28.1014L13.3114 26.1502H13.3098ZM3.92 16.8249C2.93936 15.0235 2.43036 12.9958 2.44186 10.9366H0C0 13.6497 0.683721 15.9818 1.77767 18.0158L3.92 16.8233V16.8249Z" fill="#FFA366"/>
</svg>
