<svg width="33" height="40" viewBox="0 0 33 40" fill="none" xmlns="http://www.w3.org/2000/svg">
<path d="M31.9858 32.5872V37.0077C31.9858 37.7586 31.2349 38.2828 30.5265 38.0136L24.25 35.605V11.3916L31.3058 14.0977C31.7166 14.2536 32 14.6503 32 15.1037V25.404" stroke="#FFA366" stroke-width="2" stroke-miterlimit="10" stroke-linecap="round" stroke-linejoin="round"/>
<path d="M24.2358 11.377L16.5 14.3523V38.5657L24.2358 35.5904V11.377Z" stroke="#FFA366" stroke-width="2" stroke-miterlimit="10" stroke-linecap="round" stroke-linejoin="round"/>
<path d="M8.75 11.377L16.4858 14.3523V38.5657L8.75 35.5904V11.377Z" stroke="#FFA366" stroke-width="2" stroke-miterlimit="10" stroke-linecap="round" stroke-linejoin="round"/>
<path d="M8.73584 11.377L1.5809 14.1256C1.22669 14.2673 1 14.5931 1 14.9757V37.2481C1 37.8856 1.63757 38.3249 2.23264 38.0982L8.73584 35.6046V11.377Z" stroke="#FFA366" stroke-width="2" stroke-miterlimit="10" stroke-linecap="round" stroke-linejoin="round"/>
<path fill-rule="evenodd" clip-rule="evenodd" d="M3.29462 9.7194L7.71509 17.3844C8.23932 18.3053 9.57113 18.3053 10.0954 17.3844L14.5158 9.7194C17.0094 5.3981 13.8924 0 8.90522 0C3.91802 0 0.80102 5.3981 3.29462 9.7194ZM12.8298 6.47433C12.8298 8.64182 11.0727 10.3989 8.90525 10.3989C6.73776 10.3989 4.98066 8.64182 4.98066 6.47433C4.98066 4.30684 6.73776 2.54976 8.90525 2.54976C11.0727 2.54976 12.8298 4.30684 12.8298 6.47433Z" fill="#FFA366"/>
</svg>
