<svg width="165" height="115" viewBox="0 0 165 115" fill="none" xmlns="http://www.w3.org/2000/svg">
<path d="M50.6755 83.7576C48.6132 73.5108 40.8153 65.4552 30.633 63.0063C23.6514 61.3307 15.0587 61.8463 7.54009 69.7945C2.53484 75.1005 0 82.2539 0 89.5577V111.147C0 112.371 0.988158 113.359 2.21262 113.359H13.1039C14.1994 113.359 15.0802 112.479 15.0802 111.383V97.3986V88.7199C15.0802 85.5621 16.1758 82.4258 18.3884 80.1917C21.3958 77.1627 24.8114 76.9479 27.6041 77.6139C31.5567 78.5376 34.779 81.6524 35.7671 85.6051C36.6693 89.171 35.6167 91.9207 34.0701 93.9615C31.8574 96.8615 28.2485 98.3223 24.5966 98.3223H21.6751C20.7943 98.3223 20.0854 99.0312 20.0854 99.9119V111.405C20.0854 112.5 20.9662 113.381 22.0618 113.381H23.7588C32.5449 113.381 41.0087 109.643 46.2717 102.726C49.8162 98.0215 52.2651 91.7489 50.6755 83.7576Z" fill="#FFA366"/>
<path d="M33.533 81.2876C34.5641 82.5335 35.359 83.9728 35.7671 85.5839C36.6694 89.1499 35.6168 91.8995 34.0701 93.9403C31.8574 96.8403 28.2485 98.3011 24.5966 98.3011H21.6751C20.7944 98.3011 20.0854 99.01 20.0854 99.8908V111.383C20.0854 112.479 20.9662 113.36 22.0618 113.36H23.7588C32.5449 113.36 41.0087 109.622 46.2717 102.705C49.8377 98.0218 52.2651 91.7492 50.6755 83.758C50.3532 82.2113 49.9021 80.7075 49.3436 79.2683C44.0591 79.0964 38.3235 79.8268 33.533 81.2876Z" fill="#FFD167"/>
<path d="M2.2341 113.36H13.1254C14.2209 113.36 15.1017 112.479 15.1017 111.383V97.3986V88.72C15.1017 87.4096 15.338 86.1207 15.7032 84.8748C8.829 82.6621 2.8356 77.2487 2.68523 77.1413C0.923722 81.008 0.0214844 85.2614 0.0214844 89.5793V111.168C0.0214844 112.371 1.00964 113.36 2.2341 113.36Z" fill="#FFD167"/>
<path d="M42.7058 3.78079C42.7703 4.33932 42.7058 5.4134 42.6414 5.82155C42.491 6.31563 42.2118 6.74527 41.6532 7.23935C41.374 7.51861 41.0088 7.79788 40.4503 7.94825C39.8917 8.09862 39.3117 8.16307 38.6888 8.22752C38.0658 8.29196 37.4858 8.37789 36.8413 8.37789H32.8028V9.58086C32.7383 18.0017 33.5117 26.6159 32.9531 35.0367C32.4591 40.7724 30.9124 47.131 24.4678 49.6873C18.5174 52.0288 9.3232 51.5347 4.7261 47.2169C2.32014 45.0258 -0.0858113 39.999 4.08165 37.679C7.75503 35.5523 9.60246 41.0087 13.2114 41.8465C24.7471 44.5961 22.8352 29.6878 22.9641 24.1025C23.0286 19.1617 22.8997 14.3498 22.8997 9.38752V9.10827C22.9641 8.9579 22.9641 8.829 22.9641 8.67863H22.7493C21.6108 8.52826 14.5433 8.52825 13.3403 8.46381H12.3521V8.39937C11.5788 8.33492 10.8699 8.1201 10.0965 7.90529C9.23727 7.62602 8.54986 7.19639 8.05578 6.55193C7.5617 6.05785 7.34688 4.79043 7.34688 4.08154C7.34688 3.58746 7.34688 3.02893 7.49725 2.53485C7.56169 2.04077 7.92688 1.54669 8.48541 1.11705C8.76467 0.902235 9.25875 0.622974 9.83876 0.472601C10.4832 0.322229 11.1921 0.193339 11.8795 0.128893C12.524 0.0644482 13.2329 0.0644426 13.9203 0.0644426H20.7085C21.2671 0.0644426 22.0619 0.0644453 22.9641 0C26.6375 0 30.2464 -2.62084e-06 33.6405 0.0644426H34.0702C35.0583 0.0644426 36.1109 0.128893 37.1206 0.128893C38.2591 0.193339 39.2473 0.408155 40.171 0.773344C40.9443 0.988162 41.5243 1.33187 42.0184 1.97633C42.4266 2.51337 42.7058 3.0719 42.7058 3.78079Z" fill="#FFD167"/>
<path d="M57.6785 8.78651L57.5281 19.8926H60.3637C64.1875 19.8281 66.8727 19.8281 70.5461 19.8926H70.8898C72.0283 19.8926 73.0809 19.957 74.1335 19.957C75.2721 20.0215 76.3247 20.3007 77.3128 20.6015C78.1721 20.8807 78.7951 21.3104 79.2891 21.8689C79.7832 22.5133 79.998 23.2222 79.998 23.9097C79.998 24.4037 79.998 25.0482 79.8477 25.5423C79.7832 26.0364 79.504 26.5304 78.924 26.9601C78.6447 27.3038 78.1506 27.5186 77.5706 27.669C77.0765 27.8193 76.4321 27.9482 75.7232 28.0127C75.0787 28.163 74.4558 28.2275 73.7469 28.2275H70.4172L57.3348 28.2919L57.1844 42.1477L71.255 42.298H74.5846C75.2935 42.298 76.0024 42.298 76.561 42.3625C77.2699 42.5129 77.9143 42.5773 78.4728 42.7062C79.0314 42.921 79.5254 43.2003 79.8906 43.4795C80.3847 43.9736 80.664 44.4033 80.8143 44.9618C80.8788 45.3914 80.9647 45.9499 80.8788 46.5085C80.8788 47.2818 80.664 47.9263 80.1699 48.5492C79.6758 49.1078 79.0314 49.6018 78.1936 49.8167C77.2054 50.2463 76.1528 50.4611 74.9498 50.4611C73.8972 50.5256 72.7587 50.5256 71.7061 50.6115H71.2765C67.6031 50.6759 63.7793 50.6759 59.8267 50.6115C56.1533 50.547 55.7881 50.547 52.8236 50.547C51.8355 50.6115 50.9117 50.4826 50.1384 49.9885C49.6443 49.7092 49.2147 49.2796 48.9354 48.6352C48.7851 48.4848 48.7206 48.2914 48.7206 48.2055C48.6562 48.0551 48.5058 47.9263 48.4413 47.7759C48.291 47.2818 48.1621 46.7877 48.1621 46.2936C48.0976 45.864 48.0117 45.3699 47.9473 44.8759V43.7373C47.9473 43.3936 48.0117 42.964 48.0117 42.5988V37.078L48.1621 26.8956V17.5511C48.1621 14.1569 48.2265 11.8154 48.3125 8.72206V8.37836C48.3769 7.39019 48.4628 6.46648 48.4628 5.54276C48.5273 4.5546 48.8065 3.63088 49.2362 2.79309C49.5799 2.0842 50.0095 1.43975 50.7184 1.09604C51.4273 0.666407 52.0718 0.451583 52.9095 0.451583C53.2533 0.451583 53.4681 0.451588 53.7688 0.516034V0.451583C57.1629 0.451583 57.3777 0.451585 61.2659 0.38714C65.0038 0.322695 68.269 0.322695 71.8779 0.38714H72.1572C73.2098 0.451585 74.3483 0.451585 75.4009 0.537512C76.4536 0.537512 77.5276 0.816773 78.5158 1.18196C79.2891 1.39678 79.998 1.82642 80.4921 2.38494C80.9218 3.0294 81.1366 3.65236 81.1366 4.36126C81.1366 4.91979 81.1366 5.4998 80.9862 5.90795C80.9218 6.46648 80.6425 6.89611 80.1269 7.39019C79.7832 7.60501 79.3536 7.88427 78.7736 8.09909C78.2151 8.24946 77.5706 8.31391 77.0121 8.37836C76.3032 8.52873 75.6587 8.52873 74.9713 8.52873H71.792L57.6785 8.57169V8.78651Z" fill="#FFD167"/>
<path d="M125.647 3.78079C125.711 4.33932 125.647 5.4134 125.582 5.82155C125.432 6.31563 125.153 6.74527 124.594 7.23935C124.315 7.51861 123.95 7.79788 123.391 7.94825C122.833 8.09862 122.253 8.16307 121.63 8.22752C121.007 8.29196 120.427 8.37789 119.782 8.37789H115.744V9.58086C115.679 18.0017 116.453 26.6159 115.894 35.0367C115.4 40.7724 113.853 47.131 107.409 49.6873C101.458 52.0288 92.2856 51.5347 87.6885 47.2169C85.2826 45.0258 82.8766 39.999 87.044 37.679C90.7174 35.5523 92.5649 41.0087 96.1738 41.8465C107.709 44.5961 105.798 29.6878 105.927 24.1025C105.991 19.1617 105.862 14.3498 105.862 9.38752V9.10827C105.927 8.9579 105.927 8.829 105.927 8.67863H105.712C104.573 8.52826 97.5057 8.52825 96.3027 8.46381H95.3145V8.39937C94.5412 8.33492 93.8323 8.1201 93.0589 7.90529C92.1997 7.62602 91.5123 7.19639 91.0182 6.55193C90.5241 6.05785 90.3093 4.79043 90.3093 4.08154C90.3093 3.58746 90.3093 3.02893 90.4597 2.53485C90.5241 2.04077 90.8893 1.54669 91.4478 1.11705C91.7271 0.902235 92.2212 0.622974 92.8012 0.472601C93.4456 0.322229 94.1545 0.193339 94.8419 0.128893C95.4864 0.0644482 96.1953 0.0644426 96.8827 0.0644426H103.671C104.229 0.0644426 105.024 0.0644453 105.927 0C109.6 0 113.209 -2.62084e-06 116.603 0.0644426H117.033C118.021 0.0644426 119.073 0.128893 120.083 0.128893C121.222 0.193339 122.21 0.408155 123.133 0.773344C123.907 0.988162 124.487 1.33187 124.981 1.97633C125.368 2.51337 125.647 3.0719 125.647 3.78079Z" fill="#FFD167"/>
<path d="M140.62 8.78651L140.47 19.8926H143.305C147.129 19.8281 149.814 19.8281 153.487 19.8926H153.831C154.97 19.8926 156.022 19.957 157.075 19.957C158.213 20.0215 159.266 20.3007 160.254 20.6015C161.113 20.8807 161.736 21.3104 162.231 21.8689C162.725 22.5133 162.939 23.2222 162.939 23.9097C162.939 24.4037 162.939 25.0482 162.789 25.5423C162.725 26.0364 162.445 26.5304 161.865 26.9601C161.586 27.3038 161.092 27.5186 160.512 27.669C160.018 27.8193 159.373 27.9482 158.665 28.0127C158.02 28.163 157.397 28.2275 156.688 28.2275H153.359L140.276 28.2919L140.126 42.1477L154.196 42.298H157.526C158.235 42.298 158.944 42.298 159.502 42.3625C160.211 42.5129 160.856 42.5773 161.414 42.7062C161.973 42.921 162.467 43.2003 162.832 43.4795C163.326 43.9736 163.605 44.4033 163.756 44.9618C163.82 45.3914 163.906 45.9499 163.82 46.5085C163.82 47.2818 163.605 47.9263 163.111 48.5492C162.617 49.1078 161.973 49.6018 161.135 49.8167C160.147 50.2463 159.094 50.4611 157.891 50.4611C156.839 50.5256 155.7 50.5256 154.647 50.6115H154.218C150.544 50.6759 146.721 50.6759 142.768 50.6115C139.095 50.547 138.73 50.547 135.765 50.547C134.777 50.6115 133.853 50.4826 133.08 49.9885C132.586 49.7092 132.156 49.2796 131.877 48.6352C131.726 48.4848 131.662 48.2914 131.662 48.2055C131.598 48.0551 131.447 47.9263 131.383 47.7759C131.232 47.2818 131.103 46.7877 131.103 46.2936C131.039 45.864 130.953 45.3699 130.889 44.8759V43.7373C130.889 43.3936 130.953 42.964 130.953 42.5988V37.078L131.103 26.8956V17.5511C131.103 14.1569 131.168 11.8154 131.254 8.72206V8.37836C131.318 7.39019 131.404 6.46648 131.404 5.54276C131.469 4.5546 131.748 3.63088 132.178 2.79309C132.521 2.0842 132.951 1.43975 133.66 1.09604C134.369 0.666407 135.013 0.451583 135.851 0.451583C136.195 0.451583 136.409 0.451588 136.71 0.516034V0.451583C140.104 0.451583 140.319 0.451585 144.207 0.38714C147.967 0.322695 151.21 0.322695 154.819 0.38714H155.099C156.151 0.451585 157.29 0.451585 158.342 0.537512C159.395 0.537512 160.469 0.816773 161.457 1.18196C162.231 1.39678 162.939 1.82642 163.434 2.38494C163.863 3.0294 164.078 3.65236 164.078 4.36126C164.078 4.91979 164.078 5.4998 163.928 5.90795C163.863 6.46648 163.584 6.89611 163.068 7.39019C162.725 7.60501 162.295 7.88427 161.715 8.09909C161.156 8.24946 160.512 8.31391 159.953 8.37836C159.245 8.52873 158.6 8.52873 157.913 8.52873H154.733L140.598 8.59317V8.78651H140.62Z" fill="#FFD167"/>
<path d="M59.8052 105.69L59.8696 99.9545L59.9341 89.2781C59.9985 86.2277 59.9985 82.898 59.9985 79.3965C59.9985 75.895 59.9985 73.5105 60.1489 70.1808V69.8801C60.2133 68.9349 60.2993 67.8393 60.2993 66.8297C60.3637 65.8845 60.6644 64.9393 61.0941 63.9941C61.4593 63.2637 61.8889 62.7696 62.6193 62.2541C63.3497 61.8889 64.1445 61.674 64.8749 61.674C65.6052 61.674 66.2497 61.7385 66.8297 61.8244C67.4097 61.9103 67.9897 62.1896 68.5053 62.7052C68.8705 63.0059 69.0853 63.3496 69.3001 63.8652C69.4505 64.4452 69.6653 64.9607 69.7297 65.5408C69.7942 66.1852 69.8801 66.7652 69.8801 67.3667C69.8801 68.0112 69.8157 68.5267 69.8157 69.1067V70.3312L69.386 108.01V108.741C69.386 109.041 69.3216 109.471 69.2357 110.051C69.0853 110.567 68.9349 111.061 68.7201 111.641C68.4194 112.156 68.1401 112.586 67.6245 112.951C67.1949 113.381 66.529 113.595 65.7341 113.746C64.4237 114.047 63.1134 113.896 62.0393 113.381C61.5237 113.015 61.0941 112.586 60.8148 111.92C60.6644 111.77 60.6 111.619 60.6 111.49C60.5355 111.34 60.3852 111.189 60.2993 111.061C60.1489 110.545 59.9985 110.051 59.9985 109.471C59.9341 109.041 59.8481 108.526 59.7837 108.01C59.7192 107.581 59.7192 107.215 59.7837 106.786V105.69H59.8052Z" fill="#FFA366"/>
<path d="M105.969 113.531C99.5894 114.906 91.5122 113.316 85.8625 108.59C79.1172 103.005 78.6661 92.1137 79.3321 84.1869C79.8476 77.0764 83.9721 67.9896 91.813 63.6503C97.7634 60.2347 107.559 61.1155 112.35 65.5407C115.4 68.2259 120.19 76.2171 113.724 77.8068C111.039 78.5372 109.514 76.5823 108.139 74.8208C103.413 69.2356 94.9922 71.04 92.0922 77.2912C89.0418 83.8217 88.0966 93.7033 92.1567 99.5034C95.3575 104.079 101.587 105.454 106.528 102.704C108.118 101.909 110.094 99.5893 112.328 98.9234C114.068 98.3434 116.538 98.9878 117.548 101.093C120.19 106.635 111.705 112.156 105.969 113.531Z" fill="#FFA366"/>
<path d="M162.08 110.245C161.865 110.975 161.5 111.555 160.855 111.985C160.275 112.414 159.846 112.779 159.266 112.994C158.686 113.295 158.106 113.359 157.375 113.295C156.795 113.295 156.366 113.08 155.85 112.779C155.334 112.479 154.754 112.135 154.325 111.77C153.745 111.254 153.229 110.889 152.864 110.459C152.434 109.944 151.983 109.45 151.64 109.085L150.759 108.139L136.817 93.5532L137.032 108.139V108.784C137.032 109.149 136.882 109.665 136.817 110.094C136.667 110.674 136.516 111.19 136.302 111.77C136.151 112.35 135.722 112.715 135.356 113.08C134.841 113.51 134.196 113.811 133.466 113.875C132.005 114.305 130.845 114.176 129.621 113.574C129.105 113.273 128.676 112.779 128.31 112.113C128.246 111.963 128.16 111.813 128.096 111.748C128.096 111.598 128.031 111.448 127.945 111.233C127.644 110.717 127.516 110.223 127.516 109.772C127.451 109.192 127.365 108.762 127.301 108.182C127.236 107.817 127.236 107.387 127.236 107.022C127.301 106.593 127.301 106.227 127.301 105.798L127.236 100.062L127.172 89.3858C127.172 86.2709 127.107 82.9198 126.957 79.3753C126.893 75.8952 126.893 73.4893 126.957 70.1596V69.8589C127.107 68.8492 127.107 67.7537 127.172 66.8085C127.172 65.7988 127.387 64.8536 127.816 63.9084C128.117 63.178 128.611 62.598 129.342 62.1684C130.072 61.7388 130.802 61.5884 131.662 61.438C132.306 61.438 132.972 61.5884 133.552 61.6528C134.132 61.7173 134.712 61.9536 135.292 62.4477C135.593 62.7484 135.872 63.0921 136.022 63.6721C136.323 64.1018 136.452 64.6818 136.538 65.3477C136.602 65.9277 136.688 66.5077 136.688 67.1522V70.1381L136.753 78.9886C138.278 77.6138 139.803 76.153 141.264 74.5634C143.885 71.8782 146.419 69.2574 149.04 66.787L149.255 66.5722C150.05 65.8418 150.845 65.0469 151.661 64.4025C152.305 63.6721 153.251 63.0277 154.346 62.6625C155.077 62.2328 155.871 62.0825 156.731 62.1469C157.611 62.2114 158.32 62.5765 158.986 63.0277C159.502 63.4573 159.996 63.8225 160.297 64.2521C160.726 64.6173 160.941 65.1973 161.027 65.7773C161.027 66.2929 160.963 66.7225 160.726 67.2381C160.426 67.6677 160.146 68.2477 159.781 68.6988C159.352 69.2789 158.986 69.7944 158.471 70.224C158.106 70.7396 157.59 71.1048 157.246 71.5344L156.301 72.4796L142.725 86.3354C145.711 89.3213 149.255 92.9517 150.931 94.6918C153.551 97.377 155.936 100.062 158.256 102.747L158.471 102.962C159.201 103.757 159.932 104.552 160.512 105.368C161.242 106.163 161.736 107.044 162.037 108.053C162.359 108.805 162.423 109.45 162.08 110.245Z" fill="#FFA366"/>
<path d="M35.7886 90.5886C35.4234 91.8776 34.8219 92.9946 34.0916 93.9398C31.8789 96.8398 28.27 98.3006 24.6181 98.3006H21.6966C20.8158 98.3006 20.1069 99.0095 20.1069 99.8903V111.383C20.1069 112.479 20.9877 113.359 22.0833 113.359H23.7803C32.5664 113.359 41.0302 109.621 46.2932 102.704C48.871 99.3102 50.8258 95.0783 51.1266 89.9872C46.551 89.1494 41.202 89.2783 35.7886 90.5886Z" fill="#6DAD9C"/>
<path d="M2.25545 113.359H13.1467C14.2423 113.359 15.123 112.479 15.123 111.383V97.7636C8.95775 98.2791 3.56583 96.5391 0.0643086 94.928V111.147C0.0428268 112.371 1.03099 113.359 2.25545 113.359Z" fill="#6DAD9C"/>
</svg>
