<svg width="158" height="25" viewBox="0 0 158 25" fill="none" xmlns="http://www.w3.org/2000/svg">
<path d="M19.0352 2.53002C19.0652 2.79002 19.0352 3.29002 19.0052 3.48002C18.9352 3.71002 18.8052 3.91002 18.5452 4.14002C18.4152 4.27002 18.2452 4.40002 17.9852 4.47002C17.7252 4.54002 17.4552 4.57002 17.1652 4.60002C16.8652 4.63002 16.6052 4.67002 16.3052 4.67002H14.4252V5.23002C14.3952 9.15002 14.7552 13.16 14.4952 17.08C14.2652 19.75 13.5452 22.71 10.5452 23.9C7.77518 24.99 3.49518 24.76 1.35518 22.75C0.235177 21.73 -0.884822 19.39 1.05518 18.31C2.76518 17.32 3.62518 19.86 5.30518 20.25C10.6752 21.53 9.78518 14.59 9.84518 11.99C9.87518 9.69002 9.81518 7.45002 9.81518 5.14002V5.01002C9.84518 4.94002 9.84518 4.88002 9.84518 4.81002H9.74518C9.21518 4.74002 5.92518 4.74002 5.36518 4.71002H4.90518V4.68002C4.54518 4.65002 4.21518 4.55002 3.85518 4.45002C3.45518 4.32002 3.13518 4.12002 2.90518 3.82002C2.67518 3.59002 2.57518 3.00002 2.57518 2.67002C2.57518 2.44002 2.57518 2.18002 2.64518 1.95002C2.67518 1.72002 2.84518 1.49002 3.10518 1.29002C3.23518 1.19002 3.46518 1.06002 3.73518 0.990021C4.03518 0.920021 4.36518 0.860017 4.68518 0.830017C4.98518 0.800017 5.31518 0.800018 5.63518 0.800018H8.79518C9.05518 0.800018 9.42518 0.80002 9.84518 0.77002C11.5552 0.77002 13.2352 0.770018 14.8152 0.800018H15.0152C15.4752 0.800018 15.9652 0.830017 16.4352 0.830017C16.9652 0.860017 17.4252 0.96002 17.8552 1.13002C18.2152 1.23002 18.4852 1.39002 18.7152 1.69002C18.9052 1.94002 19.0352 2.20002 19.0352 2.53002Z" fill="#FFD167"/>
<path d="M26.0152 4.86021L25.9452 10.0302H27.2652C29.0452 10.0002 30.2952 10.0002 32.0052 10.0302H32.1652C32.6952 10.0302 33.1852 10.0602 33.6752 10.0602C34.2052 10.0902 34.6952 10.2202 35.1552 10.3602C35.5552 10.4902 35.8452 10.6902 36.0752 10.9502C36.3052 11.2502 36.4052 11.5802 36.4052 11.9002C36.4052 12.1302 36.4052 12.4302 36.3352 12.6602C36.3052 12.8902 36.1752 13.1202 35.9052 13.3202C35.7752 13.4802 35.5452 13.5802 35.2752 13.6502C35.0452 13.7202 34.7452 13.7802 34.4152 13.8102C34.1152 13.8802 33.8252 13.9102 33.4952 13.9102H31.9452L25.8552 13.9402L25.7852 20.3902L32.3352 20.4602H33.8852C34.2152 20.4602 34.5452 20.4602 34.8052 20.4902C35.1352 20.5602 35.4352 20.5902 35.6952 20.6502C35.9552 20.7502 36.1852 20.8802 36.3552 21.0102C36.5852 21.2402 36.7152 21.4402 36.7852 21.7002C36.8152 21.9002 36.8552 22.1602 36.8152 22.4202C36.8152 22.7802 36.7152 23.0802 36.4852 23.3802C36.2552 23.6402 35.9552 23.8702 35.5652 23.9702C35.1052 24.1702 34.6152 24.2702 34.0552 24.2702C33.5652 24.3002 33.0352 24.3002 32.5452 24.3402H32.3452C30.6352 24.3702 28.8552 24.3702 27.0152 24.3402C25.3052 24.3102 25.1352 24.3102 23.7552 24.3102C23.2952 24.3402 22.8652 24.2802 22.5052 24.0502C22.2752 23.9202 22.0752 23.7202 21.9452 23.4202C21.8752 23.3502 21.8452 23.2602 21.8452 23.2202C21.8152 23.1502 21.7452 23.0902 21.7152 23.0202C21.6452 22.7902 21.5852 22.5602 21.5852 22.3302C21.5552 22.1302 21.5152 21.9002 21.4852 21.6702V21.1402C21.4852 20.9802 21.5152 20.7802 21.5152 20.6102V18.0402L21.5852 13.3002V8.92021C21.5852 7.34021 21.6152 6.25021 21.6552 4.81021V4.65021C21.6852 4.19021 21.7252 3.76021 21.7252 3.33021C21.7552 2.87021 21.8852 2.44021 22.0852 2.05021C22.2452 1.72021 22.4452 1.42021 22.7752 1.26021C23.1052 1.06021 23.4052 0.960214 23.7952 0.960214C23.9552 0.960214 24.0552 0.960212 24.1952 0.990212V0.960214C25.7752 0.960214 25.8752 0.960215 27.6852 0.930215C29.4252 0.900215 30.9452 0.900215 32.6252 0.930215H32.7552C33.2452 0.960215 33.7752 0.960215 34.2652 1.00021C34.7552 1.00021 35.2552 1.13021 35.7152 1.30021C36.0752 1.40021 36.4052 1.60021 36.6352 1.86021C36.8352 2.16021 36.9352 2.45021 36.9352 2.78021C36.9352 3.04021 36.9352 3.31021 36.8652 3.50021C36.8352 3.76021 36.7052 3.96021 36.4652 4.19021C36.3052 4.29021 36.1052 4.42021 35.8352 4.52021C35.5752 4.59021 35.2752 4.62021 35.0152 4.65021C34.6852 4.72021 34.3852 4.72021 34.0652 4.72021H32.5952L26.0152 4.75021V4.86021Z" fill="#FFD167"/>
<path d="M57.6452 2.53002C57.6752 2.79002 57.6452 3.29002 57.6152 3.48002C57.5452 3.71002 57.4152 3.91002 57.1552 4.14002C57.0252 4.27002 56.8552 4.40002 56.5952 4.47002C56.3352 4.54002 56.0652 4.57002 55.7752 4.60002C55.4752 4.63002 55.2152 4.67002 54.9152 4.67002H53.0352V5.23002C53.0052 9.15002 53.3652 13.16 53.1052 17.08C52.8752 19.75 52.1552 22.71 49.1552 23.9C46.3852 24.99 42.1152 24.76 39.9752 22.75C38.8552 21.73 37.7352 19.39 39.6752 18.31C41.3852 17.32 42.2452 19.86 43.9252 20.25C49.2952 21.53 48.4052 14.59 48.4652 11.99C48.4952 9.69002 48.4352 7.45002 48.4352 5.14002V5.01002C48.4652 4.94002 48.4652 4.88002 48.4652 4.81002H48.3652C47.8352 4.74002 44.5452 4.74002 43.9852 4.71002H43.5252V4.68002C43.1652 4.65002 42.8352 4.55002 42.4752 4.45002C42.0752 4.32002 41.7552 4.12002 41.5252 3.82002C41.2952 3.59002 41.1952 3.00002 41.1952 2.67002C41.1952 2.44002 41.1952 2.18002 41.2652 1.95002C41.2952 1.72002 41.4652 1.49002 41.7252 1.29002C41.8552 1.19002 42.0852 1.06002 42.3552 0.990021C42.6552 0.920021 42.9852 0.860017 43.3052 0.830017C43.6052 0.800017 43.9352 0.800018 44.2552 0.800018H47.4152C47.6752 0.800018 48.0452 0.80002 48.4652 0.77002C50.1752 0.77002 51.8552 0.770018 53.4352 0.800018H53.6352C54.0952 0.800018 54.5852 0.830017 55.0552 0.830017C55.5852 0.860017 56.0452 0.96002 56.4752 1.13002C56.8352 1.23002 57.1052 1.39002 57.3352 1.69002C57.5152 1.94002 57.6452 2.20002 57.6452 2.53002Z" fill="#FFD167"/>
<path d="M64.6252 4.86021L64.5552 10.0302H65.8752C67.6552 10.0002 68.9052 10.0002 70.6152 10.0302H70.7752C71.3052 10.0302 71.7952 10.0602 72.2852 10.0602C72.8152 10.0902 73.3052 10.2202 73.7652 10.3602C74.1652 10.4902 74.4552 10.6902 74.6852 10.9502C74.9152 11.2502 75.0152 11.5802 75.0152 11.9002C75.0152 12.1302 75.0152 12.4302 74.9452 12.6602C74.9152 12.8902 74.7852 13.1202 74.5152 13.3202C74.3852 13.4802 74.1552 13.5802 73.8852 13.6502C73.6552 13.7202 73.3552 13.7802 73.0252 13.8102C72.7252 13.8802 72.4352 13.9102 72.1052 13.9102H70.5552L64.4652 13.9402L64.3952 20.3902L70.9452 20.4602H72.4952C72.8252 20.4602 73.1552 20.4602 73.4152 20.4902C73.7452 20.5602 74.0452 20.5902 74.3052 20.6502C74.5652 20.7502 74.7952 20.8802 74.9652 21.0102C75.1952 21.2402 75.3252 21.4402 75.3952 21.7002C75.4252 21.9002 75.4652 22.1602 75.4252 22.4202C75.4252 22.7802 75.3252 23.0802 75.0952 23.3802C74.8652 23.6402 74.5652 23.8702 74.1752 23.9702C73.7152 24.1702 73.2252 24.2702 72.6652 24.2702C72.1752 24.3002 71.6452 24.3002 71.1552 24.3402H70.9552C69.2452 24.3702 67.4652 24.3702 65.6252 24.3402C63.9152 24.3102 63.7452 24.3102 62.3652 24.3102C61.9052 24.3402 61.4752 24.2802 61.1152 24.0502C60.8852 23.9202 60.6852 23.7202 60.5552 23.4202C60.4852 23.3502 60.4552 23.2602 60.4552 23.2202C60.4252 23.1502 60.3552 23.0902 60.3252 23.0202C60.2552 22.7902 60.1952 22.5602 60.1952 22.3302C60.1652 22.1302 60.1252 21.9002 60.0952 21.6702V21.1402C60.0952 20.9802 60.1252 20.7802 60.1252 20.6102V18.0402L60.1952 13.3002V8.92021C60.1952 7.34021 60.2252 6.25021 60.2652 4.81021V4.65021C60.2952 4.19021 60.3352 3.76021 60.3352 3.33021C60.3652 2.87021 60.4952 2.44021 60.6952 2.05021C60.8552 1.72021 61.0552 1.42021 61.3852 1.26021C61.7152 1.06021 62.0152 0.960214 62.4052 0.960214C62.5652 0.960214 62.6652 0.960212 62.8052 0.990212V0.960214C64.3852 0.960214 64.4852 0.960215 66.2952 0.930215C68.0452 0.900215 69.5552 0.900215 71.2352 0.930215H71.3652C71.8552 0.960215 72.3852 0.960215 72.8752 1.00021C73.3652 1.00021 73.8652 1.13021 74.3252 1.30021C74.6852 1.40021 75.0152 1.60021 75.2452 1.86021C75.4452 2.16021 75.5452 2.45021 75.5452 2.78021C75.5452 3.04021 75.5452 3.31021 75.4752 3.50021C75.4452 3.76021 75.3152 3.96021 75.0752 4.19021C74.9152 4.29021 74.7152 4.42021 74.4452 4.52021C74.1852 4.59021 73.8852 4.62021 73.6252 4.65021C73.2952 4.72021 72.9952 4.72021 72.6752 4.72021H71.1952L64.6152 4.75021V4.86021H64.6252Z" fill="#FFD167"/>
<path d="M105.705 10.7699C104.745 5.99992 101.115 2.24991 96.3752 1.10991C93.1252 0.329914 89.1252 0.569917 85.6252 4.26992C83.2952 6.73992 82.1152 10.0699 82.1152 13.4699V23.5199C82.1152 24.0899 82.5752 24.5499 83.1452 24.5499H88.2152C88.7252 24.5499 89.1352 24.1399 89.1352 23.6299V17.1199V13.0799C89.1352 11.6099 89.6452 10.1499 90.6752 9.10991C92.0752 7.69991 93.6652 7.59992 94.9652 7.90992C96.8052 8.33992 98.3052 9.78992 98.7652 11.6299C99.1852 13.2899 98.6952 14.5699 97.9752 15.5199C96.9452 16.8699 95.2652 17.5499 93.5652 17.5499H92.2052C91.7952 17.5499 91.4652 17.8799 91.4652 18.2899V23.6399C91.4652 24.1499 91.8752 24.5599 92.3852 24.5599H93.1752C97.2652 24.5599 101.205 22.8199 103.655 19.5999C105.305 17.4099 106.445 14.4799 105.705 10.7699Z" fill="#FFA366"/>
<path d="M97.7252 9.61946C98.2052 10.1995 98.5752 10.8695 98.7652 11.6195C99.1852 13.2795 98.6952 14.5595 97.9752 15.5095C96.9452 16.8595 95.2652 17.5395 93.5652 17.5395H92.2052C91.7952 17.5395 91.4652 17.8695 91.4652 18.2795V23.6295C91.4652 24.1395 91.8752 24.5495 92.3852 24.5495H93.1752C97.2652 24.5495 101.205 22.8095 103.655 19.5895C105.315 17.4095 106.445 14.4895 105.705 10.7695C105.555 10.0495 105.345 9.34947 105.085 8.67947C102.625 8.59947 99.9552 8.93946 97.7252 9.61946Z" fill="#FFD167"/>
<path d="M83.1452 24.5397H88.2152C88.7252 24.5397 89.1352 24.1297 89.1352 23.6197V17.1097V13.0697C89.1352 12.4597 89.2452 11.8597 89.4152 11.2797C86.2152 10.2497 83.4252 7.72969 83.3552 7.67969C82.5352 9.47969 82.1152 11.4597 82.1152 13.4697V23.5197C82.1152 24.0797 82.5752 24.5397 83.1452 24.5397Z" fill="#FFD167"/>
<path d="M109.955 20.9798L109.985 18.3097L110.015 13.3397C110.045 11.9197 110.045 10.3697 110.045 8.73975C110.045 7.11975 110.045 5.99975 110.115 4.44975V4.30975C110.145 3.86975 110.185 3.35975 110.185 2.88975C110.215 2.44975 110.355 2.00975 110.555 1.56975C110.725 1.22975 110.925 0.999743 111.265 0.759743C111.605 0.589743 111.975 0.489746 112.315 0.489746C112.655 0.489746 112.955 0.519746 113.225 0.559746C113.495 0.589746 113.765 0.729742 114.005 0.969742C114.175 1.10974 114.275 1.26974 114.375 1.50974C114.445 1.77974 114.545 2.01974 114.575 2.28974C114.605 2.58974 114.645 2.85975 114.645 3.13975C114.645 3.43975 114.615 3.67975 114.615 3.94975V4.51974L114.415 22.0597V22.3997C114.415 22.5397 114.385 22.7397 114.345 23.0098C114.275 23.2498 114.205 23.4797 114.105 23.7497C113.965 23.9897 113.835 24.1897 113.595 24.3597C113.395 24.5597 113.085 24.6598 112.715 24.7298C112.105 24.8698 111.495 24.7997 110.995 24.5597C110.755 24.3897 110.555 24.1897 110.425 23.8797C110.355 23.8097 110.325 23.7397 110.325 23.6797C110.295 23.6097 110.225 23.5398 110.185 23.4798C110.115 23.2398 110.045 23.0097 110.045 22.7397C110.015 22.5397 109.975 22.2997 109.945 22.0597C109.915 21.8597 109.915 21.6897 109.945 21.4897V20.9798H109.955Z" fill="#FFA366"/>
<path d="M131.435 24.6297C128.465 25.2697 124.705 24.5297 122.075 22.3297C118.935 19.7297 118.725 14.6597 119.035 10.9697C119.275 7.65973 121.195 3.42973 124.845 1.40973C127.615 -0.180269 132.175 0.229729 134.405 2.28973C135.825 3.53973 138.055 7.25974 135.045 7.99974C133.795 8.33974 133.085 7.42973 132.445 6.60973C130.245 4.00973 126.325 4.84973 124.975 7.75973C123.555 10.7997 123.115 15.3997 125.005 18.0997C126.495 20.2297 129.395 20.8697 131.695 19.5897C132.435 19.2197 133.355 18.1397 134.395 17.8297C135.205 17.5597 136.355 17.8597 136.825 18.8397C138.065 21.4197 134.105 23.9897 131.435 24.6297Z" fill="#FFA366"/>
<path d="M157.555 23.0999C157.455 23.4399 157.285 23.7099 156.985 23.9099C156.715 24.1099 156.515 24.2799 156.245 24.3799C155.975 24.5199 155.705 24.5499 155.365 24.5199C155.095 24.5199 154.895 24.4199 154.655 24.2799C154.415 24.1399 154.145 23.9799 153.945 23.8099C153.675 23.5699 153.435 23.3999 153.265 23.1999C153.065 22.9599 152.855 22.7299 152.695 22.5599L152.285 22.1199L145.795 15.3299L145.895 22.1199V22.4199C145.895 22.5899 145.825 22.8299 145.795 23.0299C145.725 23.2999 145.655 23.5399 145.555 23.8099C145.485 24.0799 145.285 24.2499 145.115 24.4199C144.875 24.6199 144.575 24.7599 144.235 24.7899C143.555 24.9899 143.015 24.9299 142.445 24.6499C142.205 24.5099 142.005 24.2799 141.835 23.9699C141.805 23.8999 141.765 23.8299 141.735 23.7999C141.735 23.7299 141.705 23.6599 141.665 23.5599C141.525 23.3199 141.465 23.0899 141.465 22.8799C141.435 22.6099 141.395 22.4099 141.365 22.1399C141.335 21.9699 141.335 21.7699 141.335 21.5999C141.365 21.3999 141.365 21.2299 141.365 21.0299L141.335 18.3599L141.305 13.3899C141.305 11.9399 141.275 10.3799 141.205 8.72988C141.175 7.10988 141.175 5.98988 141.205 4.43988V4.29988C141.275 3.82988 141.275 3.31988 141.305 2.87988C141.305 2.40988 141.405 1.96988 141.605 1.52988C141.745 1.18988 141.975 0.919879 142.315 0.719879C142.655 0.519879 142.995 0.449883 143.395 0.379883C143.695 0.379883 144.005 0.449881 144.275 0.479881C144.545 0.509881 144.815 0.619884 145.085 0.849884C145.225 0.989884 145.355 1.14988 145.425 1.41988C145.565 1.61988 145.625 1.88988 145.665 2.19988C145.695 2.46988 145.735 2.73988 145.735 3.03988V4.42989L145.765 8.54988C146.475 7.90988 147.185 7.22988 147.865 6.48988C149.085 5.23988 150.265 4.01988 151.485 2.86988L151.585 2.76988C151.955 2.42988 152.325 2.05988 152.705 1.75988C153.005 1.41988 153.445 1.11988 153.955 0.949883C154.295 0.749883 154.665 0.679885 155.075 0.709885C155.485 0.739885 155.815 0.909881 156.125 1.11988C156.365 1.31988 156.595 1.48988 156.735 1.68988C156.935 1.85988 157.035 2.12988 157.075 2.39988C157.075 2.63988 157.045 2.83988 156.935 3.07988C156.795 3.27988 156.665 3.54988 156.495 3.75988C156.295 4.02988 156.125 4.26988 155.885 4.46988C155.715 4.70988 155.475 4.87988 155.315 5.07988L154.875 5.51988L148.555 11.9699C149.945 13.3599 151.595 15.0499 152.375 15.8599C153.595 17.1099 154.705 18.3599 155.785 19.6099L155.885 19.7099C156.225 20.0799 156.565 20.4499 156.835 20.8299C157.175 21.1999 157.405 21.6099 157.545 22.0799C157.695 22.4199 157.725 22.7299 157.555 23.0999Z" fill="#FFA366"/>
<path d="M98.7752 13.9497C98.6052 14.5497 98.3252 15.0697 97.9852 15.5097C96.9552 16.8597 95.2752 17.5397 93.5752 17.5397H92.2152C91.8052 17.5397 91.4752 17.8697 91.4752 18.2797V23.6297C91.4752 24.1397 91.8852 24.5497 92.3952 24.5497H93.1852C97.2752 24.5497 101.215 22.8097 103.665 19.5897C104.865 18.0097 105.775 16.0397 105.915 13.6697C103.785 13.2797 101.295 13.3397 98.7752 13.9497Z" fill="#6DAD9C"/>
<path d="M83.1652 24.54H88.2352C88.7452 24.54 89.1552 24.13 89.1552 23.62V17.28C86.2852 17.52 83.7752 16.71 82.1452 15.96V23.51C82.1352 24.08 82.5952 24.54 83.1652 24.54Z" fill="#6DAD9C"/>
</svg>
