<svg width="77" height="54" viewBox="0 0 77 54" fill="none" xmlns="http://www.w3.org/2000/svg">
<path d="M24.0353 38.9896C23.0753 34.2196 19.4453 30.4696 14.7053 29.3296C11.4553 28.5496 7.45531 28.7896 3.95531 32.4896C1.62531 34.9596 0.445312 38.2896 0.445312 41.6896V51.7396C0.445312 52.3096 0.905311 52.7696 1.47531 52.7696H6.54531C7.05531 52.7696 7.46531 52.3596 7.46531 51.8496V45.3396V41.2996C7.46531 39.8296 7.97531 38.3696 9.00531 37.3296C10.4053 35.9196 11.9953 35.8196 13.2953 36.1296C15.1353 36.5596 16.6353 38.0096 17.0953 39.8496C17.5153 41.5096 17.0253 42.7896 16.3053 43.7396C15.2753 45.0896 13.5953 45.7696 11.8953 45.7696H10.5353C10.1253 45.7696 9.79531 46.0996 9.79531 46.5096V51.8596C9.79531 52.3696 10.2053 52.7796 10.7153 52.7796H11.5053C15.5953 52.7796 19.5353 51.0396 21.9853 47.8196C23.6353 45.6296 24.7753 42.7096 24.0353 38.9896Z" fill="#FFA366"/>
<path d="M16.0549 37.8402C16.5349 38.4202 16.9049 39.0902 17.0949 39.8402C17.5149 41.5002 17.0249 42.7802 16.3049 43.7302C15.2749 45.0802 13.5949 45.7602 11.8949 45.7602H10.5349C10.1249 45.7602 9.79492 46.0902 9.79492 46.5002V51.8502C9.79492 52.3602 10.2049 52.7702 10.7149 52.7702H11.5049C15.5949 52.7702 19.5349 51.0302 21.9849 47.8102C23.6449 45.6302 24.7749 42.7102 24.0349 38.9902C23.8849 38.2702 23.6749 37.5702 23.4149 36.9002C20.9549 36.8202 18.2849 37.1602 16.0549 37.8402Z" fill="#FFD167"/>
<path d="M1.48508 52.7702H6.55508C7.06508 52.7702 7.47508 52.3602 7.47508 51.8502V45.3402V41.3002C7.47508 40.6902 7.58508 40.0902 7.75508 39.5102C4.55508 38.4802 1.76508 35.9602 1.69508 35.9102C0.87508 37.7102 0.455078 39.6902 0.455078 41.7002V51.7502C0.455078 52.3102 0.915077 52.7702 1.48508 52.7702Z" fill="#FFD167"/>
<path d="M20.3252 1.76C20.3552 2.02 20.3252 2.52 20.2952 2.71C20.2252 2.94 20.0952 3.14 19.8352 3.37C19.7052 3.5 19.5352 3.63 19.2752 3.7C19.0152 3.77 18.7452 3.8 18.4552 3.83C18.1652 3.86 17.8952 3.9 17.5952 3.9H15.7152V4.46C15.6852 8.38 16.0452 12.39 15.7852 16.31C15.5552 18.98 14.8352 21.94 11.8352 23.13C9.06522 24.22 4.78522 23.99 2.64522 21.98C1.52522 20.96 0.405217 18.62 2.34522 17.54C4.05522 16.55 4.91522 19.09 6.59522 19.48C11.9652 20.76 11.0752 13.82 11.1352 11.22C11.1652 8.92 11.1052 6.68 11.1052 4.37V4.24C11.1352 4.17 11.1352 4.11 11.1352 4.04H11.0352C10.5052 3.97 7.21522 3.97 6.65522 3.94H6.19522V3.91C5.83522 3.88 5.50522 3.78 5.14522 3.68C4.74522 3.55 4.42522 3.35 4.19522 3.05C3.96522 2.82 3.86522 2.23 3.86522 1.9C3.86522 1.67 3.86522 1.41 3.93522 1.18C3.96522 0.95 4.13522 0.72 4.39522 0.52C4.52522 0.42 4.75522 0.290001 5.02522 0.220001C5.32522 0.150001 5.65522 0.0900014 5.97522 0.0600014C6.27522 0.0300014 6.60522 0.0299988 6.92522 0.0299988H10.0852C10.3452 0.0299988 10.7152 0.03 11.1352 0C12.8452 0 14.5252 -1.22003e-06 16.1052 0.0299988H16.3052C16.7652 0.0299988 17.2552 0.0600014 17.7252 0.0600014C18.2552 0.0900014 18.7152 0.190001 19.1452 0.360001C19.5052 0.460001 19.7752 0.620002 20.0052 0.920002C20.1952 1.17 20.3252 1.43 20.3252 1.76Z" fill="#FFD167"/>
<path d="M27.2956 4.08973L27.2256 9.25973H28.5456C30.3256 9.22973 31.5756 9.22973 33.2856 9.25973H33.4456C33.9756 9.25973 34.4656 9.28973 34.9556 9.28973C35.4856 9.31973 35.9756 9.44973 36.4356 9.58973C36.8356 9.71973 37.1256 9.91973 37.3556 10.1797C37.5856 10.4797 37.6856 10.8097 37.6856 11.1297C37.6856 11.3597 37.6856 11.6597 37.6156 11.8897C37.5856 12.1197 37.4556 12.3497 37.1856 12.5497C37.0556 12.7097 36.8256 12.8097 36.5556 12.8797C36.3256 12.9497 36.0256 13.0097 35.6956 13.0397C35.3956 13.1097 35.1056 13.1397 34.7756 13.1397H33.2256L27.1356 13.1697L27.0656 19.6197L33.6156 19.6897H35.1656C35.4956 19.6897 35.8256 19.6897 36.0856 19.7197C36.4156 19.7897 36.7156 19.8197 36.9756 19.8797C37.2356 19.9797 37.4656 20.1097 37.6356 20.2397C37.8656 20.4697 37.9956 20.6697 38.0656 20.9297C38.0956 21.1297 38.1356 21.3897 38.0956 21.6497C38.0956 22.0097 37.9956 22.3097 37.7656 22.5997C37.5356 22.8597 37.2356 23.0897 36.8456 23.1897C36.3856 23.3897 35.8956 23.4897 35.3356 23.4897C34.8456 23.5197 34.3156 23.5197 33.8256 23.5597H33.6256C31.9156 23.5897 30.1356 23.5897 28.2956 23.5597C26.5856 23.5297 26.4156 23.5297 25.0356 23.5297C24.5756 23.5597 24.1456 23.4997 23.7856 23.2697C23.5556 23.1397 23.3556 22.9397 23.2256 22.6397C23.1556 22.5697 23.1256 22.4797 23.1256 22.4397C23.0956 22.3697 23.0256 22.3097 22.9956 22.2397C22.9256 22.0097 22.8656 21.7797 22.8656 21.5497C22.8356 21.3497 22.7956 21.1197 22.7656 20.8897V20.3597C22.7656 20.1997 22.7956 19.9997 22.7956 19.8297V17.2597L22.8656 12.5197V8.16973C22.8656 6.58973 22.8956 5.49973 22.9356 4.05973V3.89973C22.9656 3.43973 23.0056 3.00973 23.0056 2.57973C23.0356 2.11973 23.1656 1.68973 23.3656 1.29973C23.5256 0.969725 23.7256 0.669728 24.0556 0.509728C24.3856 0.309728 24.6856 0.209725 25.0756 0.209725C25.2356 0.209725 25.3356 0.209728 25.4756 0.239728V0.209725C27.0556 0.209725 27.1556 0.209727 28.9656 0.179727C30.7056 0.149727 32.2256 0.149727 33.9056 0.179727H34.0356C34.5256 0.209727 35.0556 0.209726 35.5456 0.249726C36.0356 0.249726 36.5356 0.379726 36.9956 0.549726C37.3556 0.649725 37.6856 0.849727 37.9156 1.10973C38.1156 1.40973 38.2156 1.69973 38.2156 2.02973C38.2156 2.28973 38.2156 2.55973 38.1456 2.74973C38.1156 3.00973 37.9856 3.20972 37.7456 3.43972C37.5856 3.53972 37.3856 3.66973 37.1156 3.76973C36.8556 3.83973 36.5556 3.86973 36.2956 3.89973C35.9656 3.96973 35.6656 3.96973 35.3456 3.96973H33.8656L27.2956 3.98973V4.08973Z" fill="#FFD167"/>
<path d="M58.9353 1.76C58.9653 2.02 58.9353 2.52 58.9053 2.71C58.8353 2.94 58.7053 3.14 58.4453 3.37C58.3153 3.5 58.1453 3.63 57.8853 3.7C57.6253 3.77 57.3553 3.8 57.0653 3.83C56.7753 3.86 56.5053 3.9 56.2053 3.9H54.3253V4.46C54.2953 8.38 54.6553 12.39 54.3953 16.31C54.1653 18.98 53.4453 21.94 50.4453 23.13C47.6753 24.22 43.4053 23.99 41.2653 21.98C40.1453 20.96 39.0253 18.62 40.9653 17.54C42.6753 16.55 43.5353 19.09 45.2153 19.48C50.5853 20.76 49.6953 13.82 49.7553 11.22C49.7853 8.92 49.7253 6.68 49.7253 4.37V4.24C49.7553 4.17 49.7553 4.11 49.7553 4.04H49.6553C49.1253 3.97 45.8353 3.97 45.2753 3.94H44.8153V3.91C44.4553 3.88 44.1253 3.78 43.7653 3.68C43.3653 3.55 43.0453 3.35 42.8153 3.05C42.5853 2.82 42.4853 2.23 42.4853 1.9C42.4853 1.67 42.4853 1.41 42.5553 1.18C42.5853 0.95 42.7553 0.72 43.0153 0.52C43.1453 0.42 43.3753 0.290001 43.6453 0.220001C43.9453 0.150001 44.2753 0.0900014 44.5953 0.0600014C44.8953 0.0300014 45.2253 0.0299988 45.5453 0.0299988H48.7053C48.9653 0.0299988 49.3353 0.03 49.7553 0C51.4653 0 53.1453 -1.22003e-06 54.7253 0.0299988H54.9253C55.3853 0.0299988 55.8753 0.0600014 56.3453 0.0600014C56.8753 0.0900014 57.3353 0.190001 57.7653 0.360001C58.1253 0.460001 58.3953 0.620002 58.6253 0.920002C58.8053 1.17 58.9353 1.43 58.9353 1.76Z" fill="#FFD167"/>
<path d="M65.905 4.08973L65.835 9.25973H67.155C68.935 9.22973 70.185 9.22973 71.895 9.25973H72.055C72.585 9.25973 73.075 9.28973 73.565 9.28973C74.095 9.31973 74.585 9.44973 75.045 9.58973C75.445 9.71973 75.735 9.91973 75.965 10.1797C76.195 10.4797 76.295 10.8097 76.295 11.1297C76.295 11.3597 76.295 11.6597 76.225 11.8897C76.195 12.1197 76.065 12.3497 75.795 12.5497C75.665 12.7097 75.435 12.8097 75.165 12.8797C74.935 12.9497 74.635 13.0097 74.305 13.0397C74.005 13.1097 73.715 13.1397 73.385 13.1397H71.835L65.745 13.1697L65.675 19.6197L72.225 19.6897H73.775C74.105 19.6897 74.435 19.6897 74.695 19.7197C75.025 19.7897 75.325 19.8197 75.585 19.8797C75.845 19.9797 76.075 20.1097 76.245 20.2397C76.475 20.4697 76.605 20.6697 76.675 20.9297C76.705 21.1297 76.745 21.3897 76.705 21.6497C76.705 22.0097 76.605 22.3097 76.375 22.5997C76.145 22.8597 75.845 23.0897 75.455 23.1897C74.995 23.3897 74.505 23.4897 73.945 23.4897C73.455 23.5197 72.925 23.5197 72.435 23.5597H72.235C70.525 23.5897 68.745 23.5897 66.905 23.5597C65.195 23.5297 65.025 23.5297 63.645 23.5297C63.185 23.5597 62.755 23.4997 62.395 23.2697C62.165 23.1397 61.965 22.9397 61.835 22.6397C61.765 22.5697 61.735 22.4797 61.735 22.4397C61.705 22.3697 61.635 22.3097 61.605 22.2397C61.535 22.0097 61.475 21.7797 61.475 21.5497C61.445 21.3497 61.405 21.1197 61.375 20.8897V20.3597C61.375 20.1997 61.405 19.9997 61.405 19.8297V17.2597L61.475 12.5197V8.16973C61.475 6.58973 61.505 5.49973 61.545 4.05973V3.89973C61.575 3.43973 61.615 3.00973 61.615 2.57973C61.645 2.11973 61.775 1.68973 61.975 1.29973C62.135 0.969725 62.335 0.669728 62.665 0.509728C62.995 0.309728 63.295 0.209725 63.685 0.209725C63.845 0.209725 63.945 0.209728 64.085 0.239728V0.209725C65.665 0.209725 65.765 0.209727 67.575 0.179727C69.325 0.149727 70.835 0.149727 72.515 0.179727H72.645C73.135 0.209727 73.665 0.209726 74.155 0.249726C74.645 0.249726 75.145 0.379726 75.605 0.549726C75.965 0.649725 76.295 0.849727 76.525 1.10973C76.725 1.40973 76.825 1.69973 76.825 2.02973C76.825 2.28973 76.825 2.55973 76.755 2.74973C76.725 3.00973 76.595 3.20972 76.355 3.43972C76.195 3.53972 75.995 3.66973 75.725 3.76973C75.465 3.83973 75.165 3.86973 74.905 3.89973C74.575 3.96973 74.275 3.96973 73.955 3.96973H72.475L65.895 3.99973V4.08973H65.905Z" fill="#FFD167"/>
<path d="M28.2854 49.2L28.3154 46.53L28.3454 41.56C28.3754 40.14 28.3754 38.59 28.3754 36.96C28.3754 35.33 28.3754 34.22 28.4454 32.67V32.53C28.4754 32.09 28.5154 31.58 28.5154 31.11C28.5454 30.67 28.6854 30.23 28.8854 29.79C29.0554 29.45 29.2554 29.22 29.5954 28.98C29.9354 28.81 30.3054 28.71 30.6454 28.71C30.9854 28.71 31.2854 28.74 31.5554 28.78C31.8254 28.82 32.0954 28.95 32.3354 29.19C32.5054 29.33 32.6054 29.49 32.7054 29.73C32.7754 30 32.8754 30.24 32.9054 30.51C32.9354 30.81 32.9754 31.08 32.9754 31.36C32.9754 31.66 32.9454 31.9 32.9454 32.17V32.74L32.7454 50.28V50.62C32.7454 50.76 32.7154 50.96 32.6754 51.23C32.6054 51.47 32.5354 51.7 32.4354 51.97C32.2954 52.21 32.1654 52.41 31.9254 52.58C31.7254 52.78 31.4154 52.88 31.0454 52.95C30.4354 53.09 29.8254 53.02 29.3254 52.78C29.0854 52.61 28.8854 52.41 28.7554 52.1C28.6854 52.03 28.6554 51.96 28.6554 51.9C28.6254 51.83 28.5554 51.76 28.5154 51.7C28.4454 51.46 28.3754 51.23 28.3754 50.96C28.3454 50.76 28.3054 50.52 28.2754 50.28C28.2454 50.08 28.2454 49.91 28.2754 49.71V49.2H28.2854Z" fill="#FFA366"/>
<path d="M49.7749 52.8504C46.8049 53.4904 43.0449 52.7504 40.4149 50.5504C37.2749 47.9504 37.0649 42.8804 37.3749 39.1904C37.6149 35.8804 39.5348 31.6504 43.1848 29.6304C45.9548 28.0404 50.5148 28.4504 52.7448 30.5104C54.1648 31.7604 56.3948 35.4804 53.3848 36.2204C52.1348 36.5604 51.4248 35.6504 50.7848 34.8304C48.5848 32.2304 44.6648 33.0704 43.3148 35.9804C41.8948 39.0204 41.4549 43.6204 43.3449 46.3204C44.8349 48.4504 47.7348 49.0904 50.0348 47.8104C50.7748 47.4404 51.6949 46.3604 52.7349 46.0504C53.5449 45.7804 54.6949 46.0804 55.1649 47.0604C56.3949 49.6404 52.4449 52.2104 49.7749 52.8504Z" fill="#FFA366"/>
<path d="M75.895 51.3196C75.795 51.6596 75.625 51.9296 75.325 52.1296C75.055 52.3296 74.855 52.4996 74.585 52.5996C74.315 52.7396 74.045 52.7696 73.705 52.7396C73.435 52.7396 73.235 52.6396 72.995 52.4996C72.755 52.3596 72.485 52.1996 72.285 52.0296C72.015 51.7896 71.775 51.6196 71.605 51.4196C71.405 51.1796 71.195 50.9496 71.035 50.7796L70.625 50.3396L64.135 43.5496L64.235 50.3396V50.6396C64.235 50.8096 64.165 51.0496 64.135 51.2496C64.065 51.5196 63.995 51.7596 63.895 52.0296C63.825 52.2996 63.625 52.4696 63.455 52.6396C63.215 52.8396 62.915 52.9796 62.575 53.0096C61.895 53.2096 61.355 53.1496 60.785 52.8696C60.545 52.7296 60.345 52.4996 60.175 52.1896C60.145 52.1196 60.105 52.0496 60.075 52.0196C60.075 51.9496 60.045 51.8796 60.005 51.7796C59.865 51.5396 59.805 51.3096 59.805 51.0996C59.775 50.8296 59.735 50.6296 59.705 50.3596C59.675 50.1896 59.675 49.9896 59.675 49.8196C59.705 49.6196 59.705 49.4496 59.705 49.2496L59.675 46.5796L59.645 41.6096C59.645 40.1596 59.615 38.5996 59.545 36.9496C59.515 35.3296 59.515 34.2096 59.545 32.6596V32.5196C59.615 32.0496 59.615 31.5396 59.645 31.0996C59.645 30.6296 59.745 30.1896 59.945 29.7496C60.085 29.4096 60.315 29.1396 60.655 28.9396C60.995 28.7396 61.335 28.6696 61.735 28.5996C62.035 28.5996 62.345 28.6696 62.615 28.6996C62.885 28.7296 63.155 28.8396 63.425 29.0696C63.565 29.2096 63.695 29.3696 63.765 29.6396C63.905 29.8396 63.965 30.1096 64.005 30.4196C64.035 30.6896 64.075 30.9596 64.075 31.2596V32.6496L64.105 36.7696C64.815 36.1296 65.525 35.4496 66.205 34.7096C67.425 33.4596 68.605 32.2396 69.825 31.0896L69.925 30.9896C70.295 30.6496 70.665 30.2796 71.045 29.9796C71.345 29.6396 71.785 29.3396 72.295 29.1696C72.635 28.9696 73.005 28.8996 73.405 28.9296C73.815 28.9596 74.145 29.1296 74.455 29.3396C74.695 29.5396 74.925 29.7096 75.065 29.9096C75.265 30.0796 75.365 30.3496 75.405 30.6196C75.405 30.8596 75.375 31.0596 75.265 31.2996C75.125 31.4996 74.995 31.7696 74.825 31.9796C74.625 32.2496 74.455 32.4896 74.215 32.6896C74.045 32.9296 73.805 33.0996 73.645 33.2996L73.205 33.7396L66.885 40.1896C68.275 41.5796 69.925 43.2696 70.705 44.0796C71.925 45.3296 73.035 46.5796 74.115 47.8296L74.215 47.9296C74.555 48.2996 74.895 48.6696 75.165 49.0496C75.505 49.4196 75.735 49.8296 75.875 50.2996C76.025 50.6496 76.055 50.9496 75.895 51.3196Z" fill="#FFA366"/>
<path d="M17.1057 42.1704C16.9357 42.7704 16.6557 43.2904 16.3157 43.7304C15.2857 45.0804 13.6057 45.7604 11.9057 45.7604H10.5457C10.1357 45.7604 9.80566 46.0904 9.80566 46.5004V51.8504C9.80566 52.3604 10.2157 52.7704 10.7257 52.7704H11.5157C15.6057 52.7704 19.5457 51.0304 21.9957 47.8104C23.1957 46.2304 24.1057 44.2604 24.2457 41.8904C22.1157 41.5004 19.6257 41.5604 17.1057 42.1704Z" fill="#6DAD9C"/>
<path d="M1.49575 52.7704H6.56575C7.07575 52.7704 7.48574 52.3604 7.48574 51.8504V45.5104C4.61574 45.7504 2.10575 44.9404 0.475746 44.1904V51.7404C0.465746 52.3104 0.925746 52.7704 1.49575 52.7704Z" fill="#6DAD9C"/>
</svg>
