<svg width="101" height="70" viewBox="0 0 101 70" fill="none" xmlns="http://www.w3.org/2000/svg">
<path d="M26.1935 2.31896C26.233 2.66153 26.1935 3.32032 26.154 3.57066C26.0617 3.8737 25.8905 4.13722 25.5479 4.44027C25.3766 4.61155 25.1526 4.78284 24.81 4.87507C24.4675 4.9673 24.1117 5.00683 23.7296 5.04636C23.3475 5.08589 22.9918 5.13859 22.5965 5.13859H20.1194V5.87643C20.0799 11.0414 20.5542 16.3249 20.2117 21.4898C19.9086 25.0078 18.96 28.9079 15.0072 30.4758C11.3575 31.9119 5.7182 31.6089 2.89857 28.9606C1.42287 27.6166 -0.0528227 24.5335 2.5033 23.1105C4.75637 21.8061 5.88949 25.1527 8.10304 25.6666C15.1785 27.3531 14.0058 18.209 14.0849 14.7833C14.1244 11.7529 14.0454 8.80148 14.0454 5.75785V5.58657C14.0849 5.49434 14.0849 5.41528 14.0849 5.32305H13.9531C13.2548 5.23082 8.91994 5.23082 8.18209 5.19129H7.57601V5.15176C7.10167 5.11224 6.66687 4.98048 6.19254 4.84872C5.6655 4.67743 5.24388 4.41391 4.94083 4.01864C4.63779 3.71559 4.50603 2.93822 4.50603 2.50342C4.50603 2.20037 4.50603 1.8578 4.59826 1.55475C4.63779 1.25171 4.86177 0.948663 5.20435 0.685146C5.37563 0.553387 5.67868 0.382102 6.03443 0.289871C6.4297 0.19764 6.86451 0.118585 7.28614 0.079057C7.68141 0.0395294 8.11622 0.039526 8.53784 0.039526H12.7014C13.044 0.039526 13.5315 0.0395276 14.0849 0C16.338 0 18.5515 -1.6075e-06 20.6333 0.039526H20.8968C21.5029 0.039526 22.1485 0.079057 22.7678 0.079057C23.4661 0.118585 24.0722 0.250342 24.6387 0.474332C25.1131 0.606091 25.4688 0.816906 25.7719 1.21218C26.0222 1.54158 26.1935 1.88415 26.1935 2.31896Z" fill="#FFD167"/>
<path d="M35.3771 5.38942L35.2849 12.2013H37.0241C39.3694 12.1618 41.0163 12.1618 43.2694 12.2013H43.4802C44.1786 12.2013 44.8242 12.2409 45.4698 12.2409C46.1681 12.2804 46.8137 12.4517 47.4198 12.6361C47.9469 12.8074 48.329 13.0709 48.632 13.4135C48.935 13.8088 49.0668 14.2436 49.0668 14.6652C49.0668 14.9683 49.0668 15.3635 48.9746 15.6666C48.935 15.9696 48.7638 16.2727 48.408 16.5362C48.2367 16.747 47.9337 16.8788 47.5779 16.971C47.2749 17.0632 46.8796 17.1423 46.4448 17.1818C46.0495 17.274 45.6674 17.3136 45.2326 17.3136H43.1904L35.1663 17.3531L35.074 25.8515L43.7042 25.9438H45.7465C46.1813 25.9438 46.6161 25.9438 46.9587 25.9833C47.3935 26.0755 47.7887 26.1151 48.1313 26.1941C48.4739 26.3259 48.7769 26.4972 49.0009 26.6684C49.304 26.9715 49.4753 27.235 49.5675 27.5776C49.607 27.8411 49.6597 28.1837 49.607 28.5262C49.607 29.0006 49.4753 29.3958 49.1722 29.7779C48.8692 30.1205 48.4739 30.4236 47.96 30.5553C47.3539 30.8188 46.7083 30.9506 45.9705 30.9506C45.3249 30.9901 44.6265 30.9901 43.9809 31.0428H43.7174C41.4643 31.0824 39.119 31.0824 36.6947 31.0428C34.4416 31.0033 34.2176 31.0033 32.3993 31.0033C31.7932 31.0428 31.2267 30.9638 30.7524 30.6607C30.4493 30.4894 30.1858 30.2259 30.0145 29.8306C29.9223 29.7384 29.8827 29.6198 29.8827 29.5671C29.8432 29.4749 29.751 29.3958 29.7115 29.3036C29.6192 29.0006 29.5402 28.6975 29.5402 28.3945C29.5006 28.131 29.4479 27.8279 29.4084 27.5249V26.8265C29.4084 26.6157 29.4479 26.3522 29.4479 26.1282V22.742L29.5402 16.4967V10.7652C29.5402 8.68339 29.5797 7.24722 29.6324 5.34989V5.13908C29.6719 4.53299 29.7246 3.96643 29.7246 3.39986C29.7642 2.79377 29.9354 2.22721 30.199 1.71335C30.4098 1.27855 30.6733 0.883273 31.1081 0.672459C31.5429 0.408942 31.9382 0.27718 32.452 0.27718C32.6629 0.27718 32.7946 0.277183 32.9791 0.316711V0.27718C35.0609 0.27718 35.1926 0.277181 37.5774 0.237654C39.87 0.198126 41.8728 0.198126 44.0863 0.237654H44.2576C44.9032 0.277181 45.6016 0.277181 46.2472 0.329884C46.8928 0.329884 47.5516 0.501169 48.1577 0.725159C48.632 0.856918 49.0668 1.12044 49.3699 1.46301C49.6334 1.85829 49.7651 2.24038 49.7651 2.67519C49.7651 3.01776 49.7651 3.37351 49.6729 3.62385C49.6334 3.96642 49.4621 4.22994 49.1459 4.53298C48.935 4.66474 48.6715 4.83603 48.3158 4.96779C47.9732 5.06002 47.5779 5.09955 47.2354 5.13908C46.8006 5.23131 46.4053 5.23131 45.9837 5.23131H44.0336L35.3771 5.25766V5.38942Z" fill="#FFD167"/>
<path d="M77.0655 2.31896C77.105 2.66153 77.0655 3.32032 77.026 3.57066C76.9338 3.8737 76.7625 4.13722 76.4199 4.44027C76.2486 4.61155 76.0246 4.78284 75.682 4.87507C75.3395 4.9673 74.9837 5.00683 74.6016 5.04636C74.2195 5.08589 73.8638 5.13859 73.4685 5.13859H70.9914V5.87643C70.9519 11.0414 71.4262 16.3249 71.0837 21.4898C70.7806 25.0078 69.832 28.9079 65.8792 30.4758C62.2295 31.9119 56.6034 31.6089 53.7838 28.9606C52.3081 27.6166 50.8324 24.5335 53.3885 23.1105C55.6416 21.8061 56.7747 25.1527 58.9882 25.6666C66.0637 27.3531 64.891 18.209 64.9701 14.7833C65.0096 11.7529 64.9305 8.80148 64.9305 5.75785V5.58657C64.9701 5.49434 64.9701 5.41528 64.9701 5.32305H64.8383C64.14 5.23082 59.8051 5.23082 59.0673 5.19129H58.4612V5.15176C57.9869 5.11224 57.5521 4.98048 57.0777 4.84872C56.5507 4.67743 56.1291 4.41391 55.826 4.01864C55.523 3.71559 55.3912 2.93822 55.3912 2.50342C55.3912 2.20037 55.3912 1.8578 55.4835 1.55475C55.523 1.25171 55.747 0.948663 56.0895 0.685146C56.2608 0.553387 56.5639 0.382102 56.9196 0.289871C57.3149 0.19764 57.7497 0.118585 58.1713 0.079057C58.5666 0.0395294 59.0014 0.039526 59.423 0.039526H63.5866C63.9292 0.039526 64.4167 0.0395276 64.9701 0C67.2231 0 69.4367 -1.6075e-06 71.5185 0.039526H71.782C72.3881 0.039526 73.0337 0.079057 73.653 0.079057C74.3513 0.118585 74.9574 0.250342 75.5239 0.474332C75.9983 0.606091 76.354 0.816906 76.6571 1.21218C76.8942 1.54158 77.0655 1.88415 77.0655 2.31896Z" fill="#FFD167"/>
<path d="M86.2491 5.38942L86.1569 12.2013H87.8961C90.2414 12.1618 91.8884 12.1618 94.1414 12.2013H94.3523C95.0506 12.2013 95.6962 12.2409 96.3418 12.2409C97.0401 12.2804 97.6857 12.4517 98.2918 12.6361C98.8189 12.8074 99.201 13.0709 99.504 13.4135C99.8071 13.8088 99.9388 14.2436 99.9388 14.6652C99.9388 14.9683 99.9388 15.3635 99.8466 15.6666C99.8071 15.9696 99.6358 16.2727 99.28 16.5362C99.1087 16.747 98.8057 16.8788 98.45 16.971C98.1469 17.0632 97.7516 17.1423 97.3168 17.1818C96.9216 17.274 96.5394 17.3136 96.1046 17.3136H94.0624L86.0383 17.3531L85.946 25.8515L94.5762 25.9438H96.6185C97.0533 25.9438 97.4881 25.9438 97.8307 25.9833C98.2655 26.0755 98.6608 26.1151 99.0033 26.1941C99.3459 26.3259 99.6489 26.4972 99.8729 26.6684C100.176 26.9715 100.347 27.235 100.44 27.5776C100.479 27.8411 100.532 28.1837 100.479 28.5262C100.479 29.0006 100.347 29.3958 100.044 29.7779C99.7412 30.1205 99.3459 30.4236 98.8321 30.5553C98.226 30.8188 97.5803 30.9506 96.8425 30.9506C96.1969 30.9901 95.4986 30.9901 94.8529 31.0428H94.5894C92.3364 31.0824 89.991 31.0824 87.5667 31.0428C85.3136 31.0033 85.0896 31.0033 83.2714 31.0033C82.6653 31.0428 82.0987 30.9638 81.6244 30.6607C81.3213 30.4894 81.0578 30.2259 80.8865 29.8306C80.7943 29.7384 80.7548 29.6198 80.7548 29.5671C80.7152 29.4749 80.623 29.3958 80.5835 29.3036C80.4912 29.0006 80.4122 28.6975 80.4122 28.3945C80.3727 28.131 80.32 27.8279 80.2804 27.5249V26.8265C80.2804 26.6157 80.32 26.3522 80.32 26.1282V22.742L80.4122 16.4967V10.7652C80.4122 8.68339 80.4517 7.24722 80.5044 5.34989V5.13908C80.5439 4.53299 80.5967 3.96643 80.5967 3.39986C80.6362 2.79377 80.8075 2.22721 81.071 1.71335C81.2818 1.27855 81.5453 0.883273 81.9801 0.672459C82.4149 0.408942 82.8102 0.27718 83.3241 0.27718C83.5349 0.27718 83.6666 0.277183 83.8511 0.316711V0.27718C85.9329 0.27718 86.0646 0.277181 88.4495 0.237654C90.7552 0.198126 92.7448 0.198126 94.9583 0.237654H95.1296C95.7752 0.277181 96.4736 0.277181 97.1192 0.329884C97.7648 0.329884 98.4236 0.501169 99.0297 0.725159C99.504 0.856918 99.9388 1.12044 100.242 1.46301C100.505 1.85829 100.637 2.24038 100.637 2.67519C100.637 3.01776 100.637 3.37351 100.545 3.62385C100.505 3.96642 100.334 4.22994 100.018 4.53298C99.8071 4.66474 99.5435 4.83603 99.1878 4.96779C98.8452 5.06002 98.4499 5.09955 98.1074 5.13908C97.6726 5.23131 97.2773 5.23131 96.8557 5.23131H94.9056L86.2359 5.27083V5.38942H86.2491Z" fill="#FFD167"/>
<path d="M37.0413 64.9699L37.0794 61.4555L37.1175 54.9138C37.1556 53.0447 37.1556 51.0045 37.1556 48.859C37.1556 46.7136 37.1556 45.2525 37.2446 43.2123V43.0281C37.2827 42.4489 37.3335 41.7776 37.3335 41.159C37.3716 40.5798 37.5495 40.0007 37.8036 39.4215C38.0196 38.974 38.2737 38.6713 38.7057 38.3554C39.1376 38.1316 39.6077 38 40.0397 38C40.4717 38 40.8528 38.0395 41.1959 38.0921C41.5389 38.1448 41.8819 38.3159 42.1869 38.6318C42.4029 38.8161 42.5299 39.0267 42.657 39.3426C42.7459 39.698 42.8729 40.0139 42.9111 40.3692C42.9492 40.7641 43 41.1195 43 41.488C43 41.8829 42.9619 42.1988 42.9619 42.5542V43.3045L42.7078 66.3914V66.839C42.7078 67.0232 42.6697 67.2865 42.6188 67.6419C42.5299 67.9578 42.441 68.2605 42.3139 68.6159C42.136 68.9318 41.9709 69.195 41.666 69.4188C41.4119 69.682 41.018 69.8137 40.5479 69.9058C39.7729 70.0901 38.9979 69.998 38.3626 69.6821C38.0577 69.4583 37.8036 69.195 37.6384 68.787C37.5495 68.6949 37.5114 68.6027 37.5114 68.5237C37.4733 68.4316 37.3843 68.3395 37.3335 68.2605C37.2446 67.9446 37.1556 67.6419 37.1556 67.2865C37.1175 67.0232 37.0667 66.7073 37.0286 66.3914C36.9905 66.1282 36.9905 65.9044 37.0286 65.6412V64.9699H37.0413Z" fill="#FFA366"/>
<path d="M64.867 69.7095C61.0983 70.5484 56.3272 69.5784 52.9899 66.6947C49.0055 63.2867 48.739 56.641 49.1324 51.8042C49.4369 47.4655 51.8733 41.9209 56.5048 39.2731C60.0198 37.189 65.806 37.7264 68.6357 40.4266C70.4376 42.0651 73.2673 46.9412 69.4478 47.9112C67.8617 48.3568 66.9608 47.164 66.1486 46.0892C63.357 42.6811 58.3828 43.7822 56.6698 47.5966C54.8679 51.5814 54.3096 57.611 56.7079 61.1501C58.5986 63.9421 62.2784 64.781 65.197 63.1032C66.136 62.6182 67.3034 61.2025 68.623 60.7962C69.6509 60.4423 71.1101 60.8355 71.7065 62.1201C73.2673 65.5019 68.2551 68.8706 64.867 69.7095Z" fill="#FFA366"/>
<path d="M99.8572 67.6415C99.7237 68.0851 99.4967 68.4373 99.0962 68.6983C98.7358 68.9592 98.4688 69.181 98.1083 69.3115C97.7479 69.4941 97.3874 69.5332 96.9335 69.4941C96.5731 69.4941 96.3061 69.3636 95.9857 69.181C95.6653 68.9983 95.3048 68.7896 95.0378 68.5678C94.6774 68.2547 94.357 68.0329 94.13 67.772C93.863 67.4589 93.5827 67.1588 93.3691 66.937L92.8217 66.363L84.1576 57.5044L84.2912 66.363V66.7544C84.2912 66.9761 84.1977 67.2893 84.1576 67.5502C84.0642 67.9024 83.9707 68.2156 83.8372 68.5678C83.7438 68.9201 83.4768 69.1419 83.2499 69.3636C82.9295 69.6246 82.529 69.8072 82.0751 69.8464C81.1673 70.1073 80.4464 70.029 79.6854 69.6637C79.365 69.4811 79.098 69.181 78.8711 68.7765C78.831 68.6852 78.7776 68.5939 78.7376 68.5548C78.7376 68.4634 78.6975 68.3721 78.6441 68.2416C78.4572 67.9285 78.3771 67.6285 78.3771 67.3545C78.3371 67.0022 78.2837 66.7413 78.2436 66.389C78.2036 66.1673 78.2036 65.9063 78.2036 65.6845C78.2436 65.4236 78.2436 65.2018 78.2436 64.9409L78.2036 61.4575L78.1635 54.9734C78.1635 53.0817 78.1235 51.0464 78.03 48.8938C77.99 46.7803 77.99 45.319 78.03 43.2969V43.1142C78.1235 42.501 78.1235 41.8357 78.1635 41.2616C78.1635 40.6484 78.297 40.0744 78.564 39.5003C78.7509 39.0568 79.058 38.7045 79.5119 38.4436C79.9658 38.1826 80.4197 38.0913 80.9537 38C81.3542 38 81.768 38.0913 82.1285 38.1305C82.4889 38.1696 82.8494 38.3131 83.2098 38.6132C83.3967 38.7958 83.5703 39.0046 83.6637 39.3568C83.8506 39.6178 83.9307 39.97 83.9841 40.3745C84.0241 40.7267 84.0775 41.079 84.0775 41.4703V43.2838L84.1176 48.6589C85.0654 47.824 86.0133 46.9368 86.9211 45.9714C88.5498 44.3406 90.1251 42.7489 91.7538 41.2486L91.8872 41.1181C92.3812 40.6745 92.8751 40.1918 93.3824 39.8004C93.7829 39.3568 94.3703 38.9654 95.0512 38.7436C95.5051 38.4827 95.999 38.3914 96.533 38.4305C97.0804 38.4697 97.5209 38.6915 97.9348 38.9654C98.2552 39.2264 98.5622 39.4482 98.7491 39.7091C99.0161 39.9309 99.1496 40.2831 99.203 40.6354C99.203 40.9485 99.163 41.2094 99.0161 41.5225C98.8292 41.7835 98.6557 42.1357 98.4287 42.4097C98.1617 42.7619 97.9348 43.0751 97.6144 43.336C97.3874 43.6491 97.067 43.8709 96.8534 44.1318L96.266 44.7059L87.8289 53.1208C89.6845 54.9343 91.8873 57.1391 92.9286 58.1959C94.5572 59.8267 96.0391 61.4575 97.4809 63.0883L97.6144 63.2188C98.0683 63.7015 98.5222 64.1842 98.8826 64.68C99.3365 65.1627 99.6436 65.6976 99.8305 66.3108C100.031 66.7674 100.071 67.1588 99.8572 67.6415Z" fill="#FFA366"/>
<path d="M31.0819 51.3736C29.817 45.0887 25.0341 40.1478 18.7888 38.6457C14.5066 37.618 9.23628 37.9342 4.62473 42.8093C1.55475 46.0637 0 50.4513 0 54.9311V68.1729C0 68.9239 0.606088 69.53 1.35711 69.53H8.03728C8.70924 69.53 9.24945 68.9898 9.24945 68.3178V59.7403V54.4172C9.24945 52.4804 9.92142 50.5567 11.2785 49.1864C13.1232 47.3286 15.2181 47.1969 16.931 47.6053C19.3553 48.1719 21.3317 50.0824 21.9378 52.5067C22.4912 54.6939 21.8456 56.3805 20.8969 57.6322C19.5398 59.4109 17.3263 60.3069 15.0864 60.3069H13.2944C12.7542 60.3069 12.3194 60.7417 12.3194 61.2819V68.331C12.3194 69.0029 12.8596 69.5431 13.5316 69.5431H14.5725C19.9614 69.5431 25.1527 67.2505 28.3808 63.0079C30.5548 60.1224 32.0569 56.275 31.0819 51.3736Z" fill="#FFA366"/>
<path d="M20.5675 49.8582C21.2 50.6224 21.6875 51.5052 21.9378 52.4934C22.4912 54.6805 21.8456 56.3671 20.8969 57.6188C19.5398 59.3975 17.3263 60.2935 15.0864 60.2935H13.2945C12.7542 60.2935 12.3194 60.7283 12.3194 61.2685V68.3176C12.3194 68.9895 12.8597 69.5297 13.5316 69.5297H14.5725C19.9614 69.5297 25.1527 67.2371 28.3808 62.9945C30.568 60.1222 32.0569 56.2748 31.0819 51.3734C30.8842 50.4247 30.6075 49.5024 30.265 48.6196C27.0237 48.5142 23.5058 48.9622 20.5675 49.8582Z" fill="#FFD167"/>
<path d="M1.3703 69.5299H8.05046C8.72243 69.5299 9.26264 68.9897 9.26264 68.3178V59.7403V54.4172C9.26264 53.6135 9.40757 52.8229 9.63156 52.0587C5.41529 50.7016 1.73922 47.3813 1.64699 47.3154C0.566572 49.6871 0.0131836 52.2959 0.0131836 54.9443V68.186C0.0131836 68.9239 0.619272 69.5299 1.3703 69.5299Z" fill="#FFD167"/>
<path d="M21.951 55.5635C21.727 56.3541 21.3581 57.0392 20.9101 57.619C19.553 59.3977 17.3394 60.2937 15.0995 60.2937H13.3076C12.7674 60.2937 12.3326 60.7285 12.3326 61.2687V68.3178C12.3326 68.9897 12.8728 69.5299 13.5448 69.5299H14.5857C19.9746 69.5299 25.1659 67.2373 28.394 62.9947C29.9751 60.9129 31.1741 58.3173 31.3586 55.1946C28.5521 54.6807 25.2713 54.7598 21.951 55.5635Z" fill="#6DAD9C"/>
<path d="M1.38347 69.53H8.06363C8.7356 69.53 9.27581 68.9898 9.27581 68.3178V59.9643C5.49434 60.2805 2.1872 59.2133 0.0395327 58.2251V68.1729C0.0263569 68.9239 0.632447 69.53 1.38347 69.53Z" fill="#6DAD9C"/>
</svg>
