<svg width="22" height="31" viewBox="0 0 22 31" fill="none" xmlns="http://www.w3.org/2000/svg">
<g id="Group 47">
<g id="Group 37">
<path id="Vector" d="M12.9382 29.27C12.0482 30.81 9.8182 30.81 8.9282 29.27L1.4782 16.37C-2.7218 9.08999 2.5282 0 10.9282 0C19.3282 0 24.5882 9.09999 20.3782 16.37L12.9382 29.27Z" fill="#ED5F6B"/>
<circle id="Ellipse 26" cx="11" cy="11" r="9" fill="white"/>
</g>
<g id="Group">
<g id="Group_2">
<path id="Vector_2" d="M11.0012 14.829C12.8397 14.829 14.33 13.3386 14.33 11.5002C14.33 9.66174 12.8397 8.17139 11.0012 8.17139C9.16278 8.17139 7.67242 9.66174 7.67242 11.5002C7.67242 13.3386 9.16278 14.829 11.0012 14.829Z" stroke="#ED5F6B" stroke-width="0.5" stroke-miterlimit="10"/>
<path id="Vector_3" d="M9.04242 11.4624C9.04242 10.4257 9.87938 9.58875 10.9161 9.58875" stroke="#ED5F6B" stroke-width="0.5" stroke-miterlimit="10" stroke-linecap="round" stroke-linejoin="round"/>
</g>
<g id="Group_3">
<path id="Vector_4" d="M5 8.25705V9.9595C5 10.2638 5.24728 10.5111 5.55163 10.5111H5.90353C6.20788 10.5111 6.45517 10.2638 6.45517 9.9595V8.22852" stroke="#ED5F6B" stroke-width="0.5" stroke-miterlimit="10" stroke-linecap="round" stroke-linejoin="round"/>
<path id="Vector_5" d="M5.73187 8.30469V10.4637" stroke="#ED5F6B" stroke-width="0.5" stroke-miterlimit="10" stroke-linecap="round" stroke-linejoin="round"/>
<path id="Vector_6" d="M5.73187 10.5779V14.7722" stroke="#ED5F6B" stroke-width="0.5" stroke-miterlimit="10" stroke-linecap="round" stroke-linejoin="round"/>
</g>
<g id="Group_4">
<path id="Vector_7" d="M16.4512 10.8152V15" stroke="#ED5F6B" stroke-width="0.5" stroke-miterlimit="10" stroke-linecap="round" stroke-linejoin="round"/>
<path id="Vector_8" d="M16.4514 10.6821C17.0713 10.6821 17.5737 10.0817 17.5737 9.34102C17.5737 8.60039 17.0713 8 16.4514 8C15.8316 8 15.3292 8.60039 15.3292 9.34102C15.3292 10.0817 15.8316 10.6821 16.4514 10.6821Z" stroke="#ED5F6B" stroke-width="0.5" stroke-miterlimit="10" stroke-linecap="round" stroke-linejoin="round"/>
</g>
</g>
</g>
</svg>
