<svg width="22" height="31" viewBox="0 0 22 31" fill="none" xmlns="http://www.w3.org/2000/svg">
<g id="Group 113">
<g id="Group 37">
<path id="Vector" d="M12.9382 29.27C12.0482 30.81 9.8182 30.81 8.9282 29.27L1.4782 16.37C-2.7218 9.08999 2.5282 0 10.9282 0C19.3282 0 24.5882 9.09999 20.3782 16.37L12.9382 29.27Z" fill="#FFA366"/>
<circle id="Ellipse 26" cx="11" cy="11" r="9" fill="white"/>
</g>
<g id="Group 43">
<g id="Group">
<g id="Group_2">
<path id="Vector_2" d="M5 9.9707C5.84 9.9707 5.84 11.9507 6.68 11.9507C7.52 11.9507 7.52 9.9707 8.36 9.9707C9.2 9.9707 9.2 11.9507 10.04 11.9507C10.88 11.9507 10.88 9.9707 11.72 9.9707" stroke="#FFA366" stroke-width="0.45" stroke-miterlimit="10" stroke-linecap="round"/>
</g>
<g id="Group_3">
<path id="Vector_3" d="M5 12.7808C5.84 12.7808 5.84 14.7608 6.68 14.7608C7.52 14.7608 7.52 12.7808 8.36 12.7808C9.2 12.7808 9.2 14.7608 10.04 14.7608C10.88 14.7608 10.88 12.7808 11.72 12.7808" stroke="#FFA366" stroke-width="0.45" stroke-miterlimit="10" stroke-linecap="round"/>
</g>
</g>
<g id="Group_4">
<path id="Vector_4" d="M15.2699 16.0108C14.1099 15.2308 8.41989 11.1308 8.52989 5.26083C8.52989 5.09083 8.6899 4.96083 8.8599 5.01083C10.1499 5.39083 15.0099 7.27082 17.1199 14.5808C17.1599 14.7108 17.0799 14.8508 16.9499 14.8908L16.3599 15.0708C16.2599 15.1008 16.1599 15.1708 16.0999 15.2608L15.6199 15.9408C15.5399 16.0608 15.3899 16.0908 15.2699 16.0108Z" fill="#FFA366"/>
<path id="Vector_5" d="M15.6499 14.4108L14.5699 12.9508" stroke="white" stroke-width="0.5" stroke-miterlimit="10" stroke-linecap="round"/>
<path id="Vector_6" d="M10.1599 10.7408L11.0599 8.71077C11.1299 8.56077 11.2599 8.46077 11.4199 8.44077L13.6499 8.17078" stroke="white" stroke-width="0.5" stroke-miterlimit="10" stroke-linecap="round"/>
<path id="Vector_7" d="M9.6499 9.76076L10.4299 7.82076C10.4899 7.68076 10.5999 7.58076 10.7399 7.56076L12.6199 7.27075" stroke="white" stroke-width="0.5" stroke-miterlimit="10" stroke-linecap="round"/>
<path id="Vector_8" d="M9.10986 8.61087L9.77986 6.90088C9.82986 6.78088 9.92986 6.69088 10.0399 6.67088L11.5999 6.40088" stroke="white" stroke-width="0.5" stroke-miterlimit="10" stroke-linecap="round"/>
</g>
</g>
</g>
</svg>
