<svg width="22" height="31" viewBox="0 0 22 31" fill="none" xmlns="http://www.w3.org/2000/svg">
<g id="Group 48">
<path id="Vector" d="M12.9382 29.27C12.0482 30.81 9.8182 30.81 8.9282 29.27L1.4782 16.37C-2.7218 9.08999 2.5282 0 10.9282 0C19.3282 0 24.5882 9.09999 20.3782 16.37L12.9382 29.27Z" fill="#6DAD9C"/>
<circle id="Ellipse 26" cx="11" cy="11" r="9" fill="white"/>
<g id="Group">
<g id="Group_2">
<g id="Group_3">
<path id="Vector_2" d="M15.1954 9.05468C15.2698 9.05468 15.3566 9.05468 15.4558 9.05468C15.5551 9.05468 15.6419 9.06707 15.7287 9.07947C15.8155 9.09188 15.9023 9.11668 15.9767 9.14149C16.0511 9.16629 16.1008 9.21591 16.138 9.26552C16.2124 9.40195 16.2372 9.51356 16.2124 9.62518C16.1876 9.7244 16.1256 9.81122 16.0387 9.86083C15.9519 9.92284 15.8403 9.97245 15.7163 9.99725C15.5923 10.0221 15.4806 10.0345 15.3814 10.0221C15.1706 10.0097 14.9473 10.0097 14.7117 10.0221C14.4761 10.0345 14.2528 10.0345 14.042 10.0469C13.9676 10.0469 13.8931 10.0469 13.8187 10.0469C13.7443 10.0469 13.6699 10.0469 13.5955 10.0345C13.5211 10.0221 13.4591 9.99725 13.3971 9.96005C13.335 9.92284 13.273 9.87323 13.2358 9.78642C13.1738 9.6872 13.1614 9.58797 13.1986 9.48875C13.2358 9.38953 13.273 9.29032 13.3226 9.2035C13.397 9.07948 13.4839 8.95545 13.5831 8.83143C13.6823 8.70741 13.7691 8.60819 13.8435 8.52137L14.7985 7.26874L14.0296 7.29355C13.9676 7.29355 13.9055 7.29355 13.8311 7.29355C13.7567 7.29355 13.6947 7.28114 13.6203 7.26874C13.5459 7.25634 13.4839 7.24393 13.4219 7.21912C13.3598 7.19432 13.3102 7.16952 13.2606 7.13231C13.211 7.08271 13.1862 7.03309 13.1614 6.97108C13.1366 6.90907 13.1366 6.84706 13.1366 6.78505C13.1366 6.72304 13.149 6.66103 13.1738 6.61142C13.1986 6.54941 13.2234 6.49979 13.273 6.45018C13.2978 6.42538 13.3474 6.38817 13.3971 6.37577C13.4467 6.35097 13.4963 6.33855 13.5583 6.32615C13.6203 6.31375 13.6823 6.31376 13.7443 6.30136C13.8063 6.30136 13.8683 6.30136 13.918 6.30136C14.0296 6.30136 14.1536 6.30136 14.29 6.30136C14.4264 6.30136 14.5629 6.30136 14.6869 6.30136C14.8109 6.30136 14.9349 6.30135 15.059 6.28895C15.1706 6.28895 15.2698 6.28895 15.3442 6.28895C15.431 6.28895 15.5302 6.28895 15.6171 6.27655C15.7039 6.27655 15.7907 6.27656 15.8775 6.30136C15.9643 6.32616 16.0263 6.36337 16.0884 6.41298C16.1504 6.46259 16.1876 6.54941 16.2 6.67343C16.2124 6.74785 16.2124 6.82225 16.1876 6.89667C16.1752 6.97108 16.138 7.04549 16.1008 7.1075C16.0636 7.18192 16.0139 7.24393 15.9643 7.31834C15.9147 7.39276 15.8651 7.45477 15.8155 7.51678L14.6249 9.04227H15.1954V9.05468Z" fill="#6DAD9C"/>
</g>
<g id="Group_4">
<path id="Vector_3" d="M11.7717 10.4316C11.8213 10.4316 11.871 10.4316 11.933 10.4316C11.995 10.4316 12.057 10.444 12.1066 10.444C12.1686 10.4564 12.2182 10.4688 12.2678 10.4812C12.3174 10.506 12.3422 10.5308 12.3671 10.5556C12.4167 10.6424 12.4291 10.7169 12.4167 10.7789C12.4043 10.8409 12.3671 10.8905 12.305 10.9277C12.243 10.9649 12.181 11.0021 12.1066 11.0145C12.0322 11.0269 11.9578 11.0393 11.8958 11.0269C11.7593 11.0145 11.6229 11.0145 11.4741 11.0269C11.3253 11.0269 11.1888 11.0393 11.0524 11.0393C11.0028 11.0393 10.9532 11.0393 10.9036 11.0393C10.854 11.0393 10.8044 11.0393 10.7547 11.0269C10.7051 11.0145 10.6679 11.0021 10.6307 10.9773C10.5935 10.9525 10.5563 10.9153 10.5315 10.8657C10.4943 10.8037 10.4819 10.7417 10.5067 10.6797C10.5315 10.6177 10.5563 10.5556 10.5811 10.506C10.6307 10.4192 10.6803 10.3448 10.7424 10.2704C10.8044 10.196 10.854 10.1216 10.9036 10.0719L11.5113 9.27819L11.0152 9.29059C10.978 9.29059 10.9408 9.29059 10.8912 9.29059C10.8416 9.29059 10.8044 9.2906 10.7547 9.27819C10.7051 9.26579 10.6679 9.26579 10.6307 9.24099C10.5935 9.22858 10.5563 9.20378 10.5315 9.17897C10.5067 9.15417 10.4819 9.11696 10.4695 9.07975C10.4571 9.04254 10.4571 9.00534 10.4571 8.96813C10.4571 8.93093 10.4695 8.89372 10.4819 8.85652C10.4943 8.81931 10.5191 8.7821 10.5439 8.7573C10.5687 8.73249 10.5935 8.7201 10.6183 8.7077C10.6431 8.69529 10.6803 8.68289 10.7175 8.68289C10.7547 8.67048 10.792 8.67047 10.8416 8.67047C10.8788 8.67047 10.916 8.67047 10.9532 8.67047C11.0276 8.67047 11.102 8.67047 11.1888 8.67047C11.2756 8.67047 11.3625 8.67047 11.4493 8.67047C11.5361 8.67047 11.6105 8.67047 11.6849 8.67047C11.7593 8.67047 11.8213 8.67047 11.8586 8.67047C11.9206 8.67047 11.9702 8.67047 12.0322 8.67047C12.0942 8.67047 12.1438 8.67048 12.1934 8.68289C12.243 8.69529 12.2926 8.72009 12.3298 8.7573C12.3671 8.7945 12.3919 8.84412 12.4043 8.91853C12.4167 8.96814 12.4043 9.01775 12.3919 9.06736C12.3795 9.11696 12.367 9.15417 12.3422 9.20378C12.3174 9.25339 12.2926 9.2906 12.2554 9.34021C12.2182 9.38982 12.1934 9.42703 12.1562 9.46424L11.3997 10.4316H11.7717Z" fill="#6DAD9C"/>
</g>
</g>
<g id="Group_5">
<path id="Vector_4" d="M8.74557 11.5352C8.23707 9.78644 8.70836 7.98808 9.81217 6.69824C10.0602 6.41299 9.81216 5.9541 9.42769 6.00371C9.00601 6.05332 8.59673 6.16494 8.17505 6.32617C5.75659 7.28115 4.40474 9.97246 5.07446 12.4777C5.83101 15.2931 8.73316 16.9178 11.5113 16.124C11.7717 16.0496 12.0198 15.9504 12.2678 15.8388C12.6151 15.6775 12.5903 15.1567 12.2182 15.045C10.6059 14.5613 9.25406 13.2839 8.74557 11.5352Z" fill="#6DAD9C" stroke="white" stroke-width="0.5" stroke-miterlimit="10"/>
</g>
</g>
</g>
</svg>
