<svg width="22" height="31" viewBox="0 0 22 31" fill="none" xmlns="http://www.w3.org/2000/svg">
<path d="M12.9382 29.27C12.0482 30.81 9.8182 30.81 8.9282 29.27L1.4782 16.37C-2.7218 9.08999 2.5282 0 10.9282 0C19.3282 0 24.5882 9.09999 20.3782 16.37L12.9382 29.27Z" fill="#ED5F6B"/>
<circle cx="11" cy="11" r="9" fill="white"/>
<path d="M11.0017 14.8285C12.8401 14.8285 14.3305 13.3382 14.3305 11.4997C14.3305 9.66125 12.8401 8.1709 11.0017 8.1709C9.16321 8.1709 7.67285 9.66125 7.67285 11.4997C7.67285 13.3382 9.16321 14.8285 11.0017 14.8285Z" stroke="#ED5F6B" stroke-width="0.5" stroke-miterlimit="10"/>
<path d="M9.04297 11.4615C9.04297 10.4248 9.87993 9.58789 10.9166 9.58789" stroke="#ED5F6B" stroke-width="0.5" stroke-miterlimit="10" stroke-linecap="round" stroke-linejoin="round"/>
<path d="M5 8.25705V9.9595C5 10.2638 5.24728 10.5111 5.55163 10.5111H5.90353C6.20788 10.5111 6.45517 10.2638 6.45517 9.9595V8.22852" stroke="#ED5F6B" stroke-width="0.5" stroke-miterlimit="10" stroke-linecap="round" stroke-linejoin="round"/>
<path d="M5.73145 8.30469V10.4637" stroke="#ED5F6B" stroke-width="0.5" stroke-miterlimit="10" stroke-linecap="round" stroke-linejoin="round"/>
<path d="M5.73145 10.5781V14.7724" stroke="#ED5F6B" stroke-width="0.5" stroke-miterlimit="10" stroke-linecap="round" stroke-linejoin="round"/>
<path d="M16.4512 10.8154V15.0002" stroke="#ED5F6B" stroke-width="0.5" stroke-miterlimit="10" stroke-linecap="round" stroke-linejoin="round"/>
<path d="M16.4514 10.6821C17.0712 10.6821 17.5737 10.0817 17.5737 9.34102C17.5737 8.60039 17.0712 8 16.4514 8C15.8316 8 15.3291 8.60039 15.3291 9.34102C15.3291 10.0817 15.8316 10.6821 16.4514 10.6821Z" stroke="#ED5F6B" stroke-width="0.5" stroke-miterlimit="10" stroke-linecap="round" stroke-linejoin="round"/>
</svg>
