<svg width="30" height="43" viewBox="0 0 30 43" fill="none" xmlns="http://www.w3.org/2000/svg">
<path d="M17.7555 40.8401C16.5341 42.9535 13.4739 42.9535 12.2525 40.8401L2.02858 23.137C-3.73522 13.1464 3.46954 0.671875 14.9971 0.671875C26.5247 0.671875 33.7432 13.1601 27.9657 23.137L17.7555 40.8401Z" fill="#FFD167"/>
<path d="M13.678 19.396C13.7953 19.4107 13.898 19.44 13.986 19.484C14.074 19.528 14.1363 19.6087 14.173 19.726C14.261 19.99 14.1657 20.177 13.887 20.287C13.799 20.3237 13.711 20.3457 13.623 20.353C13.535 20.3603 13.4507 20.364 13.37 20.364H8.255C8.10833 20.364 7.95433 20.3603 7.793 20.353C7.639 20.353 7.48133 20.3493 7.32 20.342C7.166 20.3347 7.03767 20.2797 6.935 20.177C6.83233 20.0743 6.77367 19.9387 6.759 19.77L6.726 19C6.71867 18.9193 6.71867 18.824 6.726 18.714C6.73333 18.604 6.77 18.5123 6.836 18.439C6.93867 18.329 7.07433 18.2593 7.243 18.23C7.419 18.2007 7.58767 18.186 7.749 18.186C7.85167 18.186 8.02033 18.186 8.255 18.186C8.497 18.186 8.82333 18.1897 9.234 18.197C9.64467 18.197 10.1507 18.197 10.752 18.197C11.3607 18.197 12.083 18.197 12.919 18.197V17.801H7.507C7.43367 17.801 7.36767 17.801 7.309 17.801C7.25033 17.801 7.19167 17.7937 7.133 17.779C7.067 17.7643 7.00833 17.7497 6.957 17.735C6.90567 17.7203 6.86167 17.6837 6.825 17.625C6.72233 17.471 6.69667 17.3133 6.748 17.152C6.77 17.0933 6.803 17.0493 6.847 17.02C6.891 16.9833 6.94233 16.954 7.001 16.932C7.05967 16.91 7.11467 16.8953 7.166 16.888C7.22467 16.8807 7.276 16.8733 7.32 16.866C7.43 16.844 7.54367 16.833 7.661 16.833C7.76367 16.833 7.87367 16.833 7.991 16.833C8.11567 16.833 8.26233 16.8367 8.431 16.844C8.59967 16.844 8.794 16.844 9.014 16.844C9.24133 16.844 9.50533 16.844 9.806 16.844C9.81333 16.7633 9.817 16.6863 9.817 16.613C9.82433 16.5323 9.828 16.4517 9.828 16.371C9.784 16.371 9.685 16.371 9.531 16.371C9.377 16.3637 9.19733 16.36 8.992 16.36C8.794 16.36 8.57767 16.36 8.343 16.36C8.11567 16.3527 7.89933 16.349 7.694 16.349C7.496 16.3417 7.32367 16.3343 7.177 16.327C7.03033 16.3197 6.935 16.3123 6.891 16.305C6.77367 16.2903 6.67833 16.283 6.605 16.283C6.539 16.283 6.45833 16.239 6.363 16.151C6.26767 16.063 6.22 15.9493 6.22 15.81C6.22 15.656 6.26767 15.5313 6.363 15.436C6.41433 15.3773 6.484 15.337 6.572 15.315C6.66 15.2857 6.74433 15.2673 6.825 15.26C6.90567 15.2453 6.97533 15.2417 7.034 15.249C7.1 15.249 7.13667 15.249 7.144 15.249H13.436C13.546 15.249 13.656 15.249 13.766 15.249C13.876 15.249 13.9823 15.2527 14.085 15.26C14.1877 15.2673 14.2867 15.2783 14.382 15.293C14.4847 15.3003 14.5763 15.3407 14.657 15.414C14.7377 15.4727 14.7817 15.5387 14.789 15.612C14.8037 15.6853 14.811 15.766 14.811 15.854C14.811 15.964 14.778 16.052 14.712 16.118C14.6533 16.184 14.569 16.2353 14.459 16.272C14.3123 16.3307 14.1473 16.3563 13.964 16.349C13.788 16.3417 13.6267 16.3417 13.48 16.349C13.1133 16.3637 12.7577 16.371 12.413 16.371C12.0757 16.371 11.72 16.371 11.346 16.371C11.346 16.4517 11.346 16.5323 11.346 16.613C11.346 16.6863 11.3423 16.7633 11.335 16.844H13.029C13.403 16.844 13.689 16.9027 13.887 17.02C14.085 17.13 14.184 17.3133 14.184 17.57V18.351C14.184 18.4537 14.1583 18.5563 14.107 18.659C14.063 18.7543 13.9823 18.835 13.865 18.901C13.7697 18.9597 13.6743 18.9927 13.579 19C13.4837 19 13.3883 19 13.293 19H8.079V19.396H13.678ZM13.106 13.698C13.2453 13.764 13.3773 13.8373 13.502 13.918C13.634 13.9987 13.7587 14.0793 13.876 14.16C13.9347 14.2113 13.9677 14.2773 13.975 14.358C13.9897 14.4387 13.9787 14.5193 13.942 14.6C13.9127 14.6733 13.865 14.7393 13.799 14.798C13.733 14.8567 13.656 14.897 13.568 14.919C13.3333 14.9557 13.1133 14.9557 12.908 14.919C12.71 14.875 12.5047 14.8053 12.292 14.71C12.094 14.622 11.9033 14.5377 11.72 14.457C11.544 14.3763 11.3717 14.2883 11.203 14.193C11.1517 14.1637 11.082 14.127 10.994 14.083C10.9133 14.039 10.8327 13.9987 10.752 13.962C10.6567 13.918 10.554 13.8703 10.444 13.819C10.3193 13.8777 10.1983 13.9327 10.081 13.984C9.97833 14.028 9.87567 14.0757 9.773 14.127C9.67767 14.171 9.60067 14.2077 9.542 14.237C9.35133 14.3397 9.17533 14.4277 9.014 14.501C8.85267 14.567 8.67667 14.644 8.486 14.732C8.33933 14.7907 8.189 14.8567 8.035 14.93C7.88833 14.996 7.73067 15.029 7.562 15.029C7.43 15.0217 7.30167 14.9887 7.177 14.93C7.05233 14.864 6.97533 14.7613 6.946 14.622C6.93867 14.5487 6.946 14.4643 6.968 14.369C6.99733 14.2663 7.045 14.182 7.111 14.116C7.18433 14.05 7.27233 13.984 7.375 13.918L8.134 13.544C8.25867 13.4853 8.36867 13.434 8.464 13.39C8.55933 13.346 8.673 13.2947 8.805 13.236C8.86367 13.1993 8.92967 13.1627 9.003 13.126C9.07633 13.082 9.15333 13.0417 9.234 13.005H8.541C8.42367 13.005 8.321 13.005 8.233 13.005C8.15233 13.005 8.057 12.9977 7.947 12.983C7.86633 12.9683 7.77833 12.961 7.683 12.961C7.58767 12.961 7.49967 12.9427 7.419 12.906C7.375 12.8913 7.33467 12.8657 7.298 12.829C7.26867 12.785 7.243 12.741 7.221 12.697C7.177 12.6237 7.15133 12.543 7.144 12.455C7.13667 12.367 7.15133 12.2827 7.188 12.202C7.24667 12.092 7.342 12.0077 7.474 11.949C7.606 11.8903 7.74167 11.861 7.881 11.861H8.134C8.25133 11.8757 8.33567 11.8793 8.387 11.872C8.44567 11.8647 8.53367 11.861 8.651 11.861H9.63V11.421C9.63 11.201 9.72533 11.0507 9.916 10.97C10.1067 10.8893 10.312 10.86 10.532 10.882C10.73 10.904 10.8803 10.948 10.983 11.014C11.093 11.0727 11.1517 11.1753 11.159 11.322C11.1663 11.3807 11.17 11.4613 11.17 11.564C11.1773 11.6593 11.181 11.7583 11.181 11.861H12.457C12.5743 11.861 12.71 11.8573 12.864 11.85C13.018 11.8427 13.1647 11.8537 13.304 11.883C13.4507 11.905 13.579 11.9527 13.689 12.026C13.8063 12.092 13.8833 12.202 13.92 12.356C13.964 12.532 13.931 12.6677 13.821 12.763C13.7183 12.851 13.5827 12.917 13.414 12.961C13.2527 12.9977 13.0803 13.0197 12.897 13.027C12.7137 13.027 12.5633 13.027 12.446 13.027C12.3287 13.0197 12.204 13.016 12.072 13.016C11.9473 13.016 11.8263 13.016 11.709 13.016C11.7603 13.0453 11.808 13.0637 11.852 13.071C11.9253 13.1077 11.995 13.1443 12.061 13.181C12.1343 13.2103 12.2077 13.2433 12.281 13.28C12.4203 13.346 12.556 13.4157 12.688 13.489C12.8273 13.555 12.9667 13.6247 13.106 13.698ZM22.4922 19.44C22.6022 19.4473 22.7012 19.473 22.7892 19.517C22.8845 19.5683 22.9505 19.6527 22.9872 19.77C23.0678 20.034 22.9725 20.2173 22.7012 20.32C22.6132 20.3567 22.5215 20.3787 22.4262 20.386C22.3382 20.3933 22.2538 20.397 22.1732 20.397H17.0582C16.9115 20.397 16.7575 20.397 16.5962 20.397C16.4422 20.397 16.2845 20.3933 16.1232 20.386C15.9692 20.3787 15.8408 20.3237 15.7382 20.221C15.6355 20.1183 15.5768 19.9827 15.5622 19.814C15.5475 19.6893 15.5365 19.55 15.5292 19.396C15.5292 19.2493 15.5292 19.1247 15.5292 19.022V18.923C15.5218 18.8423 15.5218 18.747 15.5292 18.637C15.5438 18.527 15.5842 18.4317 15.6502 18.351C15.7455 18.2483 15.8775 18.1823 16.0462 18.153C16.2222 18.1237 16.3908 18.109 16.5522 18.109H16.7832C16.8125 18.109 16.8382 18.1127 16.8602 18.12C16.8895 18.12 16.9152 18.12 16.9372 18.12H21.7222V17.647H16.8272C16.7905 17.647 16.7502 17.647 16.7062 17.647C16.6622 17.6397 16.6218 17.6397 16.5852 17.647H16.3102C16.2368 17.647 16.1708 17.647 16.1122 17.647C16.0535 17.647 15.9948 17.6397 15.9362 17.625C15.8775 17.6103 15.8188 17.5957 15.7602 17.581C15.7088 17.5663 15.6648 17.5297 15.6282 17.471C15.5328 17.3243 15.5072 17.1667 15.5512 16.998C15.5732 16.9393 15.6062 16.8953 15.6502 16.866C15.6942 16.8293 15.7455 16.8 15.8042 16.778C15.8628 16.756 15.9178 16.7413 15.9692 16.734C16.0278 16.7193 16.0792 16.7083 16.1232 16.701C16.1818 16.6937 16.2368 16.69 16.2882 16.69C16.3468 16.6827 16.4092 16.679 16.4752 16.679H16.6622C16.6988 16.679 16.7318 16.6827 16.7612 16.69C16.7905 16.69 16.8235 16.69 16.8602 16.69H21.8322C22.2062 16.69 22.4922 16.7487 22.6902 16.866C22.8882 16.976 22.9872 17.1593 22.9872 17.416V18.274C22.9872 18.3767 22.9652 18.4757 22.9212 18.571C22.8772 18.6663 22.7965 18.7507 22.6792 18.824C22.5765 18.8827 22.4775 18.9157 22.3822 18.923C22.2868 18.923 22.1952 18.923 22.1072 18.923H16.8822V19.44H22.4922ZM19.9732 15.348C19.9732 15.4947 19.9072 15.6303 19.7752 15.755C19.6505 15.8723 19.5185 15.9383 19.3792 15.953C19.1958 15.9823 19.0345 15.9933 18.8952 15.986C18.7558 15.9787 18.5908 15.975 18.4002 15.975C18.0042 15.975 17.6228 15.975 17.2562 15.975C16.8968 15.975 16.5192 15.9677 16.1232 15.953C15.8885 15.9457 15.7125 15.8577 15.5952 15.689C15.4778 15.5203 15.4192 15.3407 15.4192 15.15C15.4192 14.996 15.4155 14.82 15.4082 14.622C15.4082 14.4167 15.4082 14.2077 15.4082 13.995C15.4082 13.7823 15.4082 13.5733 15.4082 13.368C15.4082 13.1627 15.4118 12.983 15.4192 12.829C15.4265 12.6383 15.4265 12.4697 15.4192 12.323C15.4192 12.1763 15.4668 12.0187 15.5622 11.85C15.6135 11.7547 15.6868 11.6777 15.7822 11.619C15.8775 11.5603 15.9765 11.5273 16.0792 11.52C16.1818 11.5053 16.2808 11.5163 16.3762 11.553C16.4715 11.5897 16.5485 11.6557 16.6072 11.751C16.6658 11.8537 16.7062 11.9563 16.7282 12.059C16.7575 12.1617 16.7795 12.268 16.7942 12.378C16.8088 12.488 16.8125 12.5833 16.8052 12.664C16.8052 12.7373 16.8015 12.8363 16.7942 12.961H18.7412V12.356C18.7412 12.2313 18.7595 12.092 18.7962 11.938C18.8328 11.7767 18.9098 11.6593 19.0272 11.586C19.1078 11.5273 19.2178 11.498 19.3572 11.498C19.4965 11.4907 19.6065 11.5163 19.6872 11.575C19.7678 11.6337 19.8265 11.7143 19.8632 11.817C19.8998 11.9197 19.9255 12.0223 19.9402 12.125C19.9622 12.2497 19.9732 12.3743 19.9732 12.499V15.348ZM22.9322 14.666V15.557C22.9322 15.7477 22.8772 15.9163 22.7672 16.063C22.6572 16.2023 22.4885 16.272 22.2612 16.272C22.1365 16.272 22.0338 16.2463 21.9532 16.195C21.8065 16.107 21.7112 16.0007 21.6672 15.876C21.6305 15.744 21.6122 15.6487 21.6122 15.59V12.301C21.6048 12.2717 21.6085 12.191 21.6232 12.059C21.6378 11.927 21.6672 11.817 21.7112 11.729C21.7845 11.575 21.9312 11.487 22.1512 11.465C22.4225 11.4283 22.6242 11.4833 22.7562 11.63C22.8002 11.6887 22.8295 11.7473 22.8442 11.806C22.8662 11.8573 22.8845 11.9123 22.8992 11.971C22.9212 12.037 22.9322 12.1323 22.9322 12.257C22.9395 12.3817 22.9395 12.4807 22.9322 12.554V13.445C22.9615 13.445 23.0165 13.4487 23.0972 13.456C23.1778 13.456 23.2622 13.4597 23.3502 13.467C23.4382 13.467 23.5225 13.4707 23.6032 13.478C23.6838 13.4853 23.7425 13.4927 23.7792 13.5C23.9258 13.5293 24.0285 13.5733 24.0872 13.632C24.1458 13.6833 24.1825 13.7493 24.1972 13.83C24.2192 13.9107 24.2302 14.006 24.2302 14.116C24.2302 14.2187 24.2082 14.3067 24.1642 14.38C24.0762 14.5267 23.9442 14.611 23.7682 14.633C23.5922 14.6477 23.3978 14.6587 23.1852 14.666H22.9322ZM18.7412 14.776C18.7265 14.6587 18.7192 14.5303 18.7192 14.391C18.7192 14.2443 18.7265 14.105 18.7412 13.973H16.7722C16.7575 14.0977 16.7538 14.1967 16.7612 14.27C16.7758 14.336 16.7832 14.4313 16.7832 14.556C16.7905 14.6367 16.7978 14.6917 16.8052 14.721C16.8125 14.7503 16.8565 14.7687 16.9372 14.776C17.0178 14.7833 17.0985 14.787 17.1792 14.787C17.2598 14.7797 17.3405 14.776 17.4212 14.776H18.7412Z" fill="white"/>
</svg>
