<svg width="22" height="31" viewBox="0 0 22 31" fill="none" xmlns="http://www.w3.org/2000/svg">
<path d="M12.9382 29.27C12.0482 30.81 9.8182 30.81 8.9282 29.27L1.4782 16.37C-2.7218 9.08999 2.5282 0 10.9282 0C19.3282 0 24.5882 9.1 20.3782 16.37L12.9382 29.27Z" fill="#FFA366"/>
<circle cx="11" cy="11" r="9" fill="white"/>
<path opacity="0.7" d="M6.822 13.4645L6.8135 12.3255C6.66617 12.3198 6.53017 12.317 6.4055 12.317C6.28083 12.317 6.13633 12.317 5.972 12.317C5.84167 12.317 5.70567 12.3142 5.564 12.3085C5.428 12.2972 5.3005 12.2745 5.1815 12.2405C5.08517 12.2122 4.99733 12.1612 4.918 12.0875C4.84433 12.0138 4.78483 11.9288 4.7395 11.8325C4.71117 11.7702 4.69133 11.6965 4.68 11.6115C4.66867 11.5265 4.66017 11.4443 4.6545 11.365C4.64883 11.28 4.646 11.2092 4.646 11.1525C4.65167 11.0902 4.6545 11.0562 4.6545 11.0505V9.5035C4.6545 9.49217 4.65167 9.45533 4.646 9.393C4.646 9.33067 4.64883 9.25983 4.6545 9.1805C4.66583 9.0955 4.68 9.0105 4.697 8.9255C4.714 8.83483 4.74517 8.7555 4.7905 8.6875C4.86417 8.57417 4.9775 8.5005 5.1305 8.4665C5.2835 8.4325 5.43933 8.4155 5.598 8.4155H9.1595C9.16517 8.4155 9.20767 8.41833 9.287 8.424C9.36633 8.424 9.45417 8.4325 9.5505 8.4495C9.64683 8.4665 9.7375 8.49767 9.8225 8.543C9.91317 8.58833 9.97267 8.65633 10.001 8.747C10.0123 8.781 10.018 8.8235 10.018 8.8745C10.0237 8.91983 10.0265 8.968 10.0265 9.019C10.0265 9.07 10.0208 9.11817 10.0095 9.1635C10.0038 9.20883 9.99533 9.24283 9.984 9.2655C9.93867 9.34483 9.86783 9.39583 9.7715 9.4185C9.6865 9.44117 9.53067 9.4525 9.304 9.4525H6.227C6.09667 9.4525 5.9975 9.47517 5.9295 9.5205C5.86717 9.56583 5.819 9.61967 5.785 9.682C5.75667 9.73867 5.7425 9.79817 5.7425 9.8605C5.7425 9.91717 5.7425 9.95967 5.7425 9.988L5.7765 10.7615C5.78217 10.8182 5.78783 10.8862 5.7935 10.9655C5.80483 11.0448 5.83033 11.1015 5.87 11.1355C5.92667 11.1922 5.9975 11.2233 6.0825 11.229C6.17317 11.229 6.2695 11.229 6.3715 11.229L9.2615 11.2205C9.53917 11.2205 9.7715 11.263 9.9585 11.348C10.0152 11.3763 10.0633 11.4245 10.103 11.4925C10.1427 11.5548 10.1682 11.6172 10.1795 11.6795C10.1965 11.7418 10.1965 11.8042 10.1795 11.8665C10.1682 11.9232 10.1427 11.9742 10.103 12.0195C9.95567 12.2122 9.746 12.3113 9.474 12.317C9.219 12.3283 8.96683 12.3368 8.7175 12.3425C8.47383 12.3425 8.22167 12.3397 7.961 12.334L7.9695 13.4645H10.103C10.1993 13.4758 10.2872 13.4928 10.3665 13.5155C10.4515 13.5382 10.5337 13.5835 10.613 13.6515C10.6923 13.7308 10.732 13.83 10.732 13.949C10.732 14.0113 10.7207 14.0765 10.698 14.1445C10.681 14.2182 10.6555 14.2748 10.6215 14.3145C10.5762 14.3598 10.5195 14.3938 10.4515 14.4165C10.3835 14.4392 10.3183 14.4533 10.256 14.459C10.1937 14.4703 10.137 14.476 10.086 14.476C10.0407 14.476 10.0152 14.476 10.0095 14.476C9.2105 14.476 8.53333 14.476 7.978 14.476C7.42267 14.476 6.96367 14.476 6.601 14.476C6.244 14.476 5.9635 14.4732 5.7595 14.4675C5.56117 14.4675 5.411 14.4675 5.309 14.4675C5.21267 14.4675 5.15317 14.4675 5.1305 14.4675C5.10783 14.4675 5.09083 14.4675 5.0795 14.4675C4.9605 14.4675 4.833 14.4647 4.697 14.459C4.561 14.4533 4.44483 14.4108 4.3485 14.3315C4.2295 14.2238 4.17 14.1077 4.17 13.983C4.17 13.898 4.1955 13.8102 4.2465 13.7195C4.2975 13.6288 4.3655 13.5665 4.4505 13.5325C4.56383 13.4872 4.68 13.4645 4.799 13.4645C4.92367 13.4645 5.04833 13.4617 5.173 13.456L6.822 13.4645ZM14.2809 10.8295C14.3773 10.9428 14.4736 11.0618 14.5699 11.1865C14.6663 11.3112 14.7314 11.4358 14.7654 11.5605C14.7768 11.6172 14.7768 11.6767 14.7654 11.739C14.7541 11.8013 14.7229 11.8552 14.6719 11.9005C14.5869 11.9572 14.4963 11.9855 14.3999 11.9855C14.2923 11.9855 14.1874 11.96 14.0854 11.909C13.9891 11.858 13.9098 11.807 13.8474 11.756C13.7511 11.671 13.6633 11.586 13.5839 11.501C13.5046 11.4103 13.4253 11.3225 13.3459 11.2375C13.2836 11.1695 13.2156 11.1015 13.1419 11.0335C13.0683 10.9655 13.0031 10.8918 12.9464 10.8125L12.1049 11.739C12.0143 11.8353 11.9179 11.9033 11.8159 11.943C11.7139 11.977 11.6176 11.994 11.5269 11.994C11.4986 11.994 11.4561 11.9883 11.3994 11.977C11.2918 11.9487 11.2181 11.8977 11.1784 11.824C11.1444 11.7617 11.1331 11.6908 11.1444 11.6115C11.1558 11.5322 11.1784 11.4613 11.2124 11.399C11.2521 11.331 11.2946 11.2687 11.3399 11.212C11.3909 11.1553 11.4419 11.0958 11.4929 11.0335C11.6403 10.8692 11.7819 10.6992 11.9179 10.5235C12.0596 10.3422 12.2126 10.1665 12.3769 9.9965V9.529C12.3316 9.53467 12.2749 9.5375 12.2069 9.5375C12.1389 9.53183 12.0568 9.529 11.9604 9.529C11.8981 9.529 11.8273 9.53183 11.7479 9.5375C11.6686 9.54317 11.5893 9.54033 11.5099 9.529C11.4363 9.51767 11.3683 9.495 11.3059 9.461C11.2436 9.42133 11.1954 9.359 11.1614 9.274C11.1331 9.21167 11.1161 9.14083 11.1104 9.0615C11.1048 8.98217 11.1104 8.9085 11.1274 8.8405C11.1444 8.76117 11.1869 8.70733 11.2549 8.679C11.3286 8.645 11.3966 8.62233 11.4589 8.611C11.5156 8.59967 11.5666 8.594 11.6119 8.594C11.6289 8.594 11.6459 8.59683 11.6629 8.6025C11.6799 8.6025 11.6969 8.6025 11.7139 8.6025H12.4024C12.4138 8.47217 12.4393 8.35033 12.4789 8.237C12.5243 8.118 12.6093 8.03583 12.7339 7.9905C12.8303 7.9565 12.9181 7.948 12.9974 7.965C13.0824 7.982 13.1561 8.016 13.2184 8.067C13.2808 8.118 13.3318 8.18317 13.3714 8.2625C13.4111 8.34183 13.4366 8.424 13.4479 8.509C13.4536 8.526 13.4564 8.543 13.4564 8.56C13.4621 8.57133 13.4649 8.5855 13.4649 8.6025H13.9494C14.1478 8.6025 14.3064 8.61667 14.4254 8.645C14.5444 8.66767 14.6436 8.73567 14.7229 8.849C14.7456 8.883 14.7626 8.93117 14.7739 8.9935C14.7853 9.05017 14.7853 9.10967 14.7739 9.172C14.7683 9.22867 14.7541 9.2825 14.7314 9.3335C14.7088 9.3845 14.6804 9.42133 14.6464 9.444C14.6011 9.461 14.5501 9.48083 14.4934 9.5035C14.4424 9.5205 14.3943 9.529 14.3489 9.529C14.2809 9.53467 14.2186 9.5375 14.1619 9.5375C14.1109 9.53183 14.0514 9.529 13.9834 9.529C13.8814 9.529 13.8021 9.53183 13.7454 9.5375C13.6888 9.5375 13.6208 9.53467 13.5414 9.529C13.5414 9.60267 13.5414 9.65083 13.5414 9.6735C13.5414 9.6905 13.5414 9.7075 13.5414 9.7245C13.5414 9.7415 13.5414 9.767 13.5414 9.801C13.5414 9.835 13.5414 9.90017 13.5414 9.9965C13.5698 10.0192 13.6066 10.0645 13.6519 10.1325C13.6973 10.2005 13.7426 10.2572 13.7879 10.3025C13.8333 10.3478 13.8814 10.3988 13.9324 10.4555C13.9834 10.5065 14.0373 10.5632 14.0939 10.6255C14.1336 10.6652 14.1676 10.702 14.1959 10.736C14.2243 10.77 14.2526 10.8012 14.2809 10.8295ZM16.3719 12.6485C16.6099 12.6485 16.7828 12.6995 16.8904 12.8015C17.0038 12.9035 17.0604 13.0197 17.0604 13.15V13.6345C17.0604 13.6515 17.0604 13.6855 17.0604 13.7365C17.0604 13.7818 17.0604 13.83 17.0604 13.881C17.0604 13.932 17.0604 13.9802 17.0604 14.0255C17.0661 14.0708 17.0689 14.102 17.0689 14.119C17.0689 14.1813 17.0689 14.2437 17.0689 14.306C17.0689 14.3683 17.0661 14.4307 17.0604 14.493C17.0491 14.612 17.0009 14.7083 16.9159 14.782C16.8366 14.8557 16.7318 14.8925 16.6014 14.8925C16.5731 14.8925 16.5221 14.8897 16.4484 14.884C16.3804 14.884 16.3323 14.8783 16.3039 14.867C16.2246 14.8443 16.1623 14.8103 16.1169 14.765C16.0773 14.7197 16.0461 14.6687 16.0234 14.612C16.0008 14.5553 15.9866 14.493 15.9809 14.425C15.9753 14.3627 15.9696 14.3003 15.9639 14.238C15.9639 14.2153 15.9639 14.1757 15.9639 14.119C15.9639 14.0623 15.9611 14.0057 15.9554 13.949C15.9554 13.8867 15.9526 13.83 15.9469 13.779C15.9413 13.7223 15.9356 13.6827 15.9299 13.66C15.9129 13.6543 15.8676 13.6487 15.7939 13.643C15.7203 13.6373 15.5758 13.6345 15.3604 13.6345C15.1791 13.6345 15.0658 13.6373 15.0204 13.643C14.9808 13.643 14.9581 13.643 14.9524 13.643H11.8839C11.8783 13.643 11.8556 13.6373 11.8159 13.626C11.7819 13.6147 11.7423 13.5977 11.6969 13.575C11.6516 13.5467 11.6091 13.5127 11.5694 13.473C11.5298 13.4333 11.5071 13.3852 11.5014 13.3285C11.4674 13.1075 11.5014 12.9375 11.6034 12.8185C11.6714 12.7392 11.7451 12.6938 11.8244 12.6825C11.9038 12.6655 11.9463 12.6542 11.9519 12.6485H16.3719ZM17.0519 10.736V11.5095C17.0463 11.5718 17.0378 11.637 17.0264 11.705C17.0151 11.7673 16.9924 11.8297 16.9584 11.892C16.9244 11.96 16.8763 12.0167 16.8139 12.062C16.7346 12.1187 16.6411 12.147 16.5334 12.147C16.4371 12.147 16.3578 12.1272 16.2954 12.0875C16.2388 12.0535 16.1934 12.011 16.1594 11.96C16.1254 11.909 16.0971 11.8608 16.0744 11.8155C16.0574 11.7645 16.0461 11.722 16.0404 11.688C16.0348 11.6483 16.0319 11.6285 16.0319 11.6285V8.8235C16.0263 8.80083 16.0291 8.7385 16.0404 8.6365C16.0518 8.5345 16.0744 8.4495 16.1084 8.3815C16.1651 8.2625 16.2784 8.1945 16.4484 8.1775C16.6581 8.14917 16.8139 8.19167 16.9159 8.305C16.9499 8.35033 16.9726 8.39567 16.9839 8.441C17.0009 8.48067 17.0151 8.52317 17.0264 8.5685C17.0434 8.62517 17.0519 8.68467 17.0519 8.747C17.0576 8.80933 17.0576 8.87167 17.0519 8.934V9.5205V9.597C17.0519 9.62533 17.0491 9.6565 17.0434 9.6905C17.0434 9.71883 17.0463 9.75283 17.0519 9.7925C17.0746 9.7925 17.1171 9.79533 17.1794 9.801C17.2418 9.801 17.3069 9.80383 17.3749 9.8095C17.4429 9.8095 17.5081 9.81233 17.5704 9.818C17.6328 9.82367 17.6781 9.82933 17.7064 9.835C17.8198 9.85767 17.8991 9.89167 17.9444 9.937C17.9898 9.97667 18.0181 10.0277 18.0294 10.09C18.0464 10.1523 18.0549 10.226 18.0549 10.311C18.0549 10.3903 18.0379 10.4583 18.0039 10.515C17.9359 10.6283 17.8339 10.6935 17.6979 10.7105C17.5619 10.7218 17.4118 10.7303 17.2474 10.736H17.0519Z" fill="black"/>
</svg>
