<svg width="22" height="31" viewBox="0 0 22 31" fill="none" xmlns="http://www.w3.org/2000/svg">
<path d="M12.9382 29.27C12.0482 30.81 9.8182 30.81 8.9282 29.27L1.4782 16.37C-2.7218 9.08999 2.5282 0 10.9282 0C19.3282 0 24.5882 9.09999 20.3782 16.37L12.9382 29.27Z" fill="#FFD167"/>
<path d="M15.3929 9.39286H12.6072V6.60714C12.6072 5.75 11.8572 5 11 5C10.1429 5 9.39287 5.75 9.39287 6.60714V9.39286H6.60715C5.75 9.39286 5 10.1429 5 11C5 11.8572 5.75 12.6072 6.60715 12.6072H9.39287V15.3929C9.39287 16.25 10.1429 17 11 17C11.8572 17 12.6072 16.25 12.6072 15.3929V12.6072H15.3929C16.25 12.6072 17 11.8572 17 11C17 10.1429 16.25 9.39286 15.3929 9.39286Z" fill="white"/>
</svg>
