<svg width="22" height="31" viewBox="0 0 22 31" fill="none" xmlns="http://www.w3.org/2000/svg">
<path d="M12.9382 29.27C12.0482 30.81 9.8182 30.81 8.9282 29.27L1.4782 16.37C-2.7218 9.08999 2.5282 0 10.9282 0C19.3282 0 24.5882 9.09999 20.3782 16.37L12.9382 29.27Z" fill="#6DAD9C"/>
<circle cx="11" cy="11" r="9" fill="white"/>
<path d="M15.1955 9.0545C15.2699 9.0545 15.3567 9.0545 15.456 9.0545C15.5552 9.0545 15.642 9.06689 15.7288 9.07929C15.8156 9.09169 15.9024 9.1165 15.9769 9.14131C16.0513 9.16611 16.1009 9.21573 16.1381 9.26534C16.2125 9.40176 16.2373 9.51337 16.2125 9.625C16.1877 9.72421 16.1257 9.81103 16.0389 9.86064C15.9521 9.92266 15.8404 9.97227 15.7164 9.99707C15.5924 10.0219 15.4808 10.0343 15.3815 10.0219C15.1707 10.0095 14.9475 10.0095 14.7118 10.0219C14.4762 10.0343 14.2529 10.0343 14.0421 10.0467C13.9677 10.0467 13.8933 10.0467 13.8189 10.0467C13.7444 10.0467 13.67 10.0467 13.5956 10.0343C13.5212 10.0219 13.4592 9.99707 13.3972 9.95986C13.3352 9.92266 13.2731 9.87305 13.2359 9.78623C13.1739 9.68701 13.1615 9.58779 13.1987 9.48857C13.2359 9.38935 13.2731 9.29014 13.3228 9.20332C13.3972 9.0793 13.484 8.95527 13.5832 8.83125C13.6824 8.70722 13.7692 8.608 13.8437 8.52119L14.7986 7.26856L14.0297 7.29337C13.9677 7.29337 13.9057 7.29337 13.8313 7.29337C13.7568 7.29337 13.6948 7.28096 13.6204 7.26856C13.546 7.25616 13.484 7.24374 13.422 7.21894C13.36 7.19413 13.3104 7.16934 13.2607 7.13213C13.2111 7.08252 13.1863 7.03291 13.1615 6.9709C13.1367 6.90888 13.1367 6.84688 13.1367 6.78487C13.1367 6.72286 13.1491 6.66085 13.1739 6.61124C13.1987 6.54922 13.2235 6.49961 13.2731 6.45C13.2979 6.42519 13.3476 6.38799 13.3972 6.37559C13.4468 6.35078 13.4964 6.33837 13.5584 6.32597C13.6204 6.31357 13.6824 6.31358 13.7444 6.30118C13.8065 6.30118 13.8685 6.30118 13.9181 6.30118C14.0297 6.30118 14.1537 6.30118 14.2901 6.30118C14.4266 6.30118 14.563 6.30118 14.687 6.30118C14.811 6.30118 14.9351 6.30117 15.0591 6.28876C15.1707 6.28876 15.2699 6.28876 15.3443 6.28876C15.4312 6.28876 15.5304 6.28877 15.6172 6.27637C15.704 6.27637 15.7908 6.27637 15.8776 6.30118C15.9645 6.32598 16.0265 6.36318 16.0885 6.41279C16.1505 6.4624 16.1877 6.54923 16.2001 6.67325C16.2125 6.74767 16.2125 6.82207 16.1877 6.89648C16.1753 6.9709 16.1381 7.04531 16.1009 7.10732C16.0637 7.18174 16.0141 7.24375 15.9645 7.31816C15.9149 7.39257 15.8652 7.45459 15.8156 7.5166L14.625 9.04208H15.1955V9.0545Z" fill="#6DAD9C"/>
<path d="M11.7717 10.4311C11.8213 10.4311 11.8709 10.4311 11.9329 10.4311C11.9949 10.4311 12.0569 10.4435 12.1065 10.4435C12.1686 10.4559 12.2182 10.4683 12.2678 10.4807C12.3174 10.5055 12.3422 10.5303 12.367 10.5551C12.4166 10.6419 12.429 10.7163 12.4166 10.7783C12.4042 10.8403 12.367 10.89 12.305 10.9272C12.243 10.9644 12.181 11.0016 12.1065 11.014C12.0321 11.0264 11.9577 11.0388 11.8957 11.0264C11.7593 11.014 11.6229 11.014 11.474 11.0264C11.3252 11.0264 11.1888 11.0388 11.0523 11.0388C11.0027 11.0388 10.9531 11.0388 10.9035 11.0388C10.8539 11.0388 10.8043 11.0388 10.7547 11.0264C10.7051 11.014 10.6679 11.0016 10.6307 10.9768C10.5935 10.952 10.5562 10.9148 10.5314 10.8651C10.4942 10.8031 10.4818 10.7411 10.5066 10.6791C10.5314 10.6171 10.5562 10.5551 10.5811 10.5055C10.6307 10.4187 10.6803 10.3442 10.7423 10.2698C10.8043 10.1954 10.8539 10.121 10.9035 10.0714L11.5112 9.27764L11.0151 9.29004C10.9779 9.29004 10.9407 9.29004 10.8911 9.29004C10.8415 9.29004 10.8043 9.29005 10.7547 9.27764C10.7051 9.26524 10.6679 9.26524 10.6307 9.24044C10.5935 9.22804 10.5562 9.20323 10.5314 9.17842C10.5066 9.15362 10.4818 9.11641 10.4694 9.0792C10.457 9.04199 10.457 9.00479 10.457 8.96758C10.457 8.93038 10.4694 8.89318 10.4818 8.85597C10.4942 8.81876 10.519 8.78155 10.5438 8.75675C10.5687 8.73194 10.5935 8.71955 10.6183 8.70715C10.6431 8.69474 10.6803 8.68234 10.7175 8.68234C10.7547 8.66993 10.7919 8.66992 10.8415 8.66992C10.8787 8.66992 10.9159 8.66992 10.9531 8.66992C11.0275 8.66992 11.1019 8.66992 11.1888 8.66992C11.2756 8.66992 11.3624 8.66992 11.4492 8.66992C11.536 8.66992 11.6104 8.66992 11.6849 8.66992C11.7593 8.66992 11.8213 8.66992 11.8585 8.66992C11.9205 8.66992 11.9701 8.66992 12.0321 8.66992C12.0941 8.66992 12.1438 8.66993 12.1934 8.68234C12.243 8.69474 12.2926 8.71954 12.3298 8.75675C12.367 8.79395 12.3918 8.84357 12.4042 8.91798C12.4166 8.96759 12.4042 9.0172 12.3918 9.06681C12.3794 9.11642 12.367 9.15362 12.3422 9.20323C12.3174 9.25284 12.2926 9.29005 12.2554 9.33966C12.2182 9.38927 12.1934 9.42648 12.1562 9.46369L11.3996 10.4311H11.7717Z" fill="#6DAD9C"/>
<path d="M8.74544 11.5352C8.23695 9.78644 8.70824 7.98808 9.81205 6.69824C10.0601 6.41299 9.81204 5.9541 9.42757 6.00371C9.00589 6.05332 8.59661 6.16494 8.17493 6.32617C5.75647 7.28115 4.40462 9.97246 5.07434 12.4777C5.83088 15.2931 8.73304 16.9178 11.5112 16.124C11.7716 16.0496 12.0197 15.9504 12.2677 15.8388C12.615 15.6775 12.5902 15.1567 12.2181 15.045C10.6058 14.5613 9.25394 13.2839 8.74544 11.5352Z" fill="#6DAD9C" stroke="white" stroke-width="0.5" stroke-miterlimit="10"/>
</svg>
