<svg width="22" height="31" viewBox="0 0 22 31" fill="none" xmlns="http://www.w3.org/2000/svg">
<path d="M12.9382 29.27C12.0482 30.81 9.8182 30.81 8.9282 29.27L1.4782 16.37C-2.7218 9.08999 2.5282 0 10.9282 0C19.3282 0 24.5882 9.09999 20.3782 16.37L12.9382 29.27Z" fill="#9AD48D"/>
<circle cx="11" cy="11" r="9" fill="white"/>
<path opacity="0.7" d="M9.933 13.306C10.0237 13.3173 10.103 13.34 10.171 13.374C10.239 13.408 10.2872 13.4703 10.3155 13.561C10.3835 13.765 10.3098 13.9095 10.0945 13.9945C10.0265 14.0228 9.9585 14.0398 9.8905 14.0455C9.8225 14.0512 9.75733 14.054 9.695 14.054H5.7425C5.62917 14.054 5.51017 14.0512 5.3855 14.0455C5.2665 14.0455 5.14467 14.0427 5.02 14.037C4.901 14.0313 4.80183 13.9888 4.7225 13.9095C4.64317 13.8302 4.59783 13.7253 4.5865 13.595L4.561 13C4.55533 12.9377 4.55533 12.864 4.561 12.779C4.56667 12.694 4.595 12.6232 4.646 12.5665C4.72533 12.4815 4.83017 12.4277 4.9605 12.405C5.0965 12.3823 5.22683 12.371 5.3515 12.371C5.43083 12.371 5.56117 12.371 5.7425 12.371C5.9295 12.371 6.18167 12.3738 6.499 12.3795C6.81633 12.3795 7.20733 12.3795 7.672 12.3795C8.14233 12.3795 8.7005 12.3795 9.3465 12.3795V12.0735H5.1645C5.10783 12.0735 5.05683 12.0735 5.0115 12.0735C4.96617 12.0735 4.92083 12.0678 4.8755 12.0565C4.8245 12.0452 4.77917 12.0338 4.7395 12.0225C4.69983 12.0112 4.66583 11.9828 4.6375 11.9375C4.55817 11.8185 4.53833 11.6967 4.578 11.572C4.595 11.5267 4.6205 11.4927 4.6545 11.47C4.6885 11.4417 4.72817 11.419 4.7735 11.402C4.81883 11.385 4.86133 11.3737 4.901 11.368C4.94633 11.3623 4.986 11.3567 5.02 11.351C5.105 11.334 5.19283 11.3255 5.2835 11.3255C5.36283 11.3255 5.44783 11.3255 5.5385 11.3255C5.63483 11.3255 5.74817 11.3283 5.8785 11.334C6.00883 11.334 6.159 11.334 6.329 11.334C6.50467 11.334 6.70867 11.334 6.941 11.334C6.94667 11.2717 6.9495 11.2122 6.9495 11.1555C6.95517 11.0932 6.958 11.0308 6.958 10.9685C6.924 10.9685 6.8475 10.9685 6.7285 10.9685C6.6095 10.9628 6.47067 10.96 6.312 10.96C6.159 10.96 5.99183 10.96 5.8105 10.96C5.63483 10.9543 5.46767 10.9515 5.309 10.9515C5.156 10.9458 5.02283 10.9402 4.9095 10.9345C4.79617 10.9288 4.7225 10.9232 4.6885 10.9175C4.59783 10.9062 4.52417 10.9005 4.4675 10.9005C4.4165 10.9005 4.35417 10.8665 4.2805 10.7985C4.20683 10.7305 4.17 10.6427 4.17 10.535C4.17 10.416 4.20683 10.3197 4.2805 10.246C4.32017 10.2007 4.374 10.1695 4.442 10.1525C4.51 10.1298 4.57517 10.1157 4.6375 10.11C4.69983 10.0987 4.75367 10.0958 4.799 10.1015C4.85 10.1015 4.87833 10.1015 4.884 10.1015H9.746C9.831 10.1015 9.916 10.1015 10.001 10.1015C10.086 10.1015 10.1682 10.1043 10.2475 10.11C10.3268 10.1157 10.4033 10.1242 10.477 10.1355C10.5563 10.1412 10.6272 10.1723 10.6895 10.229C10.7518 10.2743 10.7858 10.3253 10.7915 10.382C10.8028 10.4387 10.8085 10.501 10.8085 10.569C10.8085 10.654 10.783 10.722 10.732 10.773C10.6867 10.824 10.6215 10.8637 10.5365 10.892C10.4232 10.9373 10.2957 10.9572 10.154 10.9515C10.018 10.9458 9.89333 10.9458 9.78 10.9515C9.49667 10.9628 9.22183 10.9685 8.9555 10.9685C8.69483 10.9685 8.42 10.9685 8.131 10.9685C8.131 11.0308 8.131 11.0932 8.131 11.1555C8.131 11.2122 8.12817 11.2717 8.1225 11.334H9.4315C9.7205 11.334 9.9415 11.3793 10.0945 11.47C10.2475 11.555 10.324 11.6967 10.324 11.895V12.4985C10.324 12.5778 10.3042 12.6572 10.2645 12.7365C10.2305 12.8102 10.1682 12.8725 10.0775 12.9235C10.0038 12.9688 9.93017 12.9943 9.8565 13C9.78283 13 9.70917 13 9.6355 13H5.6065V13.306H9.933ZM9.491 8.903C9.59867 8.954 9.70067 9.01067 9.797 9.073C9.899 9.13533 9.99533 9.19767 10.086 9.26C10.1313 9.29967 10.1568 9.35067 10.1625 9.413C10.1738 9.47533 10.1653 9.53767 10.137 9.6C10.1143 9.65667 10.0775 9.70767 10.0265 9.753C9.9755 9.79833 9.916 9.8295 9.848 9.8465C9.66667 9.87483 9.49667 9.87483 9.338 9.8465C9.185 9.8125 9.02633 9.75867 8.862 9.685C8.709 9.617 8.56167 9.55183 8.42 9.4895C8.284 9.42717 8.15083 9.35917 8.0205 9.2855C7.98083 9.26283 7.927 9.2345 7.859 9.2005C7.79667 9.1665 7.73433 9.13533 7.672 9.107C7.59833 9.073 7.519 9.03617 7.434 8.9965C7.33767 9.04183 7.24417 9.08433 7.1535 9.124C7.07417 9.158 6.99483 9.19483 6.9155 9.2345C6.84183 9.2685 6.78233 9.29683 6.737 9.3195C6.58967 9.39883 6.45367 9.46683 6.329 9.5235C6.20433 9.5745 6.06833 9.634 5.921 9.702C5.80767 9.74733 5.6915 9.79833 5.5725 9.855C5.45917 9.906 5.33733 9.9315 5.207 9.9315C5.105 9.92583 5.00583 9.90033 4.9095 9.855C4.81317 9.804 4.75367 9.72467 4.731 9.617C4.72533 9.56033 4.731 9.49517 4.748 9.4215C4.77067 9.34217 4.8075 9.277 4.8585 9.226C4.91517 9.175 4.98317 9.124 5.0625 9.073L5.649 8.784C5.74533 8.73867 5.83033 8.699 5.904 8.665C5.97767 8.631 6.0655 8.59133 6.1675 8.546C6.21283 8.51767 6.26383 8.48933 6.3205 8.461C6.37717 8.427 6.43667 8.39583 6.499 8.3675H5.9635C5.87283 8.3675 5.7935 8.3675 5.7255 8.3675C5.66317 8.3675 5.5895 8.36183 5.5045 8.3505C5.44217 8.33917 5.37417 8.3335 5.3005 8.3335C5.22683 8.3335 5.15883 8.31933 5.0965 8.291C5.0625 8.27967 5.03133 8.25983 5.003 8.2315C4.98033 8.1975 4.9605 8.1635 4.9435 8.1295C4.9095 8.07283 4.88967 8.0105 4.884 7.9425C4.87833 7.8745 4.88967 7.80933 4.918 7.747C4.96333 7.662 5.037 7.59683 5.139 7.5515C5.241 7.50617 5.34583 7.4835 5.4535 7.4835H5.649C5.73967 7.49483 5.80483 7.49767 5.8445 7.492C5.88983 7.48633 5.95783 7.4835 6.0485 7.4835H6.805V7.1435C6.805 6.9735 6.87867 6.85733 7.026 6.795C7.17333 6.73267 7.332 6.71 7.502 6.727C7.655 6.744 7.77117 6.778 7.8505 6.829C7.9355 6.87433 7.98083 6.95367 7.9865 7.067C7.99217 7.11233 7.995 7.17467 7.995 7.254C8.00067 7.32767 8.0035 7.40417 8.0035 7.4835H8.9895C9.08017 7.4835 9.185 7.48067 9.304 7.475C9.423 7.46933 9.53633 7.47783 9.644 7.5005C9.75733 7.5175 9.8565 7.55433 9.9415 7.611C10.0322 7.662 10.0917 7.747 10.12 7.866C10.154 8.002 10.1285 8.10683 10.0435 8.1805C9.96417 8.2485 9.85933 8.2995 9.729 8.3335C9.60433 8.36183 9.47117 8.37883 9.3295 8.3845C9.18783 8.3845 9.07167 8.3845 8.981 8.3845C8.89033 8.37883 8.794 8.376 8.692 8.376C8.59567 8.376 8.50217 8.376 8.4115 8.376C8.45117 8.39867 8.488 8.41283 8.522 8.4185C8.57867 8.44683 8.6325 8.47517 8.6835 8.5035C8.74017 8.52617 8.79683 8.55167 8.8535 8.58C8.96117 8.631 9.066 8.68483 9.168 8.7415C9.27567 8.7925 9.38333 8.84633 9.491 8.903ZM16.744 13.34C16.829 13.3457 16.9055 13.3655 16.9735 13.3995C17.0471 13.4392 17.0981 13.5043 17.1265 13.595C17.1888 13.799 17.1151 13.9407 16.9055 14.02C16.8375 14.0483 16.7666 14.0653 16.693 14.071C16.625 14.0767 16.5598 14.0795 16.4975 14.0795H12.545C12.4316 14.0795 12.3126 14.0795 12.188 14.0795C12.069 14.0795 11.9471 14.0767 11.8225 14.071C11.7035 14.0653 11.6043 14.0228 11.525 13.9435C11.4456 13.8642 11.4003 13.7593 11.389 13.629C11.3776 13.5327 11.3691 13.425 11.3635 13.306C11.3635 13.1927 11.3635 13.0963 11.3635 13.017V12.9405C11.3578 12.8782 11.3578 12.8045 11.3635 12.7195C11.3748 12.6345 11.406 12.5608 11.457 12.4985C11.5306 12.4192 11.6326 12.3682 11.763 12.3455C11.899 12.3228 12.0293 12.3115 12.154 12.3115H12.3325C12.3551 12.3115 12.375 12.3143 12.392 12.32C12.4146 12.32 12.4345 12.32 12.4515 12.32H16.149V11.9545H12.3665C12.3381 11.9545 12.307 11.9545 12.273 11.9545C12.239 11.9488 12.2078 11.9488 12.1795 11.9545H11.967C11.9103 11.9545 11.8593 11.9545 11.814 11.9545C11.7686 11.9545 11.7233 11.9488 11.678 11.9375C11.6326 11.9262 11.5873 11.9148 11.542 11.9035C11.5023 11.8922 11.4683 11.8638 11.44 11.8185C11.3663 11.7052 11.3465 11.5833 11.3805 11.453C11.3975 11.4077 11.423 11.3737 11.457 11.351C11.491 11.3227 11.5306 11.3 11.576 11.283C11.6213 11.266 11.6638 11.2547 11.7035 11.249C11.7488 11.2377 11.7885 11.2292 11.8225 11.2235C11.8678 11.2178 11.9103 11.215 11.95 11.215C11.9953 11.2093 12.0435 11.2065 12.0945 11.2065H12.239C12.2673 11.2065 12.2928 11.2093 12.3155 11.215C12.3381 11.215 12.3636 11.215 12.392 11.215H16.234C16.523 11.215 16.744 11.2603 16.897 11.351C17.05 11.436 17.1265 11.5777 17.1265 11.776V12.439C17.1265 12.5183 17.1095 12.5948 17.0755 12.6685C17.0415 12.7422 16.9791 12.8073 16.8885 12.864C16.8091 12.9093 16.7326 12.9348 16.659 12.9405C16.5853 12.9405 16.5145 12.9405 16.4465 12.9405H12.409V13.34H16.744ZM14.7975 10.178C14.7975 10.2913 14.7465 10.3962 14.6445 10.4925C14.5481 10.5832 14.4461 10.6342 14.3385 10.6455C14.1968 10.6682 14.0721 10.6767 13.9645 10.671C13.8568 10.6653 13.7293 10.6625 13.582 10.6625C13.276 10.6625 12.9813 10.6625 12.698 10.6625C12.4203 10.6625 12.1285 10.6568 11.8225 10.6455C11.6411 10.6398 11.5051 10.5718 11.4145 10.4415C11.3238 10.3112 11.2785 10.1723 11.2785 10.025C11.2785 9.906 11.2756 9.77 11.27 9.617C11.27 9.45833 11.27 9.29683 11.27 9.1325C11.27 8.96817 11.27 8.80667 11.27 8.648C11.27 8.48933 11.2728 8.3505 11.2785 8.2315C11.2841 8.08417 11.2841 7.95383 11.2785 7.8405C11.2785 7.72717 11.3153 7.60533 11.389 7.475C11.4286 7.40133 11.4853 7.34183 11.559 7.2965C11.6326 7.25117 11.7091 7.22567 11.7885 7.22C11.8678 7.20867 11.9443 7.21717 12.018 7.2455C12.0916 7.27383 12.1511 7.32483 12.1965 7.3985C12.2418 7.47783 12.273 7.55717 12.29 7.6365C12.3126 7.71583 12.3296 7.798 12.341 7.883C12.3523 7.968 12.3551 8.04167 12.3495 8.104C12.3495 8.16067 12.3466 8.23717 12.341 8.3335H13.8455V7.866C13.8455 7.76967 13.8596 7.662 13.888 7.543C13.9163 7.41833 13.9758 7.32767 14.0665 7.271C14.1288 7.22567 14.2138 7.203 14.3215 7.203C14.4291 7.19733 14.5141 7.21717 14.5765 7.2625C14.6388 7.30783 14.6841 7.37017 14.7125 7.4495C14.7408 7.52883 14.7606 7.60817 14.772 7.6875C14.789 7.78383 14.7975 7.88017 14.7975 7.9765V10.178ZM17.084 9.651V10.3395C17.084 10.4868 17.0415 10.6172 16.9565 10.7305C16.8715 10.8382 16.7411 10.892 16.5655 10.892C16.4691 10.892 16.3898 10.8722 16.3275 10.8325C16.2141 10.7645 16.1405 10.6823 16.1065 10.586C16.0781 10.484 16.064 10.4103 16.064 10.365V7.8235C16.0583 7.80083 16.0611 7.7385 16.0725 7.6365C16.0838 7.5345 16.1065 7.4495 16.1405 7.3815C16.1971 7.2625 16.3105 7.1945 16.4805 7.1775C16.6901 7.14917 16.846 7.19167 16.948 7.305C16.982 7.35033 17.0046 7.39567 17.016 7.441C17.033 7.48067 17.0471 7.52317 17.0585 7.5685C17.0755 7.6195 17.084 7.69317 17.084 7.7895C17.0896 7.88583 17.0896 7.96233 17.084 8.019V8.7075C17.1066 8.7075 17.1491 8.71033 17.2115 8.716C17.2738 8.716 17.339 8.71883 17.407 8.7245C17.475 8.7245 17.5401 8.72733 17.6025 8.733C17.6648 8.73867 17.7101 8.74433 17.7385 8.75C17.8518 8.77267 17.9311 8.80667 17.9765 8.852C18.0218 8.89167 18.0501 8.94267 18.0615 9.005C18.0785 9.06733 18.087 9.141 18.087 9.226C18.087 9.30533 18.07 9.37333 18.036 9.43C17.968 9.54333 17.866 9.6085 17.73 9.6255C17.594 9.63683 17.4438 9.64533 17.2795 9.651H17.084ZM13.8455 9.736C13.8341 9.64533 13.8285 9.54617 13.8285 9.4385C13.8285 9.32517 13.8341 9.2175 13.8455 9.1155H12.324C12.3126 9.21183 12.3098 9.28833 12.3155 9.345C12.3268 9.396 12.3325 9.46967 12.3325 9.566C12.3381 9.62833 12.3438 9.67083 12.3495 9.6935C12.3551 9.71617 12.3891 9.73033 12.4515 9.736C12.5138 9.74167 12.5761 9.7445 12.6385 9.7445C12.7008 9.73883 12.7631 9.736 12.8255 9.736H13.8455Z" fill="black"/>
</svg>
