<svg width="22" height="31" viewBox="0 0 22 31" fill="none" xmlns="http://www.w3.org/2000/svg">
<path d="M12.9382 29.27C12.0482 30.81 9.8182 30.81 8.9282 29.27L1.4782 16.37C-2.7218 9.08999 2.5282 0 10.9282 0C19.3282 0 24.5882 9.09999 20.3782 16.37L12.9382 29.27Z" fill="#FFEB86"/>
<circle cx="11" cy="11" r="9" fill="white"/>
<path opacity="0.7" d="M8.66 14.685L8.655 14.015C8.56833 14.0117 8.48833 14.01 8.415 14.01C8.34167 14.01 8.25667 14.01 8.16 14.01C8.08333 14.01 8.00333 14.0083 7.92 14.005C7.84 13.9983 7.765 13.985 7.695 13.965C7.63833 13.9483 7.58667 13.9183 7.54 13.875C7.49667 13.8317 7.46167 13.7817 7.435 13.725C7.41833 13.6883 7.40667 13.645 7.4 13.595C7.39333 13.545 7.38833 13.4967 7.385 13.45C7.38167 13.4 7.38 13.3583 7.38 13.325C7.38333 13.2883 7.385 13.2683 7.385 13.265V12.355C7.385 12.3483 7.38333 12.3267 7.38 12.29C7.38 12.2533 7.38167 12.2117 7.385 12.165C7.39167 12.115 7.4 12.065 7.41 12.015C7.42 11.9617 7.43833 11.915 7.465 11.875C7.50833 11.8083 7.575 11.765 7.665 11.745C7.755 11.725 7.84667 11.715 7.94 11.715H10.035C10.0383 11.715 10.0633 11.7167 10.11 11.72C10.1567 11.72 10.2083 11.725 10.265 11.735C10.3217 11.745 10.375 11.7633 10.425 11.79C10.4783 11.8167 10.5133 11.8567 10.53 11.91C10.5367 11.93 10.54 11.955 10.54 11.985C10.5433 12.0117 10.545 12.04 10.545 12.07C10.545 12.1 10.5417 12.1283 10.535 12.155C10.5317 12.1817 10.5267 12.2017 10.52 12.215C10.4933 12.2617 10.4517 12.2917 10.395 12.305C10.345 12.3183 10.2533 12.325 10.12 12.325H8.31C8.23333 12.325 8.175 12.3383 8.135 12.365C8.09833 12.3917 8.07 12.4233 8.05 12.46C8.03333 12.4933 8.025 12.5283 8.025 12.565C8.025 12.5983 8.025 12.6233 8.025 12.64L8.045 13.095C8.04833 13.1283 8.05167 13.1683 8.055 13.215C8.06167 13.2617 8.07667 13.295 8.1 13.315C8.13333 13.3483 8.175 13.3667 8.225 13.37C8.27833 13.37 8.335 13.37 8.395 13.37L10.095 13.365C10.2583 13.365 10.395 13.39 10.505 13.44C10.5383 13.4567 10.5667 13.485 10.59 13.525C10.6133 13.5617 10.6283 13.5983 10.635 13.635C10.645 13.6717 10.645 13.7083 10.635 13.745C10.6283 13.7783 10.6133 13.8083 10.59 13.835C10.5033 13.9483 10.38 14.0067 10.22 14.01C10.07 14.0167 9.92167 14.0217 9.775 14.025C9.63167 14.025 9.48333 14.0233 9.33 14.02L9.335 14.685H10.59C10.6467 14.6917 10.6983 14.7017 10.745 14.715C10.795 14.7283 10.8433 14.755 10.89 14.795C10.9367 14.8417 10.96 14.9 10.96 14.97C10.96 15.0067 10.9533 15.045 10.94 15.085C10.93 15.1283 10.915 15.1617 10.895 15.185C10.8683 15.2117 10.835 15.2317 10.795 15.245C10.755 15.2583 10.7167 15.2667 10.68 15.27C10.6433 15.2767 10.61 15.28 10.58 15.28C10.5533 15.28 10.5383 15.28 10.535 15.28C10.065 15.28 9.66667 15.28 9.34 15.28C9.01333 15.28 8.74333 15.28 8.53 15.28C8.32 15.28 8.155 15.2783 8.035 15.275C7.91833 15.275 7.83 15.275 7.77 15.275C7.71333 15.275 7.67833 15.275 7.665 15.275C7.65167 15.275 7.64167 15.275 7.635 15.275C7.565 15.275 7.49 15.2733 7.41 15.27C7.33 15.2667 7.26167 15.2417 7.205 15.195C7.135 15.1317 7.1 15.0633 7.1 14.99C7.1 14.94 7.115 14.8883 7.145 14.835C7.175 14.7817 7.215 14.745 7.265 14.725C7.33167 14.6983 7.4 14.685 7.47 14.685C7.54333 14.685 7.61667 14.6833 7.69 14.68L8.66 14.685ZM13.0476 13.135C13.1043 13.2017 13.161 13.2717 13.2176 13.345C13.2743 13.4183 13.3126 13.4917 13.3326 13.565C13.3393 13.5983 13.3393 13.6333 13.3326 13.67C13.326 13.7067 13.3076 13.7383 13.2776 13.765C13.2276 13.7983 13.1743 13.815 13.1176 13.815C13.0543 13.815 12.9926 13.8 12.9326 13.77C12.876 13.74 12.8293 13.71 12.7926 13.68C12.736 13.63 12.6843 13.58 12.6376 13.53C12.591 13.4767 12.5443 13.425 12.4976 13.375C12.461 13.335 12.421 13.295 12.3776 13.255C12.3343 13.215 12.296 13.1717 12.2626 13.125L11.7676 13.67C11.7143 13.7267 11.6576 13.7667 11.5976 13.79C11.5376 13.81 11.481 13.82 11.4276 13.82C11.411 13.82 11.386 13.8167 11.3526 13.81C11.2893 13.7933 11.246 13.7633 11.2226 13.72C11.2026 13.6833 11.196 13.6417 11.2026 13.595C11.2093 13.5483 11.2226 13.5067 11.2426 13.47C11.266 13.43 11.291 13.3933 11.3176 13.36C11.3476 13.3267 11.3776 13.2917 11.4076 13.255C11.4943 13.1583 11.5776 13.0583 11.6576 12.955C11.741 12.8483 11.831 12.745 11.9276 12.645V12.37C11.901 12.3733 11.8676 12.375 11.8276 12.375C11.7876 12.3717 11.7393 12.37 11.6826 12.37C11.646 12.37 11.6043 12.3717 11.5576 12.375C11.511 12.3783 11.4643 12.3767 11.4176 12.37C11.3743 12.3633 11.3343 12.35 11.2976 12.33C11.261 12.3067 11.2326 12.27 11.2126 12.22C11.196 12.1833 11.186 12.1417 11.1826 12.095C11.1793 12.0483 11.1826 12.005 11.1926 11.965C11.2026 11.9183 11.2276 11.8867 11.2676 11.87C11.311 11.85 11.351 11.8367 11.3876 11.83C11.421 11.8233 11.451 11.82 11.4776 11.82C11.4876 11.82 11.4976 11.8217 11.5076 11.825C11.5176 11.825 11.5276 11.825 11.5376 11.825H11.9426C11.9493 11.7483 11.9643 11.6767 11.9876 11.61C12.0143 11.54 12.0643 11.4917 12.1376 11.465C12.1943 11.445 12.246 11.44 12.2926 11.45C12.3426 11.46 12.386 11.48 12.4226 11.51C12.4593 11.54 12.4893 11.5783 12.5126 11.625C12.536 11.6717 12.551 11.72 12.5576 11.77C12.561 11.78 12.5626 11.79 12.5626 11.8C12.566 11.8067 12.5676 11.815 12.5676 11.825H12.8526C12.9693 11.825 13.0626 11.8333 13.1326 11.85C13.2026 11.8633 13.261 11.9033 13.3076 11.97C13.321 11.99 13.331 12.0183 13.3376 12.055C13.3443 12.0883 13.3443 12.1233 13.3376 12.16C13.3343 12.1933 13.326 12.225 13.3126 12.255C13.2993 12.285 13.2826 12.3067 13.2626 12.32C13.236 12.33 13.206 12.3417 13.1726 12.355C13.1426 12.365 13.1143 12.37 13.0876 12.37C13.0476 12.3733 13.011 12.375 12.9776 12.375C12.9476 12.3717 12.9126 12.37 12.8726 12.37C12.8126 12.37 12.766 12.3717 12.7326 12.375C12.6993 12.375 12.6593 12.3733 12.6126 12.37C12.6126 12.4133 12.6126 12.4417 12.6126 12.455C12.6126 12.465 12.6126 12.475 12.6126 12.485C12.6126 12.495 12.6126 12.51 12.6126 12.53C12.6126 12.55 12.6126 12.5883 12.6126 12.645C12.6293 12.6583 12.651 12.685 12.6776 12.725C12.7043 12.765 12.731 12.7983 12.7576 12.825C12.7843 12.8517 12.8126 12.8817 12.8426 12.915C12.8726 12.945 12.9043 12.9783 12.9376 13.015C12.961 13.0383 12.981 13.06 12.9976 13.08C13.0143 13.1 13.031 13.1183 13.0476 13.135ZM14.2776 14.205C14.4176 14.205 14.5193 14.235 14.5826 14.295C14.6493 14.355 14.6826 14.4233 14.6826 14.5V14.785C14.6826 14.795 14.6826 14.815 14.6826 14.845C14.6826 14.8717 14.6826 14.9 14.6826 14.93C14.6826 14.96 14.6826 14.9883 14.6826 15.015C14.686 15.0417 14.6876 15.06 14.6876 15.07C14.6876 15.1067 14.6876 15.1433 14.6876 15.18C14.6876 15.2167 14.686 15.2533 14.6826 15.29C14.676 15.36 14.6476 15.4167 14.5976 15.46C14.551 15.5033 14.4893 15.525 14.4126 15.525C14.396 15.525 14.366 15.5233 14.3226 15.52C14.2826 15.52 14.2543 15.5167 14.2376 15.51C14.191 15.4967 14.1543 15.4767 14.1276 15.45C14.1043 15.4233 14.086 15.3933 14.0726 15.36C14.0593 15.3267 14.051 15.29 14.0476 15.25C14.0443 15.2133 14.041 15.1767 14.0376 15.14C14.0376 15.1267 14.0376 15.1033 14.0376 15.07C14.0376 15.0367 14.036 15.0033 14.0326 14.97C14.0326 14.9333 14.031 14.9 14.0276 14.87C14.0243 14.8367 14.021 14.8133 14.0176 14.8C14.0076 14.7967 13.981 14.7933 13.9376 14.79C13.8943 14.7867 13.8093 14.785 13.6826 14.785C13.576 14.785 13.5093 14.7867 13.4826 14.79C13.4593 14.79 13.446 14.79 13.4426 14.79H11.6376C11.6343 14.79 11.621 14.7867 11.5976 14.78C11.5776 14.7733 11.5543 14.7633 11.5276 14.75C11.501 14.7333 11.476 14.7133 11.4526 14.69C11.4293 14.6667 11.416 14.6383 11.4126 14.605C11.3926 14.475 11.4126 14.375 11.4726 14.305C11.5126 14.2583 11.556 14.2317 11.6026 14.225C11.6493 14.215 11.6743 14.2083 11.6776 14.205H14.2776ZM14.6776 13.08V13.535C14.6743 13.5717 14.6693 13.61 14.6626 13.65C14.656 13.6867 14.6426 13.7233 14.6226 13.76C14.6026 13.8 14.5743 13.8333 14.5376 13.86C14.491 13.8933 14.436 13.91 14.3726 13.91C14.316 13.91 14.2693 13.8983 14.2326 13.875C14.1993 13.855 14.1726 13.83 14.1526 13.8C14.1326 13.77 14.116 13.7417 14.1026 13.715C14.0926 13.685 14.086 13.66 14.0826 13.64C14.0793 13.6167 14.0776 13.605 14.0776 13.605V11.955C14.0743 11.9417 14.076 11.905 14.0826 11.845C14.0893 11.785 14.1026 11.735 14.1226 11.695C14.156 11.625 14.2226 11.585 14.3226 11.575C14.446 11.5583 14.5376 11.5833 14.5976 11.65C14.6176 11.6767 14.631 11.7033 14.6376 11.73C14.6476 11.7533 14.656 11.7783 14.6626 11.805C14.6726 11.8383 14.6776 11.8733 14.6776 11.91C14.681 11.9467 14.681 11.9833 14.6776 12.02V12.365V12.41C14.6776 12.4267 14.676 12.445 14.6726 12.465C14.6726 12.4817 14.6743 12.5017 14.6776 12.525C14.691 12.525 14.716 12.5267 14.7526 12.53C14.7893 12.53 14.8276 12.5317 14.8676 12.535C14.9076 12.535 14.946 12.5367 14.9826 12.54C15.0193 12.5433 15.046 12.5467 15.0626 12.55C15.1293 12.5633 15.176 12.5833 15.2026 12.61C15.2293 12.6333 15.246 12.6633 15.2526 12.7C15.2626 12.7367 15.2676 12.78 15.2676 12.83C15.2676 12.8767 15.2576 12.9167 15.2376 12.95C15.1976 13.0167 15.1376 13.055 15.0576 13.065C14.9776 13.0717 14.8893 13.0767 14.7926 13.08H14.6776Z" fill="black"/>
<path d="M13.7605 5.61792L12.235 4.85182L10.6386 4.05507C10.3548 3.90185 10 4.08572 10 4.39216V5.98564V8.22265V9.75485C10 9.87742 10.1419 10 10.2838 10C10.4257 10 10.5676 9.87742 10.5676 9.75485V7.91621L12.235 7.08883L13.7605 6.32273C14.0798 6.16951 14.0798 5.77114 13.7605 5.61792Z" fill="#FFEB86"/>
</svg>
