<svg width="22" height="31" viewBox="0 0 22 31" fill="none" xmlns="http://www.w3.org/2000/svg">
<path d="M12.9382 29.27C12.0482 30.81 9.8182 30.81 8.9282 29.27L1.4782 16.37C-2.7218 9.08999 2.5282 0 10.9282 0C19.3282 0 24.5882 9.09999 20.3782 16.37L12.9382 29.27Z" fill="#FFA366"/>
<circle cx="11" cy="11" r="9" fill="white"/>
<path d="M5 9.9707C5.84 9.9707 5.84 11.9507 6.68 11.9507C7.52 11.9507 7.52 9.9707 8.36 9.9707C9.2 9.9707 9.2 11.9507 10.04 11.9507C10.88 11.9507 10.88 9.9707 11.72 9.9707" stroke="#FFA366" stroke-width="0.45" stroke-miterlimit="10" stroke-linecap="round"/>
<path d="M5 12.7803C5.84 12.7803 5.84 14.7603 6.68 14.7603C7.52 14.7603 7.52 12.7803 8.36 12.7803C9.2 12.7803 9.2 14.7603 10.04 14.7603C10.88 14.7603 10.88 12.7803 11.72 12.7803" stroke="#FFA366" stroke-width="0.45" stroke-miterlimit="10" stroke-linecap="round"/>
<path d="M15.2699 16.0108C14.1099 15.2308 8.41989 11.1308 8.52989 5.26083C8.52989 5.09083 8.6899 4.96083 8.8599 5.01083C10.1499 5.39083 15.0099 7.27082 17.1199 14.5808C17.1599 14.7108 17.0799 14.8508 16.9499 14.8908L16.3599 15.0708C16.2599 15.1008 16.1599 15.1708 16.0999 15.2608L15.6199 15.9408C15.5399 16.0608 15.3899 16.0908 15.2699 16.0108Z" fill="#FFA366"/>
<path d="M15.6503 14.4112L14.5703 12.9512" stroke="white" stroke-width="0.5" stroke-miterlimit="10" stroke-linecap="round"/>
<path d="M10.1602 10.7409L11.0602 8.71089C11.1302 8.56089 11.2602 8.46089 11.4202 8.44089L13.6502 8.1709" stroke="white" stroke-width="0.5" stroke-miterlimit="10" stroke-linecap="round"/>
<path d="M9.64941 9.76051L10.4294 7.82051C10.4894 7.68051 10.5994 7.58052 10.7394 7.56052L12.6194 7.27051" stroke="white" stroke-width="0.5" stroke-miterlimit="10" stroke-linecap="round"/>
<path d="M9.11035 8.61038L9.78035 6.90039C9.83035 6.78039 9.93035 6.69039 10.0404 6.67039L11.6003 6.40039" stroke="white" stroke-width="0.5" stroke-miterlimit="10" stroke-linecap="round"/>
</svg>
