<svg width="22" height="31" viewBox="0 0 22 31" fill="none" xmlns="http://www.w3.org/2000/svg">
<path d="M12.9382 29.27C12.0482 30.81 9.8182 30.81 8.9282 29.27L1.4782 16.37C-2.7218 9.08999 2.5282 0 10.9282 0C19.3282 0 24.5882 9.09999 20.3782 16.37L12.9382 29.27Z" fill="#9AD48D"/>
<circle cx="11" cy="11" r="9" fill="white"/>
<path opacity="0.7" d="M8.845 11.725H8.935C8.94833 11.725 8.96 11.725 8.97 11.725C8.98333 11.725 8.99833 11.7283 9.015 11.735C9.03833 11.7417 9.06167 11.7517 9.085 11.765C9.10833 11.775 9.13333 11.7833 9.16 11.79C9.18 11.8067 9.2 11.825 9.22 11.845C9.24 11.8617 9.26 11.88 9.28 11.9C9.29333 11.92 9.305 11.945 9.315 11.975C9.32833 12.0017 9.33833 12.0333 9.345 12.07C9.36167 12.1367 9.37 12.1917 9.37 12.235V12.685C9.38333 12.835 9.38333 12.9817 9.37 13.125V13.28V13.44C9.36333 13.4667 9.35833 13.4933 9.355 13.52C9.355 13.5467 9.35167 13.5733 9.345 13.6C9.345 13.6267 9.34167 13.6533 9.335 13.68C9.33167 13.7033 9.32167 13.725 9.305 13.745C9.29167 13.7617 9.275 13.7817 9.255 13.805C9.23833 13.825 9.22 13.8417 9.2 13.855C9.17333 13.8683 9.15 13.8817 9.13 13.895C9.11 13.905 9.08667 13.91 9.06 13.91C9.03 13.91 9.00333 13.91 8.98 13.91C8.96 13.9067 8.93667 13.8967 8.91 13.88C8.88333 13.8733 8.86 13.8633 8.84 13.85C8.82333 13.8333 8.80833 13.81 8.795 13.78C8.76167 13.7267 8.73833 13.6717 8.725 13.615C8.71833 13.5883 8.715 13.56 8.715 13.53C8.715 13.4967 8.715 13.4633 8.715 13.43C8.70833 13.3967 8.70333 13.3667 8.7 13.34C8.7 13.31 8.7 13.2767 8.7 13.24C8.70667 13.2067 8.71 13.175 8.71 13.145C8.71333 13.115 8.715 13.0867 8.715 13.06V12.78C8.715 12.7333 8.71167 12.6883 8.705 12.645C8.70167 12.6017 8.69667 12.56 8.69 12.52C8.69 12.4767 8.68 12.445 8.66 12.425C8.65333 12.4117 8.645 12.4033 8.635 12.4C8.625 12.3933 8.61667 12.39 8.61 12.39C8.59667 12.3833 8.58167 12.38 8.565 12.38C8.54833 12.3767 8.53 12.375 8.51 12.375H8.42H8.345H8.315H8.275H8.195H8.09H7.735C7.67833 12.3683 7.61833 12.3633 7.555 12.36C7.495 12.3567 7.43167 12.3483 7.365 12.335C7.31833 12.335 7.28833 12.3167 7.275 12.28C7.25833 12.2633 7.24667 12.2467 7.24 12.23C7.23333 12.21 7.22667 12.1917 7.22 12.175C7.21333 12.1517 7.20833 12.13 7.205 12.11C7.205 12.09 7.205 12.0667 7.205 12.04C7.205 12.02 7.20667 12.0017 7.21 11.985C7.21667 11.9683 7.22 11.9533 7.22 11.94C7.22667 11.9033 7.23833 11.8733 7.255 11.85C7.275 11.8233 7.29833 11.7983 7.325 11.775C7.36833 11.7483 7.40667 11.735 7.44 11.735C7.46667 11.7283 7.49167 11.725 7.515 11.725C7.53833 11.725 7.565 11.725 7.595 11.725C7.61167 11.7183 7.63167 11.715 7.655 11.715C7.67833 11.7117 7.70167 11.71 7.725 11.71C7.75167 11.7167 7.77667 11.7217 7.8 11.725C7.82667 11.725 7.85333 11.725 7.88 11.725H8.845ZM7.645 14.83C7.645 14.7567 7.65333 14.6883 7.67 14.625C7.69 14.5617 7.72 14.5067 7.76 14.46C7.84667 14.3633 7.96167 14.2833 8.105 14.22C8.23833 14.17 8.40167 14.13 8.595 14.1C8.695 14.0867 8.79333 14.0783 8.89 14.075C8.99 14.0683 9.09333 14.065 9.2 14.065C9.31 14.065 9.41667 14.0683 9.52 14.075C9.62333 14.0783 9.72333 14.0833 9.82 14.09C9.91333 14.1033 10.0017 14.1183 10.085 14.135C10.1683 14.1483 10.2433 14.1683 10.31 14.195C10.4567 14.245 10.5717 14.325 10.655 14.435C10.735 14.5317 10.775 14.6633 10.775 14.83C10.775 14.9167 10.7633 14.9933 10.74 15.06C10.72 15.1267 10.6917 15.1867 10.655 15.24C10.5783 15.3333 10.4633 15.4083 10.31 15.465C10.2433 15.4917 10.1683 15.5133 10.085 15.53C10.0017 15.55 9.91333 15.5633 9.82 15.57C9.72333 15.5833 9.62333 15.59 9.52 15.59C9.41667 15.5933 9.31 15.595 9.2 15.595C9.09333 15.595 8.99 15.5933 8.89 15.59C8.79333 15.59 8.695 15.5833 8.595 15.57C8.49833 15.5633 8.40833 15.55 8.325 15.53C8.245 15.5133 8.17167 15.4917 8.105 15.465C7.955 15.4117 7.84 15.3367 7.76 15.24C7.68333 15.14 7.645 15.0033 7.645 14.83ZM10.085 14.9C10.085 14.8633 10.0783 14.835 10.065 14.815C10.0517 14.7917 10.0317 14.7683 10.005 14.745C9.97833 14.7317 9.94667 14.72 9.91 14.71C9.87333 14.7 9.835 14.6917 9.795 14.685C9.755 14.6783 9.71167 14.6717 9.665 14.665C9.62167 14.6583 9.57167 14.655 9.515 14.655C9.46167 14.6483 9.40833 14.645 9.355 14.645C9.305 14.6417 9.25333 14.64 9.2 14.64C9.14667 14.64 9.09333 14.6417 9.04 14.645C8.99 14.645 8.94333 14.6483 8.9 14.655C8.84667 14.655 8.79667 14.6583 8.75 14.665C8.70333 14.6717 8.66 14.6783 8.62 14.685C8.57667 14.6917 8.53833 14.7 8.505 14.71C8.475 14.72 8.44667 14.7317 8.42 14.745C8.4 14.7683 8.38333 14.7917 8.37 14.815C8.36 14.835 8.355 14.8633 8.355 14.9C8.355 14.9433 8.37667 14.9817 8.42 15.015C8.47667 15.055 8.54333 15.08 8.62 15.09C8.66 15.1 8.70333 15.1083 8.75 15.115C8.79667 15.1217 8.84667 15.1283 8.9 15.135C8.94333 15.135 8.99 15.1367 9.04 15.14C9.09333 15.1433 9.14667 15.145 9.2 15.145C9.25333 15.145 9.305 15.145 9.355 15.145C9.40833 15.145 9.46167 15.1417 9.515 15.135C9.57167 15.135 9.62167 15.1333 9.665 15.13C9.71167 15.13 9.755 15.1267 9.795 15.12C9.875 15.11 9.945 15.0833 10.005 15.04C10.0583 15.0067 10.085 14.96 10.085 14.9ZM10.775 11.75C10.7817 11.7633 10.785 11.7767 10.785 11.79C10.7883 11.8033 10.7933 11.8217 10.8 11.845C10.8 11.8583 10.8 11.875 10.8 11.895C10.8 11.9117 10.8033 11.93 10.81 11.95V12.04V12.095V13.675V13.72C10.8033 13.7333 10.7983 13.7467 10.795 13.76C10.795 13.7733 10.7917 13.7883 10.785 13.805C10.775 13.8317 10.7567 13.86 10.73 13.89C10.72 13.9233 10.695 13.9467 10.655 13.96C10.635 13.9733 10.6117 13.985 10.585 13.995C10.5617 14.005 10.535 14.01 10.505 14.01C10.4517 14.01 10.395 13.9883 10.335 13.945C10.3217 13.9317 10.3067 13.9183 10.29 13.905C10.2767 13.8883 10.2667 13.8717 10.26 13.855C10.2467 13.835 10.235 13.815 10.225 13.795C10.2183 13.7717 10.2117 13.75 10.205 13.73C10.205 13.7133 10.2033 13.695 10.2 13.675C10.2 13.6517 10.1967 13.6317 10.19 13.615V13.47H10.18H10.02C9.99333 13.47 9.96667 13.4683 9.94 13.465C9.91333 13.4583 9.88667 13.455 9.86 13.455C9.83333 13.4483 9.80667 13.4433 9.78 13.44C9.75667 13.4367 9.735 13.4283 9.715 13.415C9.665 13.405 9.635 13.3783 9.625 13.335C9.61167 13.3217 9.60167 13.3033 9.595 13.28C9.58833 13.2567 9.585 13.235 9.585 13.215C9.585 13.1883 9.58667 13.165 9.59 13.145C9.59667 13.125 9.6 13.105 9.6 13.085C9.60667 13.065 9.61333 13.0467 9.62 13.03C9.63 13.01 9.645 12.9933 9.665 12.98C9.685 12.96 9.73333 12.9433 9.81 12.93C9.81667 12.92 9.83833 12.915 9.875 12.915C9.895 12.915 9.91333 12.915 9.93 12.915C9.95 12.9117 9.97167 12.9067 9.995 12.9H10.115H10.19V12.675H10.03H9.86C9.83333 12.6683 9.80667 12.665 9.78 12.665C9.75667 12.6617 9.735 12.6567 9.715 12.65C9.665 12.6367 9.635 12.6133 9.625 12.58C9.61833 12.5667 9.61167 12.5567 9.605 12.55C9.60167 12.5433 9.6 12.5333 9.6 12.52C9.6 12.5067 9.59667 12.4933 9.59 12.48C9.58667 12.4667 9.585 12.4533 9.585 12.44V12.36C9.59167 12.3467 9.595 12.335 9.595 12.325C9.59833 12.3117 9.6 12.2967 9.6 12.28C9.60667 12.2633 9.61333 12.2467 9.62 12.23C9.63 12.2133 9.645 12.1983 9.665 12.185C9.685 12.165 9.73333 12.1433 9.81 12.12H9.86H9.965C9.985 12.1133 10.005 12.11 10.025 12.11C10.045 12.1067 10.065 12.105 10.085 12.105H10.19V11.99C10.1967 11.9633 10.2 11.9417 10.2 11.925C10.2033 11.905 10.205 11.8867 10.205 11.87C10.2117 11.8567 10.2183 11.845 10.225 11.835C10.2317 11.8217 10.235 11.8067 10.235 11.79C10.2483 11.7567 10.265 11.73 10.285 11.71C10.2983 11.69 10.3133 11.6767 10.33 11.67C10.35 11.66 10.3733 11.6517 10.4 11.645C10.45 11.6217 10.505 11.6183 10.565 11.635C10.6183 11.6417 10.66 11.655 10.69 11.675C10.7233 11.6917 10.7517 11.7167 10.775 11.75ZM13.9737 11.705C14.0337 11.7317 14.102 11.77 14.1787 11.82C14.2587 11.87 14.322 11.925 14.3687 11.985C14.4987 12.155 14.5737 12.3167 14.5937 12.47C14.617 12.6233 14.6187 12.7717 14.5987 12.915C14.572 13.1917 14.442 13.405 14.2087 13.555C13.9753 13.7017 13.657 13.775 13.2537 13.775C13.147 13.775 13.0303 13.7767 12.9037 13.78C12.7803 13.78 12.6553 13.775 12.5287 13.765C12.4053 13.755 12.2837 13.7367 12.1637 13.71C12.047 13.6833 11.942 13.6417 11.8487 13.585C11.6653 13.4783 11.5403 13.3433 11.4737 13.18C11.407 13.0133 11.3737 12.8367 11.3737 12.65C11.3737 12.47 11.4087 12.31 11.4787 12.17C11.552 12.03 11.672 11.9033 11.8387 11.79C11.9087 11.7433 12.002 11.7033 12.1187 11.67C12.2353 11.6333 12.357 11.605 12.4837 11.585C12.6137 11.5617 12.7403 11.5467 12.8637 11.54C12.987 11.53 13.0903 11.5283 13.1737 11.535C13.3303 11.545 13.4687 11.5617 13.5887 11.585C13.7087 11.6083 13.837 11.6483 13.9737 11.705ZM14.3087 14.13C14.362 14.1267 14.417 14.1283 14.4737 14.135C14.5337 14.1383 14.5887 14.15 14.6387 14.17C14.6887 14.19 14.7287 14.22 14.7587 14.26C14.792 14.3 14.8087 14.355 14.8087 14.425C14.8087 14.5083 14.7853 14.5717 14.7387 14.615C14.692 14.655 14.6353 14.685 14.5687 14.705C14.5053 14.7217 14.4353 14.7317 14.3587 14.735C14.2853 14.735 14.222 14.735 14.1687 14.735C14.152 14.735 14.137 14.7367 14.1237 14.74C14.1103 14.74 14.0953 14.74 14.0787 14.74C14.082 14.8367 14.0837 14.9383 14.0837 15.045C14.087 15.1517 14.0837 15.2467 14.0737 15.33C14.0637 15.3933 14.047 15.4533 14.0237 15.51C14.0003 15.57 13.9603 15.6183 13.9037 15.655C13.8537 15.6883 13.7953 15.705 13.7287 15.705C13.662 15.705 13.602 15.69 13.5487 15.66C13.5053 15.6333 13.472 15.595 13.4487 15.545C13.4287 15.495 13.4137 15.4467 13.4037 15.4C13.397 15.3633 13.3953 15.3233 13.3987 15.28C13.402 15.2367 13.402 15.1967 13.3987 15.16V14.74L12.5337 14.735C12.537 14.8383 12.5403 14.94 12.5437 15.04C12.547 15.1433 12.542 15.2383 12.5287 15.325C12.5187 15.3883 12.502 15.4483 12.4787 15.505C12.4553 15.565 12.4153 15.6133 12.3587 15.65C12.3087 15.6833 12.2503 15.7 12.1837 15.7C12.117 15.7 12.057 15.685 12.0037 15.655C11.9603 15.6283 11.927 15.59 11.9037 15.54C11.8837 15.49 11.8687 15.4417 11.8587 15.395C11.852 15.3583 11.8503 15.3183 11.8537 15.275C11.857 15.2317 11.857 15.1917 11.8537 15.155V14.735L11.5537 14.725C11.477 14.725 11.4037 14.7183 11.3337 14.705C11.2637 14.6883 11.2087 14.6467 11.1687 14.58C11.132 14.5233 11.1137 14.4617 11.1137 14.395C11.117 14.3283 11.142 14.27 11.1887 14.22C11.212 14.1933 11.2437 14.1733 11.2837 14.16C11.3237 14.1467 11.362 14.1367 11.3987 14.13C11.4387 14.1233 11.472 14.12 11.4987 14.12C11.5287 14.12 11.5453 14.12 11.5487 14.12L14.3087 14.13ZM13.8387 12.975C13.862 12.9017 13.8753 12.825 13.8787 12.745C13.882 12.6617 13.8687 12.585 13.8387 12.515C13.8087 12.4417 13.757 12.38 13.6837 12.33C13.6137 12.2767 13.5137 12.2433 13.3837 12.23C13.2903 12.22 13.1737 12.21 13.0337 12.2C12.8937 12.19 12.757 12.1933 12.6237 12.21C12.4903 12.2267 12.372 12.265 12.2687 12.325C12.1653 12.3817 12.1037 12.4717 12.0837 12.595C12.0737 12.6683 12.0737 12.7383 12.0837 12.805C12.097 12.8683 12.1253 12.9267 12.1687 12.98C12.212 13.0333 12.2737 13.0783 12.3537 13.115C12.4337 13.1483 12.5337 13.17 12.6537 13.18C12.7437 13.19 12.847 13.2 12.9637 13.21C13.0803 13.2167 13.1953 13.2167 13.3087 13.21C13.4253 13.2 13.5303 13.1783 13.6237 13.145C13.7203 13.1083 13.792 13.0517 13.8387 12.975Z" fill="black"/>
<path d="M12.4643 6.46429H11.5357V5.53571C11.5357 5.25 11.2857 5 11 5C10.7143 5 10.4643 5.25 10.4643 5.53571V6.46429H9.53572C9.25 6.46429 9 6.71429 9 7C9 7.28572 9.25 7.53572 9.53572 7.53572H10.4643V8.46429C10.4643 8.75 10.7143 9 11 9C11.2857 9 11.5357 8.75 11.5357 8.46429V7.53572H12.4643C12.75 7.53572 13 7.28572 13 7C13 6.71429 12.75 6.46429 12.4643 6.46429Z" fill="#9AD48D"/>
</svg>
