<svg width="22" height="31" viewBox="0 0 22 31" fill="none" xmlns="http://www.w3.org/2000/svg">
<path d="M12.9382 29.27C12.0482 30.81 9.8182 30.81 8.9282 29.27L1.4782 16.37C-2.7218 9.08999 2.5282 0 10.9282 0C19.3282 0 24.5882 9.09999 20.3782 16.37L12.9382 29.27Z" fill="#FFD167"/>
<circle cx="11" cy="11" r="9" fill="white"/>
<path opacity="0.7" d="M10.49 15.18C10.5433 15.1867 10.59 15.2 10.63 15.22C10.67 15.24 10.6983 15.2767 10.715 15.33C10.755 15.45 10.7117 15.535 10.585 15.585C10.545 15.6017 10.505 15.6117 10.465 15.615C10.425 15.6183 10.3867 15.62 10.35 15.62H8.025C7.95833 15.62 7.88833 15.6183 7.815 15.615C7.745 15.615 7.67333 15.6133 7.6 15.61C7.53 15.6067 7.47167 15.5817 7.425 15.535C7.37833 15.4883 7.35167 15.4267 7.345 15.35L7.33 15C7.32667 14.9633 7.32667 14.92 7.33 14.87C7.33333 14.82 7.35 14.7783 7.38 14.745C7.42667 14.695 7.48833 14.6633 7.565 14.65C7.645 14.6367 7.72167 14.63 7.795 14.63C7.84167 14.63 7.91833 14.63 8.025 14.63C8.135 14.63 8.28333 14.6317 8.47 14.635C8.65667 14.635 8.88667 14.635 9.16 14.635C9.43667 14.635 9.765 14.635 10.145 14.635V14.455H7.685C7.65167 14.455 7.62167 14.455 7.595 14.455C7.56833 14.455 7.54167 14.4517 7.515 14.445C7.485 14.4383 7.45833 14.4317 7.435 14.425C7.41167 14.4183 7.39167 14.4017 7.375 14.375C7.32833 14.305 7.31667 14.2333 7.34 14.16C7.35 14.1333 7.365 14.1133 7.385 14.1C7.405 14.0833 7.42833 14.07 7.455 14.06C7.48167 14.05 7.50667 14.0433 7.53 14.04C7.55667 14.0367 7.58 14.0333 7.6 14.03C7.65 14.02 7.70167 14.015 7.755 14.015C7.80167 14.015 7.85167 14.015 7.905 14.015C7.96167 14.015 8.02833 14.0167 8.105 14.02C8.18167 14.02 8.27 14.02 8.37 14.02C8.47333 14.02 8.59333 14.02 8.73 14.02C8.73333 13.9833 8.735 13.9483 8.735 13.915C8.73833 13.8783 8.74 13.8417 8.74 13.805C8.72 13.805 8.675 13.805 8.605 13.805C8.535 13.8017 8.45333 13.8 8.36 13.8C8.27 13.8 8.17167 13.8 8.065 13.8C7.96167 13.7967 7.86333 13.795 7.77 13.795C7.68 13.7917 7.60167 13.7883 7.535 13.785C7.46833 13.7817 7.425 13.7783 7.405 13.775C7.35167 13.7683 7.30833 13.765 7.275 13.765C7.245 13.765 7.20833 13.745 7.165 13.705C7.12167 13.665 7.1 13.6133 7.1 13.55C7.1 13.48 7.12167 13.4233 7.165 13.38C7.18833 13.3533 7.22 13.335 7.26 13.325C7.3 13.3117 7.33833 13.3033 7.375 13.3C7.41167 13.2933 7.44333 13.2917 7.47 13.295C7.5 13.295 7.51667 13.295 7.52 13.295H10.38C10.43 13.295 10.48 13.295 10.53 13.295C10.58 13.295 10.6283 13.2967 10.675 13.3C10.7217 13.3033 10.7667 13.3083 10.81 13.315C10.8567 13.3183 10.8983 13.3367 10.935 13.37C10.9717 13.3967 10.9917 13.4267 10.995 13.46C11.0017 13.4933 11.005 13.53 11.005 13.57C11.005 13.62 10.99 13.66 10.96 13.69C10.9333 13.72 10.895 13.7433 10.845 13.76C10.7783 13.7867 10.7033 13.7983 10.62 13.795C10.54 13.7917 10.4667 13.7917 10.4 13.795C10.2333 13.8017 10.0717 13.805 9.915 13.805C9.76167 13.805 9.6 13.805 9.43 13.805C9.43 13.8417 9.43 13.8783 9.43 13.915C9.43 13.9483 9.42833 13.9833 9.425 14.02H10.195C10.365 14.02 10.495 14.0467 10.585 14.1C10.675 14.15 10.72 14.2333 10.72 14.35V14.705C10.72 14.7517 10.7083 14.7983 10.685 14.845C10.665 14.8883 10.6283 14.925 10.575 14.955C10.5317 14.9817 10.4883 14.9967 10.445 15C10.4017 15 10.3583 15 10.315 15H7.945V15.18H10.49ZM10.23 12.59C10.2933 12.62 10.3533 12.6533 10.41 12.69C10.47 12.7267 10.5267 12.7633 10.58 12.8C10.6067 12.8233 10.6217 12.8533 10.625 12.89C10.6317 12.9267 10.6267 12.9633 10.61 13C10.5967 13.0333 10.575 13.0633 10.545 13.09C10.515 13.1167 10.48 13.135 10.44 13.145C10.3333 13.1617 10.2333 13.1617 10.14 13.145C10.05 13.125 9.95667 13.0933 9.86 13.05C9.77 13.01 9.68333 12.9717 9.6 12.935C9.52 12.8983 9.44167 12.8583 9.365 12.815C9.34167 12.8017 9.31 12.785 9.27 12.765C9.23333 12.745 9.19667 12.7267 9.16 12.71C9.11667 12.69 9.07 12.6683 9.02 12.645C8.96333 12.6717 8.90833 12.6967 8.855 12.72C8.80833 12.74 8.76167 12.7617 8.715 12.785C8.67167 12.805 8.63667 12.8217 8.61 12.835C8.52333 12.8817 8.44333 12.9217 8.37 12.955C8.29667 12.985 8.21667 13.02 8.13 13.06C8.06333 13.0867 7.995 13.1167 7.925 13.15C7.85833 13.18 7.78667 13.195 7.71 13.195C7.65 13.1917 7.59167 13.1767 7.535 13.15C7.47833 13.12 7.44333 13.0733 7.43 13.01C7.42667 12.9767 7.43 12.9383 7.44 12.895C7.45333 12.8483 7.475 12.81 7.505 12.78C7.53833 12.75 7.57833 12.72 7.625 12.69L7.97 12.52C8.02667 12.4933 8.07667 12.47 8.12 12.45C8.16333 12.43 8.215 12.4067 8.275 12.38C8.30167 12.3633 8.33167 12.3467 8.365 12.33C8.39833 12.31 8.43333 12.2917 8.47 12.275H8.155C8.10167 12.275 8.055 12.275 8.015 12.275C7.97833 12.275 7.935 12.2717 7.885 12.265C7.84833 12.2583 7.80833 12.255 7.765 12.255C7.72167 12.255 7.68167 12.2467 7.645 12.23C7.625 12.2233 7.60667 12.2117 7.59 12.195C7.57667 12.175 7.565 12.155 7.555 12.135C7.535 12.1017 7.52333 12.065 7.52 12.025C7.51667 11.985 7.52333 11.9467 7.54 11.91C7.56667 11.86 7.61 11.8217 7.67 11.795C7.73 11.7683 7.79167 11.755 7.855 11.755H7.97C8.02333 11.7617 8.06167 11.7633 8.085 11.76C8.11167 11.7567 8.15167 11.755 8.205 11.755H8.65V11.555C8.65 11.455 8.69333 11.3867 8.78 11.35C8.86667 11.3133 8.96 11.3 9.06 11.31C9.15 11.32 9.21833 11.34 9.265 11.37C9.315 11.3967 9.34167 11.4433 9.345 11.51C9.34833 11.5367 9.35 11.5733 9.35 11.62C9.35333 11.6633 9.355 11.7083 9.355 11.755H9.935C9.98833 11.755 10.05 11.7533 10.12 11.75C10.19 11.7467 10.2567 11.7517 10.32 11.765C10.3867 11.775 10.445 11.7967 10.495 11.83C10.5483 11.86 10.5833 11.91 10.6 11.98C10.62 12.06 10.605 12.1217 10.555 12.165C10.5083 12.205 10.4467 12.235 10.37 12.255C10.2967 12.2717 10.2183 12.2817 10.135 12.285C10.0517 12.285 9.98333 12.285 9.93 12.285C9.87667 12.2817 9.82 12.28 9.76 12.28C9.70333 12.28 9.64833 12.28 9.595 12.28C9.61833 12.2933 9.64 12.3017 9.66 12.305C9.69333 12.3217 9.725 12.3383 9.755 12.355C9.78833 12.3683 9.82167 12.3833 9.855 12.4C9.91833 12.43 9.98 12.4617 10.04 12.495C10.1033 12.525 10.1667 12.5567 10.23 12.59ZM14.4964 15.2C14.5464 15.2033 14.5914 15.215 14.6314 15.235C14.6748 15.2583 14.7048 15.2967 14.7214 15.35C14.7581 15.47 14.7148 15.5533 14.5914 15.6C14.5514 15.6167 14.5098 15.6267 14.4664 15.63C14.4264 15.6333 14.3881 15.635 14.3514 15.635H12.0264C11.9598 15.635 11.8898 15.635 11.8164 15.635C11.7464 15.635 11.6748 15.6333 11.6014 15.63C11.5314 15.6267 11.4731 15.6017 11.4264 15.555C11.3798 15.5083 11.3531 15.4467 11.3464 15.37C11.3398 15.3133 11.3348 15.25 11.3314 15.18C11.3314 15.1133 11.3314 15.0567 11.3314 15.01V14.965C11.3281 14.9283 11.3281 14.885 11.3314 14.835C11.3381 14.785 11.3564 14.7417 11.3864 14.705C11.4298 14.6583 11.4898 14.6283 11.5664 14.615C11.6464 14.6017 11.7231 14.595 11.7964 14.595H11.9014C11.9148 14.595 11.9264 14.5967 11.9364 14.6C11.9498 14.6 11.9614 14.6 11.9714 14.6H14.1464V14.385H11.9214C11.9048 14.385 11.8864 14.385 11.8664 14.385C11.8464 14.3817 11.8281 14.3817 11.8114 14.385H11.6864C11.6531 14.385 11.6231 14.385 11.5964 14.385C11.5698 14.385 11.5431 14.3817 11.5164 14.375C11.4898 14.3683 11.4631 14.3617 11.4364 14.355C11.4131 14.3483 11.3931 14.3317 11.3764 14.305C11.3331 14.2383 11.3214 14.1667 11.3414 14.09C11.3514 14.0633 11.3664 14.0433 11.3864 14.03C11.4064 14.0133 11.4298 14 11.4564 13.99C11.4831 13.98 11.5081 13.9733 11.5314 13.97C11.5581 13.9633 11.5814 13.9583 11.6014 13.955C11.6281 13.9517 11.6531 13.95 11.6764 13.95C11.7031 13.9467 11.7314 13.945 11.7614 13.945H11.8464C11.8631 13.945 11.8781 13.9467 11.8914 13.95C11.9048 13.95 11.9198 13.95 11.9364 13.95H14.1964C14.3664 13.95 14.4964 13.9767 14.5864 14.03C14.6764 14.08 14.7214 14.1633 14.7214 14.28V14.67C14.7214 14.7167 14.7114 14.7617 14.6914 14.805C14.6714 14.8483 14.6348 14.8867 14.5814 14.92C14.5348 14.9467 14.4898 14.9617 14.4464 14.965C14.4031 14.965 14.3614 14.965 14.3214 14.965H11.9464V15.2H14.4964ZM13.3514 13.34C13.3514 13.4067 13.3214 13.4683 13.2614 13.525C13.2048 13.5783 13.1448 13.6083 13.0814 13.615C12.9981 13.6283 12.9248 13.6333 12.8614 13.63C12.7981 13.6267 12.7231 13.625 12.6364 13.625C12.4564 13.625 12.2831 13.625 12.1164 13.625C11.9531 13.625 11.7814 13.6217 11.6014 13.615C11.4948 13.6117 11.4148 13.5717 11.3614 13.495C11.3081 13.4183 11.2814 13.3367 11.2814 13.25C11.2814 13.18 11.2798 13.1 11.2764 13.01C11.2764 12.9167 11.2764 12.8217 11.2764 12.725C11.2764 12.6283 11.2764 12.5333 11.2764 12.44C11.2764 12.3467 11.2781 12.265 11.2814 12.195C11.2848 12.1083 11.2848 12.0317 11.2814 11.965C11.2814 11.8983 11.3031 11.8267 11.3464 11.75C11.3698 11.7067 11.4031 11.6717 11.4464 11.645C11.4898 11.6183 11.5348 11.6033 11.5814 11.6C11.6281 11.5933 11.6731 11.5983 11.7164 11.615C11.7598 11.6317 11.7948 11.6617 11.8214 11.705C11.8481 11.7517 11.8664 11.7983 11.8764 11.845C11.8898 11.8917 11.8998 11.94 11.9064 11.99C11.9131 12.04 11.9148 12.0833 11.9114 12.12C11.9114 12.1533 11.9098 12.1983 11.9064 12.255H12.7914V11.98C12.7914 11.9233 12.7998 11.86 12.8164 11.79C12.8331 11.7167 12.8681 11.6633 12.9214 11.63C12.9581 11.6033 13.0081 11.59 13.0714 11.59C13.1348 11.5867 13.1848 11.5983 13.2214 11.625C13.2581 11.6517 13.2848 11.6883 13.3014 11.735C13.3181 11.7817 13.3298 11.8283 13.3364 11.875C13.3464 11.9317 13.3514 11.9883 13.3514 12.045V13.34ZM14.6964 13.03V13.435C14.6964 13.5217 14.6714 13.5983 14.6214 13.665C14.5714 13.7283 14.4948 13.76 14.3914 13.76C14.3348 13.76 14.2881 13.7483 14.2514 13.725C14.1848 13.685 14.1414 13.6367 14.1214 13.58C14.1048 13.52 14.0964 13.4767 14.0964 13.45V11.955C14.0931 11.9417 14.0948 11.905 14.1014 11.845C14.1081 11.785 14.1214 11.735 14.1414 11.695C14.1748 11.625 14.2414 11.585 14.3414 11.575C14.4648 11.5583 14.5564 11.5833 14.6164 11.65C14.6364 11.6767 14.6498 11.7033 14.6564 11.73C14.6664 11.7533 14.6748 11.7783 14.6814 11.805C14.6914 11.835 14.6964 11.8783 14.6964 11.935C14.6998 11.9917 14.6998 12.0367 14.6964 12.07V12.475C14.7098 12.475 14.7348 12.4767 14.7714 12.48C14.8081 12.48 14.8464 12.4817 14.8864 12.485C14.9264 12.485 14.9648 12.4867 15.0014 12.49C15.0381 12.4933 15.0648 12.4967 15.0814 12.5C15.1481 12.5133 15.1948 12.5333 15.2214 12.56C15.2481 12.5833 15.2648 12.6133 15.2714 12.65C15.2814 12.6867 15.2864 12.73 15.2864 12.78C15.2864 12.8267 15.2764 12.8667 15.2564 12.9C15.2164 12.9667 15.1564 13.005 15.0764 13.015C14.9964 13.0217 14.9081 13.0267 14.8114 13.03H14.6964ZM12.7914 13.08C12.7848 13.0267 12.7814 12.9683 12.7814 12.905C12.7814 12.8383 12.7848 12.775 12.7914 12.715H11.8964C11.8898 12.7717 11.8881 12.8167 11.8914 12.85C11.8981 12.88 11.9014 12.9233 11.9014 12.98C11.9048 13.0167 11.9081 13.0417 11.9114 13.055C11.9148 13.0683 11.9348 13.0767 11.9714 13.08C12.0081 13.0833 12.0448 13.085 12.0814 13.085C12.1181 13.0817 12.1548 13.08 12.1914 13.08H12.7914Z" fill="black"/>
<path d="M10.3961 4.34632C10.647 3.88456 11.2324 3.88456 11.4833 4.34632L12.7795 6.83983L13.9085 8.96394C14.2012 9.47188 13.7413 10.1183 13.2395 9.97982L11.1488 9.37953C11.0651 9.33335 10.9397 9.33335 10.856 9.37953L8.76532 9.97982C8.22174 10.1183 7.80359 9.51806 8.09629 8.96394L9.22529 6.83983L10.3961 4.34632Z" fill="#FFD167"/>
</svg>
