<svg width="30" height="43" viewBox="0 0 30 43" fill="none" xmlns="http://www.w3.org/2000/svg">
<path d="M17.7555 40.8401C16.5341 42.9535 13.4739 42.9535 12.2525 40.8401L2.02858 23.137C-3.73522 13.1464 3.46954 0.671875 14.9971 0.671875C26.5247 0.671875 33.7432 13.1601 27.9657 23.137L17.7555 40.8401Z" fill="#FFA366"/>
<path d="M9.652 18.307L9.641 16.833C9.45033 16.8257 9.27433 16.822 9.113 16.822C8.95167 16.822 8.76467 16.822 8.552 16.822C8.38333 16.822 8.20733 16.8183 8.024 16.811C7.848 16.7963 7.683 16.767 7.529 16.723C7.40433 16.6863 7.29067 16.6203 7.188 16.525C7.09267 16.4297 7.01567 16.3197 6.957 16.195C6.92033 16.1143 6.89467 16.019 6.88 15.909C6.86533 15.799 6.85433 15.6927 6.847 15.59C6.83967 15.48 6.836 15.3883 6.836 15.315C6.84333 15.2343 6.847 15.1903 6.847 15.183V13.181C6.847 13.1663 6.84333 13.1187 6.836 13.038C6.836 12.9573 6.83967 12.8657 6.847 12.763C6.86167 12.653 6.88 12.543 6.902 12.433C6.924 12.3157 6.96433 12.213 7.023 12.125C7.11833 11.9783 7.265 11.883 7.463 11.839C7.661 11.795 7.86267 11.773 8.068 11.773H12.677C12.6843 11.773 12.7393 11.7767 12.842 11.784C12.9447 11.784 13.0583 11.795 13.183 11.817C13.3077 11.839 13.425 11.8793 13.535 11.938C13.6523 11.9967 13.7293 12.0847 13.766 12.202C13.7807 12.246 13.788 12.301 13.788 12.367C13.7953 12.4257 13.799 12.488 13.799 12.554C13.799 12.62 13.7917 12.6823 13.777 12.741C13.7697 12.7997 13.7587 12.8437 13.744 12.873C13.6853 12.9757 13.5937 13.0417 13.469 13.071C13.359 13.1003 13.1573 13.115 12.864 13.115H8.882C8.71333 13.115 8.585 13.1443 8.497 13.203C8.41633 13.2617 8.354 13.3313 8.31 13.412C8.27333 13.4853 8.255 13.5623 8.255 13.643C8.255 13.7163 8.255 13.7713 8.255 13.808L8.299 14.809C8.30633 14.8823 8.31367 14.9703 8.321 15.073C8.33567 15.1757 8.36867 15.249 8.42 15.293C8.49333 15.3663 8.585 15.4067 8.695 15.414C8.81233 15.414 8.937 15.414 9.069 15.414L12.809 15.403C13.1683 15.403 13.469 15.458 13.711 15.568C13.7843 15.6047 13.8467 15.667 13.898 15.755C13.9493 15.8357 13.9823 15.9163 13.997 15.997C14.019 16.0777 14.019 16.1583 13.997 16.239C13.9823 16.3123 13.9493 16.3783 13.898 16.437C13.7073 16.6863 13.436 16.8147 13.084 16.822C12.754 16.8367 12.4277 16.8477 12.105 16.855C11.7897 16.855 11.4633 16.8513 11.126 16.844L11.137 18.307H13.898C14.0227 18.3217 14.1363 18.3437 14.239 18.373C14.349 18.4023 14.4553 18.461 14.558 18.549C14.6607 18.6517 14.712 18.78 14.712 18.934C14.712 19.0147 14.6973 19.099 14.668 19.187C14.646 19.2823 14.613 19.3557 14.569 19.407C14.5103 19.4657 14.437 19.5097 14.349 19.539C14.261 19.5683 14.1767 19.5867 14.096 19.594C14.0153 19.6087 13.942 19.616 13.876 19.616C13.8173 19.616 13.7843 19.616 13.777 19.616C12.743 19.616 11.8667 19.616 11.148 19.616C10.4293 19.616 9.83533 19.616 9.366 19.616C8.904 19.616 8.541 19.6123 8.277 19.605C8.02033 19.605 7.826 19.605 7.694 19.605C7.56933 19.605 7.49233 19.605 7.463 19.605C7.43367 19.605 7.41167 19.605 7.397 19.605C7.243 19.605 7.078 19.6013 6.902 19.594C6.726 19.5867 6.57567 19.5317 6.451 19.429C6.297 19.2897 6.22 19.1393 6.22 18.978C6.22 18.868 6.253 18.7543 6.319 18.637C6.385 18.5197 6.473 18.439 6.583 18.395C6.72967 18.3363 6.88 18.307 7.034 18.307C7.19533 18.307 7.35667 18.3033 7.518 18.296L9.652 18.307ZM19.3048 14.897C19.4294 15.0437 19.5541 15.1977 19.6788 15.359C19.8034 15.5203 19.8878 15.6817 19.9318 15.843C19.9464 15.9163 19.9464 15.9933 19.9318 16.074C19.9171 16.1547 19.8768 16.2243 19.8108 16.283C19.7008 16.3563 19.5834 16.393 19.4588 16.393C19.3194 16.393 19.1838 16.36 19.0518 16.294C18.9271 16.228 18.8244 16.162 18.7438 16.096C18.6191 15.986 18.5054 15.876 18.4028 15.766C18.3001 15.6487 18.1974 15.535 18.0948 15.425C18.0141 15.337 17.9261 15.249 17.8308 15.161C17.7354 15.073 17.6511 14.9777 17.5778 14.875L16.4888 16.074C16.3714 16.1987 16.2468 16.2867 16.1148 16.338C15.9828 16.382 15.8581 16.404 15.7408 16.404C15.7041 16.404 15.6491 16.3967 15.5758 16.382C15.4364 16.3453 15.3411 16.2793 15.2898 16.184C15.2458 16.1033 15.2311 16.0117 15.2458 15.909C15.2604 15.8063 15.2898 15.7147 15.3338 15.634C15.3851 15.546 15.4401 15.4653 15.4988 15.392C15.5648 15.3187 15.6308 15.2417 15.6968 15.161C15.8874 14.9483 16.0708 14.7283 16.2468 14.501C16.4301 14.2663 16.6281 14.039 16.8408 13.819V13.214C16.7821 13.2213 16.7088 13.225 16.6208 13.225C16.5328 13.2177 16.4264 13.214 16.3018 13.214C16.2211 13.214 16.1294 13.2177 16.0268 13.225C15.9241 13.2323 15.8214 13.2287 15.7188 13.214C15.6234 13.1993 15.5354 13.17 15.4548 13.126C15.3741 13.0747 15.3118 12.994 15.2678 12.884C15.2311 12.8033 15.2091 12.7117 15.2018 12.609C15.1944 12.5063 15.2018 12.411 15.2238 12.323C15.2458 12.2203 15.3008 12.1507 15.3888 12.114C15.4841 12.07 15.5721 12.0407 15.6528 12.026C15.7261 12.0113 15.7921 12.004 15.8508 12.004C15.8728 12.004 15.8948 12.0077 15.9168 12.015C15.9388 12.015 15.9608 12.015 15.9828 12.015H16.8738C16.8884 11.8463 16.9214 11.6887 16.9728 11.542C17.0314 11.388 17.1414 11.2817 17.3028 11.223C17.4274 11.179 17.5411 11.168 17.6438 11.19C17.7538 11.212 17.8491 11.256 17.9298 11.322C18.0104 11.388 18.0764 11.4723 18.1278 11.575C18.1791 11.6777 18.2121 11.784 18.2268 11.894C18.2341 11.916 18.2378 11.938 18.2378 11.96C18.2451 11.9747 18.2488 11.993 18.2488 12.015H18.8758C19.1324 12.015 19.3378 12.0333 19.4918 12.07C19.6458 12.0993 19.7741 12.1873 19.8768 12.334C19.9061 12.378 19.9281 12.4403 19.9428 12.521C19.9574 12.5943 19.9574 12.6713 19.9428 12.752C19.9354 12.8253 19.9171 12.895 19.8878 12.961C19.8584 13.027 19.8218 13.0747 19.7778 13.104C19.7191 13.126 19.6531 13.1517 19.5798 13.181C19.5138 13.203 19.4514 13.214 19.3928 13.214C19.3048 13.2213 19.2241 13.225 19.1508 13.225C19.0848 13.2177 19.0078 13.214 18.9198 13.214C18.7878 13.214 18.6851 13.2177 18.6118 13.225C18.5384 13.225 18.4504 13.2213 18.3478 13.214C18.3478 13.3093 18.3478 13.3717 18.3478 13.401C18.3478 13.423 18.3478 13.445 18.3478 13.467C18.3478 13.489 18.3478 13.522 18.3478 13.566C18.3478 13.61 18.3478 13.6943 18.3478 13.819C18.3844 13.8483 18.4321 13.907 18.4908 13.995C18.5494 14.083 18.6081 14.1563 18.6668 14.215C18.7254 14.2737 18.7878 14.3397 18.8538 14.413C18.9198 14.479 18.9894 14.5523 19.0628 14.633C19.1141 14.6843 19.1581 14.732 19.1948 14.776C19.2314 14.82 19.2681 14.8603 19.3048 14.897ZM22.0108 17.251C22.3188 17.251 22.5424 17.317 22.6818 17.449C22.8284 17.581 22.9018 17.7313 22.9018 17.9V18.527C22.9018 18.549 22.9018 18.593 22.9018 18.659C22.9018 18.7177 22.9018 18.78 22.9018 18.846C22.9018 18.912 22.9018 18.9743 22.9018 19.033C22.9091 19.0917 22.9128 19.132 22.9128 19.154C22.9128 19.2347 22.9128 19.3153 22.9128 19.396C22.9128 19.4767 22.9091 19.5573 22.9018 19.638C22.8871 19.792 22.8248 19.9167 22.7148 20.012C22.6121 20.1073 22.4764 20.155 22.3078 20.155C22.2711 20.155 22.2051 20.1513 22.1098 20.144C22.0218 20.144 21.9594 20.1367 21.9228 20.122C21.8201 20.0927 21.7394 20.0487 21.6808 19.99C21.6294 19.9313 21.5891 19.8653 21.5598 19.792C21.5304 19.7187 21.5121 19.638 21.5048 19.55C21.4974 19.4693 21.4901 19.3887 21.4828 19.308C21.4828 19.2787 21.4828 19.2273 21.4828 19.154C21.4828 19.0807 21.4791 19.0073 21.4718 18.934C21.4718 18.8533 21.4681 18.78 21.4608 18.714C21.4534 18.6407 21.4461 18.5893 21.4388 18.56C21.4168 18.5527 21.3581 18.5453 21.2628 18.538C21.1674 18.5307 20.9804 18.527 20.7018 18.527C20.4671 18.527 20.3204 18.5307 20.2618 18.538C20.2104 18.538 20.1811 18.538 20.1738 18.538H16.2028C16.1954 18.538 16.1661 18.5307 16.1148 18.516C16.0708 18.5013 16.0194 18.4793 15.9608 18.45C15.9021 18.4133 15.8471 18.3693 15.7958 18.318C15.7444 18.2667 15.7151 18.2043 15.7078 18.131C15.6638 17.845 15.7078 17.625 15.8398 17.471C15.9278 17.3683 16.0231 17.3097 16.1258 17.295C16.2284 17.273 16.2834 17.2583 16.2908 17.251H22.0108ZM22.8908 14.776V15.777C22.8834 15.8577 22.8724 15.942 22.8578 16.03C22.8431 16.1107 22.8138 16.1913 22.7698 16.272C22.7258 16.36 22.6634 16.4333 22.5828 16.492C22.4801 16.5653 22.3591 16.602 22.2198 16.602C22.0951 16.602 21.9924 16.5763 21.9118 16.525C21.8384 16.481 21.7798 16.426 21.7358 16.36C21.6918 16.294 21.6551 16.2317 21.6258 16.173C21.6038 16.107 21.5891 16.052 21.5818 16.008C21.5744 15.9567 21.5708 15.931 21.5708 15.931V12.301C21.5634 12.2717 21.5671 12.191 21.5818 12.059C21.5964 11.927 21.6258 11.817 21.6698 11.729C21.7431 11.575 21.8898 11.487 22.1098 11.465C22.3811 11.4283 22.5828 11.4833 22.7148 11.63C22.7588 11.6887 22.7881 11.7473 22.8028 11.806C22.8248 11.8573 22.8431 11.9123 22.8578 11.971C22.8798 12.0443 22.8908 12.1213 22.8908 12.202C22.8981 12.2827 22.8981 12.3633 22.8908 12.444V13.203V13.302C22.8908 13.3387 22.8871 13.379 22.8798 13.423C22.8798 13.4597 22.8834 13.5037 22.8908 13.555C22.9201 13.555 22.9751 13.5587 23.0558 13.566C23.1364 13.566 23.2208 13.5697 23.3088 13.577C23.3968 13.577 23.4811 13.5807 23.5618 13.588C23.6424 13.5953 23.7011 13.6027 23.7378 13.61C23.8844 13.6393 23.9871 13.6833 24.0458 13.742C24.1044 13.7933 24.1411 13.8593 24.1558 13.94C24.1778 14.0207 24.1888 14.116 24.1888 14.226C24.1888 14.3287 24.1668 14.4167 24.1228 14.49C24.0348 14.6367 23.9028 14.721 23.7268 14.743C23.5508 14.7577 23.3564 14.7687 23.1438 14.776H22.8908Z" fill="white"/>
</svg>
