<svg width="28" height="28" viewBox="0 0 28 28" fill="none" xmlns="http://www.w3.org/2000/svg">
<path d="M26.6706 13.4013C25.8439 11.9676 21.2972 4.77301 13.573 5.00551C6.43013 5.18634 2.2968 11.4638 1.17305 13.4013C1.05968 13.5977 1 13.8204 1 14.0472C1 14.2739 1.05968 14.4967 1.17305 14.693C1.9868 16.1009 6.33972 23.0888 13.9476 23.0888H14.2706C21.4135 22.908 25.5597 16.6305 26.6706 14.693C26.7839 14.4967 26.8436 14.2739 26.8436 14.0472C26.8436 13.8204 26.7839 13.5977 26.6706 13.4013ZM14.206 20.5055C8.63888 20.6347 5.0093 15.8684 3.87263 14.0472C5.1643 11.9676 8.53555 7.71801 13.7022 7.58884C19.2435 7.44676 22.886 12.2259 24.0356 14.0472C22.7051 16.1268 19.3726 20.3763 14.206 20.5055Z" fill="#231F20"/>
<path d="M13.9218 9.52686C13.0277 9.52686 12.1536 9.792 11.4102 10.2888C10.6667 10.7855 10.0873 11.4916 9.74513 12.3176C9.40296 13.1437 9.31343 14.0527 9.48787 14.9297C9.66231 15.8066 10.0929 16.6122 10.7251 17.2444C11.3574 17.8767 12.1629 18.3072 13.0399 18.4817C13.9168 18.6561 14.8258 18.5666 15.6519 18.2244C16.478 17.8822 17.184 17.3028 17.6808 16.5593C18.1775 15.8159 18.4427 14.9418 18.4427 14.0477C18.4427 12.8487 17.9664 11.6988 17.1185 10.851C16.2707 10.0032 15.1208 9.52686 13.9218 9.52686ZM13.9218 15.9852C13.5386 15.9852 13.164 15.8716 12.8454 15.6587C12.5268 15.4458 12.2785 15.1432 12.1318 14.7891C11.9852 14.4351 11.9468 14.0455 12.0216 13.6697C12.0963 13.2939 12.2809 12.9486 12.5518 12.6777C12.8228 12.4067 13.168 12.2222 13.5438 12.1474C13.9197 12.0727 14.3093 12.111 14.6633 12.2577C15.0173 12.4043 15.3199 12.6527 15.5328 12.9713C15.7457 13.2899 15.8593 13.6645 15.8593 14.0477C15.8593 14.5615 15.6552 15.0544 15.2919 15.4177C14.9285 15.7811 14.4357 15.9852 13.9218 15.9852Z" fill="#231F20"/>
</svg>
