<svg width="28" height="28" viewBox="0 0 28 28" fill="none" xmlns="http://www.w3.org/2000/svg">
<path d="M20.7783 15.6219C22.8321 13.9349 24.1635 11.5267 24.5 8.89023C24.5184 8.73702 24.5064 8.58169 24.4648 8.43311C24.4231 8.28453 24.3526 8.1456 24.2573 8.02427C24.162 7.90293 24.0437 7.80156 23.9091 7.72595C23.7746 7.65033 23.6265 7.60195 23.4733 7.58357C23.3201 7.56518 23.1648 7.57715 23.0162 7.6188C22.8676 7.66044 22.7287 7.73094 22.6074 7.82628C22.486 7.92161 22.3847 8.03991 22.3091 8.17443C22.2334 8.30894 22.1851 8.45702 22.1667 8.61023C21.8878 10.5776 20.908 12.3781 19.4076 13.6808C17.9072 14.9835 15.987 15.7007 14 15.7007C12.013 15.7007 10.0928 14.9835 8.59238 13.6808C7.09198 12.3781 6.11226 10.5776 5.83334 8.61023C5.81496 8.45702 5.76657 8.30894 5.69096 8.17443C5.61534 8.03991 5.51397 7.92161 5.39264 7.82628C5.2713 7.73094 5.13238 7.66044 4.9838 7.6188C4.83521 7.57715 4.67988 7.56518 4.52667 7.58357C4.37347 7.60195 4.22538 7.65033 4.09087 7.72595C3.95636 7.80156 3.83806 7.90293 3.74272 8.02427C3.64739 8.1456 3.57688 8.28453 3.53524 8.43311C3.49359 8.58169 3.48162 8.73702 3.50001 8.89023C3.83348 11.525 5.16055 13.9329 7.21001 15.6219L4.52667 18.3286C4.33554 18.5518 4.23567 18.8388 4.24701 19.1325C4.25835 19.4261 4.38007 19.7046 4.58785 19.9124C4.79563 20.1202 5.07416 20.2419 5.36778 20.2532C5.6614 20.2646 5.94849 20.1647 6.17167 19.9736L9.21668 16.9402C10.3481 17.512 11.5732 17.8756 12.8333 18.0136V22.1669C12.8333 22.4763 12.9563 22.7731 13.1751 22.9919C13.3938 23.2107 13.6906 23.3336 14 23.3336C14.3094 23.3336 14.6062 23.2107 14.825 22.9919C15.0438 22.7731 15.1667 22.4763 15.1667 22.1669V18.0136C16.4268 17.8756 17.6519 17.512 18.7833 16.9402L21.8283 19.9736C22.0515 20.1647 22.3386 20.2646 22.6322 20.2532C22.9259 20.2419 23.2044 20.1202 23.4122 19.9124C23.6199 19.7046 23.7417 19.4261 23.753 19.1325C23.7643 18.8388 23.6645 18.5518 23.4733 18.3286L20.7783 15.6219Z" fill="#231F20"/>
</svg>
