<svg width="172" height="172" viewBox="0 0 172 172" fill="none" xmlns="http://www.w3.org/2000/svg">
<g id="Group 15">
<circle id="Ellipse 24" cx="86" cy="86" r="86" fill="white"/>
<g id="Mask group">
<mask id="mask0_118_1189" style="mask-type:alpha" maskUnits="userSpaceOnUse" x="0" y="0" width="172" height="172">
<circle id="Ellipse 23" cx="86" cy="86" r="86" fill="white"/>
</mask>
<g mask="url(#mask0_118_1189)">
<g id="Group">
<path id="Vector" d="M127.547 127.798C134.473 127.052 139.317 120.324 138.289 112.717C137.262 105.111 130.852 99.4835 123.926 100.23" stroke="#F89090" stroke-width="3" stroke-miterlimit="10" stroke-linecap="round"/>
<g id="Group_2">
<path id="Vector_2" d="M113.027 59.8708C111.089 58.9941 109.675 57.1315 109.477 54.9729C107.852 39.1778 86.8518 26.7264 72.9972 35.3811C68.1518 38.3301 63.8558 45.7801 61.747 52.8993C61.2859 54.5137 60.1272 55.7748 58.5564 56.2306C46.8533 59.7409 39.334 66.3181 39.5909 74.1095C39.9306 86.7968 60.4894 97.9604 85.4666 99.2097C110.457 100.395 130.432 91.0168 130.079 78.393C129.873 71.2937 123.235 64.551 113.087 59.8897L113.027 59.8708Z" stroke="#F89090" stroke-width="3" stroke-miterlimit="10"/>
<path id="Vector_3" d="M46.4668 93.3284C45.0719 97.9006 44.37 102.896 44.5973 108.114C44.6001 108.732 44.664 109.37 44.728 110.007C45.1943 115.643 43.6403 120.989 40.7747 125.443C34.1889 135.663 30.5561 148.592 31.211 162.795C32.6553 196.872 57.6372 225.219 87.0862 226.145C116.535 227.071 139.155 200.192 137.698 166.18C137.152 153.657 133.405 141.846 127.445 131.95C124.537 127.127 122.817 121.579 123.246 116.017C123.674 110.456 123.091 104.441 121.124 98.1973C120.739 96.91 120.231 95.5844 119.711 94.3233" stroke="#F89090" stroke-width="3" stroke-miterlimit="10"/>
<g id="Group_3">
<path id="Vector_4" opacity="0.5" d="M61.3081 132.666C65.8574 134.113 70.3262 131.431 71.2896 126.675C72.2529 121.92 69.3459 116.892 64.7967 115.445C60.2474 113.998 55.7786 116.68 54.8153 121.436C53.8519 126.191 56.7589 131.219 61.3081 132.666Z" fill="#F6BC79"/>
<path id="Vector_5" opacity="0.5" d="M104.854 132.178C109.403 133.625 113.872 130.943 114.835 126.187C115.799 121.432 112.892 116.404 108.343 114.957C103.793 113.51 99.3245 116.192 98.3612 120.948C97.3978 125.703 100.305 130.731 104.854 132.178Z" fill="#F6BC79"/>
<path id="Vector_6" d="M111.953 131.509C112.691 146.914 100.344 146.069 85.7662 145.513C71.1884 144.957 59.9656 144.861 59.2277 129.456" stroke="#F89090" stroke-width="3" stroke-miterlimit="10" stroke-linecap="round"/>
<path id="Vector_7" d="M80.5492 113.069C82.2796 109.671 86.9308 109.857 89.0175 113.38L92.6214 119.701L94.1165 122.287C97.1065 127.459 93.946 133.739 88.4605 133.492L85.6871 133.359L82.9139 133.226C77.4154 133.043 73.6539 126.536 76.1623 121.546L77.4535 119.029L79.0477 115.504L80.5492 113.069Z" stroke="#F89090" stroke-width="3" stroke-miterlimit="10" stroke-linecap="round"/>
<path id="Vector_8" d="M69.4884 120.921C71.3081 121.5 73.0956 120.427 73.4809 118.525C73.8662 116.623 72.7035 114.611 70.8838 114.033C69.0641 113.454 67.2765 114.527 66.8912 116.429C66.5058 118.331 67.6687 120.342 69.4884 120.921Z" fill="#DB7C7C"/>
<path id="Vector_9" d="M99.1343 120.558C100.954 121.137 102.742 120.064 103.127 118.162C103.512 116.26 102.349 114.249 100.53 113.67C98.71 113.091 96.9225 114.164 96.5372 116.066C96.1518 117.968 97.3146 119.98 99.1343 120.558Z" fill="#DB7C7C"/>
</g>
<path id="Vector_10" d="M41.2855 127.616C34.2009 125.89 29.3548 118.425 30.4256 111.005C31.4963 103.586 38.1324 98.8733 45.1551 100.58" stroke="#F89090" stroke-width="3" stroke-miterlimit="10" stroke-linecap="round"/>
<g id="Group_4">
<path id="Vector_11" d="M43.2061 148.799C43.2061 148.799 42.5112 155.785 52.0136 158.406C61.9574 161.101 70.5763 166.161 70.9697 174.854C71.3631 183.546 63.5618 190.238 53.4723 189.877" stroke="#F89090" stroke-width="3" stroke-miterlimit="10" stroke-linecap="round"/>
<path id="Vector_12" d="M60.0424 170.277L69.1766 170.597" stroke="#F89090" stroke-width="3" stroke-miterlimit="10" stroke-linecap="round"/>
</g>
<g id="Group_5">
<path id="Vector_13" d="M120.734 148.82C120.734 148.82 122.119 156.016 112.669 157.849C102.793 159.823 94.4642 164.286 94.8585 173.098C95.2527 181.91 103.943 189.351 114.132 189.752" stroke="#F89090" stroke-width="3" stroke-miterlimit="10" stroke-linecap="round"/>
<path id="Vector_14" d="M105.609 170.19L96.4895 169.819" stroke="#F89090" stroke-width="3" stroke-miterlimit="10" stroke-linecap="round"/>
</g>
<path id="Vector_15" d="M63.8651 62.8466C64.4392 63.7513 73.6544 78.6978 88.1273 75.76C99.6142 73.4213 105.736 68.7646 108.038 66.5659" stroke="#F89090" stroke-width="3" stroke-miterlimit="10" stroke-linecap="round"/>
</g>
</g>
</g>
</g>
</g>
</svg>
