<svg width="77" height="54" viewBox="0 0 77 54" fill="none" xmlns="http://www.w3.org/2000/svg">
<g id="Group 402">
<g id="Group">
<path id="Vector" d="M19.8799 1.76C19.9099 2.02 19.8799 2.52 19.8499 2.71C19.7799 2.94 19.6499 3.14 19.3899 3.37C19.2599 3.5 19.0899 3.63 18.8299 3.7C18.5699 3.77 18.2999 3.8 18.0099 3.83C17.7199 3.86 17.4499 3.9 17.1499 3.9H15.2699V4.46C15.2399 8.38 15.5999 12.39 15.3399 16.31C15.1099 18.98 14.3899 21.94 11.3899 23.13C8.61991 24.22 4.3399 23.99 2.1999 21.98C1.0799 20.96 -0.0400953 18.62 1.8999 17.54C3.6099 16.55 4.4699 19.09 6.1499 19.48C11.5199 20.76 10.6299 13.82 10.6899 11.22C10.7199 8.92 10.6599 6.68 10.6599 4.37V4.24C10.6899 4.17 10.6899 4.11 10.6899 4.04H10.5899C10.0599 3.97 6.76991 3.97 6.20991 3.94H5.74991V3.91C5.38991 3.88 5.0599 3.78 4.6999 3.68C4.2999 3.55 3.97991 3.35 3.74991 3.05C3.51991 2.82 3.41991 2.23 3.41991 1.9C3.41991 1.67 3.4199 1.41 3.4899 1.18C3.5199 0.95 3.6899 0.72 3.9499 0.52C4.0799 0.42 4.30991 0.290001 4.57991 0.220001C4.87991 0.150001 5.20991 0.0900014 5.52991 0.0600014C5.82991 0.0300014 6.15991 0.0299988 6.47991 0.0299988H9.63991C9.89991 0.0299988 10.2699 0.03 10.6899 0C12.3999 0 14.0799 -1.22003e-06 15.6599 0.0299988H15.8599C16.3199 0.0299988 16.8099 0.0600014 17.2799 0.0600014C17.8099 0.0900014 18.2699 0.190001 18.6999 0.360001C19.0599 0.460001 19.3299 0.620002 19.5599 0.920002C19.7499 1.17 19.8799 1.43 19.8799 1.76Z" fill="#FFD167"/>
<path id="Vector_2" d="M26.8498 4.09021L26.7798 9.26022H28.0998C29.8798 9.23022 31.1298 9.23022 32.8398 9.26022H32.9998C33.5298 9.26022 34.0198 9.29022 34.5098 9.29022C35.0398 9.32022 35.5298 9.45021 35.9898 9.59021C36.3898 9.72021 36.6798 9.92021 36.9098 10.1802C37.1398 10.4802 37.2398 10.8102 37.2398 11.1302C37.2398 11.3602 37.2398 11.6602 37.1698 11.8902C37.1398 12.1202 37.0098 12.3502 36.7398 12.5502C36.6098 12.7102 36.3798 12.8102 36.1098 12.8802C35.8798 12.9502 35.5798 13.0102 35.2498 13.0402C34.9498 13.1102 34.6598 13.1402 34.3298 13.1402H32.7798L26.6898 13.1702L26.6198 19.6202L33.1698 19.6902H34.7198C35.0498 19.6902 35.3798 19.6902 35.6398 19.7202C35.9698 19.7902 36.2698 19.8202 36.5298 19.8802C36.7898 19.9802 37.0198 20.1102 37.1898 20.2402C37.4198 20.4702 37.5498 20.6702 37.6198 20.9302C37.6498 21.1302 37.6898 21.3902 37.6498 21.6502C37.6498 22.0102 37.5498 22.3102 37.3198 22.6002C37.0898 22.8602 36.7898 23.0902 36.3998 23.1902C35.9398 23.3902 35.4498 23.4902 34.8898 23.4902C34.3998 23.5202 33.8698 23.5202 33.3798 23.5602H33.1798C31.4698 23.5902 29.6898 23.5902 27.8498 23.5602C26.1398 23.5302 25.9698 23.5302 24.5898 23.5302C24.1298 23.5602 23.6998 23.5002 23.3398 23.2702C23.1098 23.1402 22.9098 22.9402 22.7798 22.6402C22.7098 22.5702 22.6798 22.4802 22.6798 22.4402C22.6498 22.3702 22.5798 22.3102 22.5498 22.2402C22.4798 22.0102 22.4198 21.7802 22.4198 21.5502C22.3898 21.3502 22.3498 21.1202 22.3198 20.8902V20.3602C22.3198 20.2002 22.3498 20.0002 22.3498 19.8302V17.2602L22.4198 12.5202V8.17022C22.4198 6.59022 22.4498 5.50022 22.4898 4.06022V3.90022C22.5198 3.44022 22.5598 3.01022 22.5598 2.58022C22.5898 2.12022 22.7198 1.69021 22.9198 1.30021C23.0798 0.970214 23.2798 0.670217 23.6098 0.510217C23.9398 0.310217 24.2398 0.210214 24.6298 0.210214C24.7898 0.210214 24.8898 0.210216 25.0298 0.240216V0.210214C26.6098 0.210214 26.7098 0.210215 28.5198 0.180215C30.2598 0.150215 31.7798 0.150215 33.4598 0.180215H33.5898C34.0798 0.210215 34.6098 0.210215 35.0998 0.250215C35.5898 0.250215 36.0898 0.380214 36.5498 0.550214C36.9098 0.650214 37.2398 0.850215 37.4698 1.11022C37.6698 1.41022 37.7698 1.70021 37.7698 2.03021C37.7698 2.29021 37.7698 2.56021 37.6998 2.75021C37.6698 3.01021 37.5398 3.21021 37.2998 3.44021C37.1398 3.54021 36.9398 3.67022 36.6698 3.77022C36.4098 3.84021 36.1098 3.87022 35.8498 3.90022C35.5198 3.97022 35.2198 3.97022 34.8998 3.97022H33.4198L26.8498 3.99022V4.09021Z" fill="#FFD167"/>
<path id="Vector_3" d="M58.49 1.76C58.52 2.02 58.49 2.52 58.46 2.71C58.39 2.94 58.26 3.14 58 3.37C57.87 3.5 57.7 3.63 57.44 3.7C57.18 3.77 56.91 3.8 56.62 3.83C56.33 3.86 56.06 3.9 55.76 3.9H53.88V4.46C53.85 8.38 54.21 12.39 53.95 16.31C53.72 18.98 53 21.94 50 23.13C47.23 24.22 42.96 23.99 40.82 21.98C39.7 20.96 38.58 18.62 40.52 17.54C42.23 16.55 43.09 19.09 44.77 19.48C50.14 20.76 49.25 13.82 49.31 11.22C49.34 8.92 49.28 6.68 49.28 4.37V4.24C49.31 4.17 49.31 4.11 49.31 4.04H49.21C48.68 3.97 45.39 3.97 44.83 3.94H44.37V3.91C44.01 3.88 43.68 3.78 43.32 3.68C42.92 3.55 42.6 3.35 42.37 3.05C42.14 2.82 42.04 2.23 42.04 1.9C42.04 1.67 42.04 1.41 42.11 1.18C42.14 0.95 42.31 0.72 42.57 0.52C42.7 0.42 42.93 0.290001 43.2 0.220001C43.5 0.150001 43.83 0.0900014 44.15 0.0600014C44.45 0.0300014 44.78 0.0299988 45.1 0.0299988H48.26C48.52 0.0299988 48.89 0.03 49.31 0C51.02 0 52.7 -1.22003e-06 54.28 0.0299988H54.48C54.94 0.0299988 55.43 0.0600014 55.9 0.0600014C56.43 0.0900014 56.89 0.190001 57.32 0.360001C57.68 0.460001 57.95 0.620002 58.18 0.920002C58.36 1.17 58.49 1.43 58.49 1.76Z" fill="#FFD167"/>
<path id="Vector_4" d="M65.4597 4.09021L65.3897 9.26022H66.7097C68.4897 9.23022 69.7397 9.23022 71.4497 9.26022H71.6097C72.1397 9.26022 72.6297 9.29022 73.1197 9.29022C73.6497 9.32022 74.1397 9.45021 74.5997 9.59021C74.9997 9.72021 75.2897 9.92021 75.5197 10.1802C75.7497 10.4802 75.8497 10.8102 75.8497 11.1302C75.8497 11.3602 75.8497 11.6602 75.7797 11.8902C75.7497 12.1202 75.6197 12.3502 75.3497 12.5502C75.2197 12.7102 74.9897 12.8102 74.7197 12.8802C74.4897 12.9502 74.1897 13.0102 73.8597 13.0402C73.5597 13.1102 73.2697 13.1402 72.9397 13.1402H71.3897L65.2997 13.1702L65.2297 19.6202L71.7797 19.6902H73.3297C73.6597 19.6902 73.9897 19.6902 74.2497 19.7202C74.5797 19.7902 74.8797 19.8202 75.1397 19.8802C75.3997 19.9802 75.6297 20.1102 75.7997 20.2402C76.0297 20.4702 76.1597 20.6702 76.2297 20.9302C76.2597 21.1302 76.2997 21.3902 76.2597 21.6502C76.2597 22.0102 76.1597 22.3102 75.9297 22.6002C75.6997 22.8602 75.3997 23.0902 75.0097 23.1902C74.5497 23.3902 74.0597 23.4902 73.4997 23.4902C73.0097 23.5202 72.4797 23.5202 71.9897 23.5602H71.7897C70.0797 23.5902 68.2997 23.5902 66.4597 23.5602C64.7497 23.5302 64.5797 23.5302 63.1997 23.5302C62.7397 23.5602 62.3097 23.5002 61.9497 23.2702C61.7197 23.1402 61.5197 22.9402 61.3897 22.6402C61.3197 22.5702 61.2897 22.4802 61.2897 22.4402C61.2597 22.3702 61.1897 22.3102 61.1597 22.2402C61.0897 22.0102 61.0297 21.7802 61.0297 21.5502C60.9997 21.3502 60.9597 21.1202 60.9297 20.8902V20.3602C60.9297 20.2002 60.9597 20.0002 60.9597 19.8302V17.2602L61.0297 12.5202V8.17022C61.0297 6.59022 61.0597 5.50022 61.0997 4.06022V3.90022C61.1297 3.44022 61.1697 3.01022 61.1697 2.58022C61.1997 2.12022 61.3297 1.69021 61.5297 1.30021C61.6897 0.970214 61.8897 0.670217 62.2197 0.510217C62.5497 0.310217 62.8497 0.210214 63.2397 0.210214C63.3997 0.210214 63.4997 0.210216 63.6397 0.240216V0.210214C65.2197 0.210214 65.3197 0.210215 67.1297 0.180215C68.8797 0.150215 70.3897 0.150215 72.0697 0.180215H72.1997C72.6897 0.210215 73.2197 0.210215 73.7097 0.250215C74.1997 0.250215 74.6997 0.380214 75.1597 0.550214C75.5197 0.650214 75.8497 0.850215 76.0797 1.11022C76.2797 1.41022 76.3797 1.70021 76.3797 2.03021C76.3797 2.29021 76.3797 2.56021 76.3097 2.75021C76.2797 3.01021 76.1497 3.21021 75.9097 3.44021C75.7497 3.54021 75.5497 3.67022 75.2797 3.77022C75.0197 3.84021 74.7197 3.87022 74.4597 3.90022C74.1297 3.97022 73.8297 3.97022 73.5097 3.97022H72.0297L65.4497 4.00021V4.09021H65.4597Z" fill="#FFD167"/>
</g>
<path id="Vector_5" d="M27.8401 49.2L27.8701 46.53L27.9001 41.56C27.9301 40.14 27.9301 38.59 27.9301 36.96C27.9301 35.33 27.9301 34.22 28.0001 32.67V32.53C28.0301 32.09 28.0701 31.58 28.0701 31.11C28.1001 30.67 28.2401 30.23 28.4401 29.79C28.6101 29.45 28.8101 29.22 29.1501 28.98C29.4901 28.81 29.8601 28.71 30.2001 28.71C30.5401 28.71 30.8401 28.74 31.1101 28.78C31.3801 28.82 31.6501 28.95 31.8901 29.19C32.0601 29.33 32.1601 29.49 32.2601 29.73C32.3301 30 32.4301 30.24 32.4601 30.51C32.4901 30.81 32.5301 31.08 32.5301 31.36C32.5301 31.66 32.5001 31.9 32.5001 32.17V32.74L32.3001 50.28V50.62C32.3001 50.76 32.2701 50.96 32.2301 51.23C32.1601 51.47 32.0901 51.7 31.9901 51.97C31.8501 52.21 31.7201 52.41 31.4801 52.58C31.2801 52.78 30.9701 52.88 30.6001 52.95C29.9901 53.09 29.3801 53.02 28.8801 52.78C28.6401 52.61 28.4401 52.41 28.3101 52.1C28.2401 52.03 28.2101 51.96 28.2101 51.9C28.1801 51.83 28.1101 51.76 28.0701 51.7C28.0001 51.46 27.9301 51.23 27.9301 50.96C27.9001 50.76 27.8601 50.52 27.8301 50.28C27.8001 50.08 27.8001 49.91 27.8301 49.71V49.2H27.8401Z" fill="#FFA366"/>
<path id="Vector_6" d="M49.3305 52.8495C46.3605 53.4895 42.6005 52.7495 39.9705 50.5495C36.8305 47.9495 36.6205 42.8795 36.9305 39.1895C37.1705 35.8795 39.0905 31.6495 42.7405 29.6295C45.5105 28.0395 50.0705 28.4495 52.3005 30.5095C53.7205 31.7595 55.9505 35.4795 52.9405 36.2195C51.6905 36.5595 50.9805 35.6495 50.3405 34.8295C48.1405 32.2295 44.2205 33.0695 42.8705 35.9795C41.4505 39.0195 41.0105 43.6195 42.9005 46.3195C44.3905 48.4495 47.2905 49.0895 49.5905 47.8095C50.3305 47.4395 51.2505 46.3595 52.2905 46.0495C53.1005 45.7795 54.2505 46.0795 54.7205 47.0595C55.9505 49.6395 52.0005 52.2095 49.3305 52.8495Z" fill="#FFA366"/>
<path id="Vector_7" d="M75.4506 51.3196C75.3506 51.6596 75.1806 51.9296 74.8806 52.1296C74.6106 52.3296 74.4106 52.4996 74.1406 52.5996C73.8706 52.7396 73.6006 52.7696 73.2606 52.7396C72.9906 52.7396 72.7906 52.6396 72.5506 52.4996C72.3106 52.3596 72.0406 52.1996 71.8406 52.0296C71.5706 51.7896 71.3306 51.6196 71.1606 51.4196C70.9606 51.1796 70.7506 50.9496 70.5906 50.7796L70.1806 50.3396L63.6906 43.5496L63.7906 50.3396V50.6396C63.7906 50.8096 63.7206 51.0496 63.6906 51.2496C63.6206 51.5196 63.5506 51.7596 63.4506 52.0296C63.3806 52.2996 63.1806 52.4696 63.0106 52.6396C62.7706 52.8396 62.4706 52.9796 62.1306 53.0096C61.4506 53.2096 60.9106 53.1496 60.3406 52.8696C60.1006 52.7296 59.9006 52.4996 59.7306 52.1896C59.7006 52.1196 59.6606 52.0496 59.6306 52.0196C59.6306 51.9496 59.6006 51.8796 59.5606 51.7796C59.4206 51.5396 59.3606 51.3096 59.3606 51.0996C59.3306 50.8296 59.2906 50.6296 59.2606 50.3596C59.2306 50.1896 59.2306 49.9896 59.2306 49.8196C59.2606 49.6196 59.2606 49.4496 59.2606 49.2496L59.2306 46.5796L59.2006 41.6096C59.2006 40.1596 59.1706 38.5996 59.1006 36.9496C59.0706 35.3296 59.0706 34.2096 59.1006 32.6596V32.5196C59.1706 32.0496 59.1706 31.5396 59.2006 31.0996C59.2006 30.6296 59.3006 30.1896 59.5006 29.7496C59.6406 29.4096 59.8706 29.1396 60.2106 28.9396C60.5506 28.7396 60.8906 28.6696 61.2906 28.5996C61.5906 28.5996 61.9006 28.6696 62.1706 28.6996C62.4406 28.7296 62.7106 28.8396 62.9806 29.0696C63.1206 29.2096 63.2506 29.3696 63.3206 29.6396C63.4606 29.8396 63.5206 30.1096 63.5606 30.4196C63.5906 30.6896 63.6306 30.9596 63.6306 31.2596V32.6496L63.6606 36.7696C64.3706 36.1296 65.0806 35.4496 65.7606 34.7096C66.9806 33.4596 68.1606 32.2396 69.3806 31.0896L69.4806 30.9896C69.8506 30.6496 70.2206 30.2796 70.6006 29.9796C70.9006 29.6396 71.3406 29.3396 71.8506 29.1696C72.1906 28.9696 72.5606 28.8996 72.9606 28.9296C73.3706 28.9596 73.7006 29.1296 74.0106 29.3396C74.2506 29.5396 74.4806 29.7096 74.6206 29.9096C74.8206 30.0796 74.9206 30.3496 74.9606 30.6196C74.9606 30.8596 74.9306 31.0596 74.8206 31.2996C74.6806 31.4996 74.5506 31.7696 74.3806 31.9796C74.1806 32.2496 74.0106 32.4896 73.7706 32.6896C73.6006 32.9296 73.3606 33.0996 73.2006 33.2996L72.7606 33.7396L66.4406 40.1896C67.8306 41.5796 69.4806 43.2696 70.2606 44.0796C71.4806 45.3296 72.5906 46.5796 73.6706 47.8296L73.7706 47.9296C74.1106 48.2996 74.4506 48.6696 74.7206 49.0496C75.0606 49.4196 75.2906 49.8296 75.4306 50.2996C75.5806 50.6496 75.6106 50.9496 75.4506 51.3196Z" fill="#FFA366"/>
<g id="Group 13">
<path id="Vector_8" d="M23.59 38.9906C22.63 34.2206 19 30.4706 14.26 29.3306C11.01 28.5506 7.01 28.7906 3.51 32.4906C1.18 34.9606 0 38.2906 0 41.6906V51.7406C0 52.3106 0.459999 52.7706 1.03 52.7706H6.1C6.61 52.7706 7.02 52.3606 7.02 51.8506V45.3406V41.3006C7.02 39.8306 7.53 38.3706 8.56 37.3306C9.96 35.9206 11.55 35.8206 12.85 36.1306C14.69 36.5606 16.19 38.0106 16.65 39.8506C17.07 41.5106 16.58 42.7906 15.86 43.7406C14.83 45.0906 13.15 45.7706 11.45 45.7706H10.09C9.68 45.7706 9.35 46.1006 9.35 46.5106V51.8606C9.35 52.3706 9.76 52.7806 10.27 52.7806H11.06C15.15 52.7806 19.09 51.0406 21.54 47.8206C23.19 45.6306 24.33 42.7106 23.59 38.9906Z" fill="#FFA366"/>
<g id="Group_2">
<g id="Group_3">
<path id="Vector_9" d="M15.6096 37.8407C16.0896 38.4207 16.4596 39.0907 16.6496 39.8407C17.0696 41.5007 16.5796 42.7807 15.8596 43.7307C14.8296 45.0807 13.1496 45.7607 11.4496 45.7607H10.0896C9.67961 45.7607 9.34961 46.0907 9.34961 46.5007V51.8507C9.34961 52.3607 9.75961 52.7707 10.2696 52.7707H11.0596C15.1496 52.7707 19.0896 51.0307 21.5396 47.8107C23.1996 45.6307 24.3296 42.7107 23.5896 38.9907C23.4396 38.2707 23.2296 37.5707 22.9696 36.9007C20.5096 36.8207 17.8396 37.1607 15.6096 37.8407Z" fill="#FFD167"/>
<path id="Vector_10" d="M1.03976 52.7706H6.10976C6.61976 52.7706 7.02977 52.3606 7.02977 51.8506V45.3406V41.3006C7.02977 40.6906 7.13976 40.0906 7.30976 39.5106C4.10977 38.4806 1.31977 35.9606 1.24977 35.9106C0.429767 37.7106 0.00976562 39.6906 0.00976562 41.7006V51.7506C0.00976562 52.3106 0.469764 52.7706 1.03976 52.7706Z" fill="#FFD167"/>
</g>
</g>
<g id="Group_4">
<g id="Group_5">
<path id="Vector_11" d="M16.6599 42.1704C16.4899 42.7704 16.2099 43.2904 15.8699 43.7304C14.8399 45.0804 13.1599 45.7604 11.4599 45.7604H10.0999C9.68986 45.7604 9.35986 46.0904 9.35986 46.5004V51.8504C9.35986 52.3604 9.76987 52.7704 10.2799 52.7704H11.0699C15.1599 52.7704 19.0999 51.0304 21.5499 47.8104C22.7499 46.2304 23.6599 44.2604 23.7999 41.8904C21.6699 41.5004 19.1799 41.5604 16.6599 42.1704Z" fill="#6DAD9C"/>
<path id="Vector_12" d="M1.04995 52.7704H6.11995C6.62995 52.7704 7.03994 52.3604 7.03994 51.8504V45.5104C4.16994 45.7504 1.65995 44.9404 0.0299452 44.1904V51.7404C0.0199452 52.3104 0.479946 52.7704 1.04995 52.7704Z" fill="#6DAD9C"/>
</g>
</g>
</g>
</g>
</svg>
