<svg width="18" height="21" viewBox="0 0 18 21" fill="none" xmlns="http://www.w3.org/2000/svg">
<path id="Vector" d="M9.00002 0C9.28442 0.000428451 9.56867 0.0140036 9.85199 0.0406881C10.755 0.124689 11.4186 0.846576 11.6252 1.69315L11.9752 3.14611C11.9971 3.23274 12.0712 3.35349 12.2329 3.44012C12.5136 3.58974 12.7846 3.75906 13.0447 3.94675C13.1942 4.05438 13.3279 4.06488 13.4081 4.03994L14.7487 3.64224C15.5314 3.41124 16.4404 3.66981 16.9606 4.46913C17.2888 4.97445 17.5756 5.50865 17.8162 6.06778C18.1991 6.95373 17.9511 7.93419 17.3738 8.54976L16.3845 9.60765C16.325 9.67065 16.2654 9.80059 16.2776 9.99353C16.297 10.3308 16.297 10.6695 16.2776 11.0068C16.2654 11.1997 16.3238 11.3297 16.3845 11.3927L17.3738 12.4506C17.9511 13.0661 18.1991 14.0466 17.8162 14.9325C17.5751 15.4912 17.2888 16.0257 16.9606 16.5299C16.4404 17.3305 15.5314 17.5891 14.7487 17.3568L13.4093 16.9604C13.3279 16.9355 13.1942 16.946 13.0447 17.0536C12.7846 17.2414 12.5134 17.4106 12.2329 17.5602C12.0712 17.6468 11.9971 17.7676 11.9764 17.8542L11.624 19.3059C11.4198 20.1538 10.755 20.8756 9.85199 20.9596C9.2851 21.0135 8.71494 21.0135 8.14806 20.9596C7.24504 20.8756 6.58146 20.1538 6.37606 19.3059L6.02483 17.8542C6.00295 17.7676 5.92881 17.6468 5.76717 17.5602C5.48633 17.4112 5.2151 17.2419 4.95531 17.0536C4.80582 16.946 4.67213 16.9355 4.59192 16.9604L3.25138 17.3581C2.46869 17.5891 1.5596 17.3305 1.03942 16.5312C0.711932 16.026 0.425654 15.4912 0.183812 14.9325C-0.199025 14.0466 0.0489076 13.0661 0.624987 12.4506L1.6155 11.3927C1.67627 11.3297 1.73461 11.1997 1.72246 11.0068C1.70301 10.6694 1.70301 10.331 1.72246 9.99353C1.73461 9.80059 1.67627 9.67065 1.6155 9.60765L0.624987 8.54976C0.0489076 7.93419 -0.199025 6.95373 0.183812 6.06778C0.424605 5.509 0.710937 4.97445 1.03942 4.47045C1.5596 3.66981 2.46869 3.41124 3.25138 3.64356L4.5907 4.03994C4.67213 4.06488 4.80582 4.05438 4.95531 3.94675C5.2154 3.75906 5.48642 3.58974 5.76717 3.44012C5.92881 3.35349 6.00295 3.23274 6.02361 3.14611L6.37606 1.69446C6.58024 0.846576 7.24504 0.124689 8.14806 0.0393756C8.4288 0.0131252 8.7132 0 9.00002 0ZM8.30605 2.00159C8.2623 2.00553 8.17479 2.04884 8.13955 2.19322L7.78831 3.64356C7.60965 4.37988 7.12108 4.91276 6.57538 5.20414C6.36513 5.31702 6.16216 5.44434 5.9677 5.58478C5.4609 5.94966 4.78881 6.13997 4.10942 5.93916L2.76888 5.54146C2.63641 5.50209 2.55619 5.56246 2.53188 5.60053C2.26451 6.01003 2.03116 6.44579 1.83548 6.89992C1.81847 6.94061 1.80996 7.0443 1.90719 7.1493L2.89771 8.20719C3.39722 8.74007 3.58074 9.46327 3.54185 10.1182C3.52726 10.3726 3.52726 10.6277 3.54185 10.8821C3.58074 11.5371 3.39722 12.2603 2.89771 12.7931L1.90719 13.851C1.80875 13.956 1.81847 14.0597 1.83548 14.1004C2.03237 14.5545 2.26451 14.989 2.53188 15.3985C2.55619 15.4379 2.63519 15.4982 2.76888 15.4589L4.1082 15.0612C4.78881 14.8604 5.4609 15.0507 5.9677 15.4156C6.16338 15.556 6.36634 15.6833 6.5766 15.7962C7.11986 16.0876 7.60965 16.6218 7.78831 17.3568L8.13955 18.8071C8.17479 18.9502 8.2623 18.9948 8.30605 18.9987C8.76783 19.042 9.23221 19.042 9.69399 18.9987C9.73775 18.9948 9.82525 18.9515 9.8605 18.8071L10.2117 17.3568C10.3904 16.6204 10.879 16.0876 11.4247 15.7962C11.6349 15.6833 11.8379 15.556 12.0323 15.4156C12.5391 15.0507 13.2112 14.8604 13.8906 15.0612L15.2312 15.4589C15.3636 15.4969 15.4439 15.4379 15.4682 15.3998C15.7355 14.989 15.9677 14.5545 16.1646 14.1004C16.1816 14.0597 16.1901 13.956 16.0929 13.851L15.1023 12.7931C14.6028 12.2603 14.4193 11.5371 14.4582 10.8821C14.4728 10.6277 14.4728 10.3726 14.4582 10.1182C14.4193 9.46327 14.6028 8.74007 15.1023 8.20719L16.0929 7.1493C16.1913 7.0443 16.1816 6.94061 16.1646 6.89992C15.9684 6.44587 15.7353 6.01148 15.4682 5.60184C15.4439 5.56246 15.3649 5.50209 15.2312 5.54146L13.8918 5.93916C13.2112 6.13997 12.5391 5.94966 12.0323 5.58478C11.8373 5.44373 11.6339 5.31658 11.4234 5.20414C10.8802 4.91276 10.3904 4.37857 10.2117 3.64356L9.8605 2.19322C9.82525 2.04884 9.73775 2.00553 9.69399 2.00159C9.23221 1.95829 8.76783 1.95829 8.30605 2.00159ZM12.6461 10.5002C12.6461 11.5445 12.262 12.546 11.5782 13.2844C10.8944 14.0229 9.96702 14.4377 9.00002 14.4377C8.03302 14.4377 7.10563 14.0229 6.42186 13.2844C5.73809 12.546 5.35395 11.5445 5.35395 10.5002C5.35395 9.45586 5.73809 8.45432 6.42186 7.71589C7.10563 6.97745 8.03302 6.5626 9.00002 6.5626C9.96702 6.5626 10.8944 6.97745 11.5782 7.71589C12.262 8.45432 12.6461 9.45586 12.6461 10.5002ZM10.8231 10.5002C10.8229 9.97784 10.6306 9.47697 10.2885 9.10775C9.94638 8.73854 9.48247 8.53121 8.99881 8.53138C8.51515 8.53156 8.05136 8.73922 7.70947 9.10868C7.36759 9.47815 7.17561 9.97915 7.17577 10.5015C7.17593 11.0238 7.36822 11.5247 7.71033 11.8939C7.87973 12.0767 8.08081 12.2217 8.3021 12.3206C8.52338 12.4195 8.76054 12.4703 9.00002 12.4703C9.23951 12.4702 9.47663 12.4191 9.69785 12.3201C9.91908 12.221 10.1201 12.0759 10.2894 11.893C10.4586 11.71 10.5929 11.4929 10.6845 11.2539C10.776 11.0149 10.8231 10.7588 10.8231 10.5002Z" fill="#414141"/>
</svg>
