<svg width="19" height="27" viewBox="0 0 19 27" fill="none" xmlns="http://www.w3.org/2000/svg">
<path d="M3.20525 0.5924L4.66688 0.127995C6.03486 -0.30671 7.49785 0.396648 8.08413 1.77096L9.25126 4.5088C9.76018 5.70086 9.4779 7.10353 8.55369 7.97564L5.98465 10.403C6.14343 11.8556 6.63336 13.2853 7.45578 14.692C8.23725 16.053 9.28527 17.2443 10.5378 18.1953L13.6266 17.1692C14.7965 16.7818 16.0708 17.2286 16.7887 18.2776L18.4607 20.7211C19.2967 21.9416 19.1461 23.6237 18.1106 24.6578L17.0005 25.7661C15.8958 26.8691 14.3188 27.2701 12.8585 26.8165C9.41276 25.7472 6.24522 22.5734 3.35453 17.2948C0.45978 12.0081 -0.560781 7.52068 0.290138 3.83784C0.64842 2.28802 1.75855 1.05276 3.20796 0.5924H3.20525Z" fill="#FFA366"/>
</svg>
